<?xml version="1.0" standalone="no"?>
<!DOCTYPE svg PUBLIC "-//W3C//DTD SVG 20010904//EN"
 "http://www.w3.org/TR/2001/REC-SVG-20010904/DTD/svg10.dtd">
<svg version="1.0" xmlns="http://www.w3.org/2000/svg"
 width="720.000000pt" height="405.000000pt" viewBox="0 0 720.000000 405.000000"
 preserveAspectRatio="xMidYMid meet">
<metadata>
Created by potrace 1.16, written by Peter Selinger 2001-2019
</metadata>
<g transform="translate(0.000000,405.000000) scale(0.100000,-0.100000)"
fill="#000000" stroke="none">
<path d="M3600 3100 l0 -950 -1800 0 -1800 0 0 -1075 0 -1075 3600 0 3600 0 0
2025 0 2025 -1800 0 -1800 0 0 -950z m2402 420 c35 -10 36 -11 25 -39 -9 -25
-14 -28 -34 -20 -81 31 -99 -12 -23 -54 63 -34 78 -67 56 -115 -9 -18 -27 -37
-42 -42 -33 -13 -111 -13 -119 0 -4 6 -11 8 -16 5 -5 -4 -9 10 -9 29 0 34 1
35 26 26 14 -6 41 -10 60 -10 27 0 34 4 34 20 0 14 -14 26 -46 40 -83 38 -91
130 -13 157 43 15 55 15 101 3z m-1492 -52 l0 -53 50 3 50 4 0 49 0 49 35 0
35 0 0 -140 0 -140 -37 0 -38 0 3 60 4 60 -51 0 -51 0 0 -60 0 -60 -35 0 -35
0 0 140 0 140 35 0 35 0 0 -52z m400 27 c0 -23 -4 -25 -44 -25 -31 0 -46 -5
-50 -16 -11 -28 -6 -33 37 -36 38 -3 42 -6 45 -32 3 -28 3 -28 -41 -25 -45 4
-45 4 -44 -28 1 -33 2 -33 49 -33 47 0 48 -1 48 -30 l0 -30 -85 0 -86 0 2 133
c0 72 3 135 6 140 2 4 40 7 84 7 78 0 79 0 79 -25z m120 -85 l0 -110 55 0 c54
0 55 0 55 -30 l0 -30 -74 0 c-109 0 -106 -3 -106 106 0 68 3 94 13 95 10 0 10
2 0 6 -34 13 -1 72 40 73 15 0 17 -12 17 -110z m323 101 c29 -11 51 -67 41
-105 -9 -36 -50 -66 -90 -66 l-34 0 0 -50 0 -50 -35 0 -35 0 0 140 0 140 64 0
c36 0 76 -4 89 -9z m267 -82 c0 -104 9 -129 48 -129 46 0 52 15 52 122 l0 98
35 0 35 0 0 -103 c0 -113 -8 -135 -60 -162 -41 -21 -92 -19 -130 8 -40 26 -42
34 -47 160 l-4 97 35 0 36 0 0 -91z m430 -234 c0 -13 -98 -15 -820 -15 -722 0
-820 2 -820 15 0 13 98 15 820 15 722 0 820 -2 820 -15z m-1349 -241 c11 -3
15 -12 11 -29 -4 -24 -7 -25 -52 -19 -42 6 -49 4 -64 -17 -9 -14 -16 -43 -16
-70 0 -63 23 -84 85 -77 44 5 45 5 45 -23 0 -24 -5 -29 -36 -35 -83 -15 -148
19 -161 85 -6 33 -7 48 -4 100 2 29 49 80 84 90 29 9 66 7 108 -5z m251 -24
c34 -35 33 -68 -4 -107 l-21 -22 24 -33 c14 -18 33 -45 42 -60 l17 -28 -39 0
c-36 0 -41 3 -72 55 -18 30 -38 54 -44 52 -5 -2 -10 -26 -10 -53 l0 -49 -37
-3 -38 -3 0 140 0 141 76 0 c71 0 77 -2 106 -30z m258 5 c0 -23 -4 -25 -44
-25 -31 0 -46 -5 -50 -16 -13 -34 -7 -39 39 -36 44 4 45 4 45 -27 0 -30 -2
-31 -40 -31 -38 0 -40 -2 -40 -30 0 -29 2 -30 45 -30 43 0 45 -1 45 -30 l0
-30 -85 0 -85 0 0 133 c0 74 3 137 7 140 3 4 42 7 85 7 77 0 78 0 78 -25z
m244 -67 c15 -51 32 -102 37 -113 5 -11 13 -33 19 -48 l10 -28 -42 3 c-36 3
-43 7 -48 28 -5 22 -11 25 -55 25 -44 0 -50 -3 -55 -25 -5 -21 -12 -25 -46
-28 l-41 -3 46 141 46 140 50 0 50 0 29 -92z m286 67 c0 -22 -4 -25 -35 -25
l-35 0 0 -115 0 -115 -35 0 -35 0 0 115 0 115 -35 0 c-31 0 -35 3 -35 25 l0
25 105 0 105 0 0 -25z m212 0 c5 -22 2 -24 -41 -27 -39 -3 -46 -6 -49 -25 -3
-21 1 -23 42 -23 44 0 46 -1 46 -30 0 -29 -2 -30 -45 -30 -43 0 -45 -1 -45
-30 0 -29 1 -30 48 -30 45 0 47 -1 48 -30 l1 -30 -83 0 -84 0 0 133 c0 74 3
137 7 140 3 4 39 7 79 7 68 0 72 -1 76 -25z m18 -300 c0 -13 -89 -15 -745 -15
-656 0 -745 2 -745 15 0 13 89 15 745 15 656 0 745 -2 745 -15z m-775 -175 c3
-6 -1 -13 -10 -16 -9 -4 -14 -13 -11 -21 3 -8 -1 -21 -8 -29 -8 -8 -18 -35
-22 -60 -3 -25 -13 -52 -21 -59 -19 -19 -53 -19 -53 0 0 8 6 15 14 15 20 0 42
100 24 111 -9 6 -8 10 5 15 9 3 17 12 17 18 0 29 51 49 65 26z m55 -5 c0 -8
-9 -15 -20 -15 -20 0 -26 11 -13 23 12 13 33 7 33 -8z m670 -63 l0 -79 -46 -1
c-39 0 -46 3 -55 25 -5 13 -9 31 -9 39 0 21 38 54 55 48 10 -4 15 0 15 13 0
23 8 33 27 33 10 0 13 -20 13 -78z m-1702 0 c27 -83 27 -82 2 -82 -11 0 -20 7
-20 15 0 9 -9 15 -25 15 -14 0 -28 -7 -31 -15 -6 -15 -44 -22 -44 -8 0 4 10
37 22 75 20 61 25 68 48 68 23 0 28 -7 48 -68z m1105 38 c21 -25 21 -27 -3
-33 -14 -3 -20 -14 -20 -31 0 -14 5 -26 10 -26 6 0 10 -7 10 -15 0 -10 -10
-15 -29 -15 -28 0 -30 2 -33 48 -2 36 2 52 17 69 25 28 26 28 48 3z m311 -1
c13 -15 15 -24 7 -32 -17 -17 -13 -57 5 -57 9 0 14 -6 12 -12 -3 -7 -18 -13
-34 -13 -26 0 -29 4 -32 35 -2 19 -7 39 -12 44 -8 8 18 55 30 56 3 0 14 -10
24 -21z m637 0 c20 -20 20 -23 5 -31 -20 -12 -22 -58 -1 -58 8 0 15 -7 15 -15
0 -10 -10 -15 -30 -15 -31 0 -32 2 -43 74 -3 17 2 36 11 47 20 23 18 23 43 -2z
m-1861 -49 c0 -51 -8 -70 -30 -70 -15 0 -17 5 -9 37 4 21 6 39 4 41 -9 10 -23
-11 -29 -43 -5 -26 -12 -35 -27 -35 -15 0 -19 5 -15 18 3 9 8 34 12 55 5 30
10 38 24 34 10 -2 24 -1 30 3 24 15 40 -1 40 -40z m111 40 c26 -14 26 -71 0
-94 -28 -25 -75 -18 -79 13 -6 37 6 67 30 79 29 14 26 14 49 2z m145 -64 c-6
-36 -11 -46 -26 -46 -18 0 -19 5 -13 47 8 58 -14 52 -23 -8 -5 -30 -11 -39
-26 -39 -17 0 -19 5 -12 48 8 56 10 59 49 64 45 6 59 -12 51 -66z m196 45 c5
-60 -14 -95 -48 -88 -18 3 -23 -2 -28 -25 -4 -19 -12 -28 -25 -28 -18 0 -18 2
-2 77 15 74 18 78 46 84 38 7 55 1 57 -20z m108 10 c0 -10 -9 -21 -19 -24 -13
-3 -22 -17 -26 -41 -5 -26 -12 -36 -26 -36 -22 0 -22 -4 -8 60 9 43 14 51 30
47 10 -3 22 -1 25 4 9 16 24 10 24 -10z m110 -35 c0 -41 -28 -69 -67 -64 -21
2 -29 9 -31 27 -6 40 7 69 35 79 40 14 63 -2 63 -42z m457 48 c28 -8 19 -33
-10 -27 -19 4 -18 2 8 -20 25 -21 28 -29 19 -44 -15 -24 -84 -31 -84 -9 0 11
9 16 28 16 l27 1 -27 15 c-32 17 -37 48 -10 63 20 12 21 12 49 5z m487 -4 c19
-7 26 -17 26 -35 0 -22 -4 -25 -36 -25 -30 0 -34 -3 -25 -14 6 -8 22 -11 37
-8 20 4 25 1 22 -9 -7 -21 -72 -24 -88 -4 -18 22 -15 77 6 92 21 16 25 16 58
3z m150 -6 c10 -9 16 -33 16 -60 0 -37 -3 -44 -20 -44 -17 0 -20 7 -20 39 0
22 -4 42 -9 46 -11 6 -33 -28 -30 -48 3 -26 -2 -37 -16 -37 -12 0 -15 13 -15
56 0 50 2 56 19 51 10 -2 25 -1 32 4 19 12 25 11 43 -7z m-934 1 c0 -2 -5 -27
-11 -55 -8 -40 -15 -50 -31 -50 -14 0 -18 5 -14 18 3 9 8 34 12 55 4 27 11 37
25 37 11 0 19 -2 19 -5z m473 -22 c-4 -33 10 -59 26 -49 6 4 11 23 11 42 0 27
4 34 20 34 18 0 20 -7 20 -54 l0 -54 -52 2 -53 1 -3 53 c-3 45 -1 52 16 52 14
0 18 -6 15 -27z m-973 -28 c0 -9 -9 -15 -25 -15 -16 0 -25 6 -25 15 0 9 9 15
25 15 16 0 25 -6 25 -15z m1620 0 c0 -10 -10 -15 -30 -15 -20 0 -30 5 -30 15
0 10 10 15 30 15 20 0 30 -5 30 -15z m-970 -36 c0 -17 -20 -49 -30 -49 -11 0
-14 43 -3 53 10 11 33 8 33 -4z m238 -221 l3 -77 -43 1 c-55 0 -68 12 -68 59
0 41 24 65 54 53 12 -5 16 0 16 21 0 20 4 26 18 23 14 -3 17 -16 20 -80z
m-278 42 c24 -24 25 -30 5 -30 -10 0 -15 -10 -15 -30 0 -20 5 -30 15 -30 8 0
15 -7 15 -15 0 -18 -43 -20 -58 -2 -18 22 -20 89 -3 109 19 22 17 22 41 -2z
m-441 -9 c17 -11 5 -32 -17 -29 -12 2 -18 -5 -20 -26 -3 -26 -1 -28 23 -24 20
4 25 2 23 -11 -4 -21 -61 -27 -77 -7 -21 25 -10 79 19 93 30 15 31 15 49 4z
m111 -10 c0 -10 -9 -21 -20 -24 -15 -4 -20 -14 -20 -41 0 -29 -4 -36 -20 -36
-18 0 -20 7 -20 56 0 54 1 56 24 52 14 -3 31 -1 38 3 18 12 18 12 18 -10z
m118 -9 c22 -28 14 -42 -23 -42 -19 0 -35 -4 -35 -10 0 -5 14 -10 30 -10 20 0
30 -5 30 -15 0 -11 -11 -15 -38 -15 -47 0 -62 14 -62 56 0 57 63 80 98 36z
m106 18 c23 -8 26 -15 26 -59 l0 -49 -46 2 c-32 1 -50 6 -57 18 -14 22 7 48
39 48 13 0 24 5 24 10 0 6 -11 10 -25 10 -26 0 -34 15 -12 23 19 8 24 8 51 -3z
m236 -10 c31 -31 26 -50 -15 -50 -19 0 -35 -4 -35 -10 0 -5 14 -10 30 -10 20
0 30 -5 30 -15 0 -21 -64 -20 -85 1 -24 25 -16 76 15 91 33 17 37 16 60 -7z
m-4457 -102 c2 -7 12 -54 22 -105 17 -87 35 -115 35 -55 0 15 9 59 19 97 18
69 19 70 52 70 26 0 34 -5 37 -20 1 -11 10 -44 18 -73 9 -29 14 -61 12 -70 -3
-10 0 -22 7 -28 8 -9 16 12 30 80 23 119 22 116 60 116 l33 0 -35 -140 -35
-140 -43 0 -42 0 -16 78 c-9 42 -17 85 -17 95 0 9 -4 17 -10 17 -5 0 -10 -8
-10 -17 0 -10 -7 -53 -17 -95 l-17 -78 -42 0 -42 0 -27 118 c-15 64 -31 127
-36 140 -8 20 -6 22 25 22 19 0 36 -6 39 -12z m527 -13 c0 -23 -4 -25 -45 -25
-41 0 -45 -2 -45 -24 0 -28 28 -41 66 -32 21 6 24 3 24 -23 0 -28 -2 -29 -42
-28 -41 1 -43 0 -46 -31 -3 -32 -3 -32 42 -32 44 0 46 -1 46 -30 l0 -30 -80 0
-80 0 0 140 0 140 80 0 c79 0 80 0 80 -25z m229 -64 c12 -49 21 -97 21 -106 0
-37 12 -4 33 92 l22 98 35 3 35 3 19 -88 c28 -136 28 -135 47 -43 30 140 26
130 63 130 l33 0 -32 -128 c-17 -71 -35 -134 -39 -140 -4 -7 -24 -12 -45 -12
l-38 0 -16 78 c-9 42 -17 86 -17 97 0 41 -18 -3 -35 -87 l-18 -88 -42 0 -42 0
-35 140 -35 140 33 0 32 0 21 -89z m421 -51 l0 -140 -35 0 -35 0 0 140 0 140
35 0 35 0 0 -140z m140 31 l0 -110 53 -3 c48 -3 52 -5 55 -30 l3 -28 -90 0
-91 0 0 140 0 140 35 0 35 0 0 -109z m233 7 c-1 -54 -4 -102 -8 -108 -4 -6 16
-10 54 -10 l61 0 0 -30 0 -30 -90 0 -90 0 0 141 0 140 37 -3 38 -3 -2 -97z
m1974 -60 c-3 -13 -11 -49 -17 -80 l-11 -58 -40 0 c-33 0 -40 4 -45 25 -7 29
11 81 32 89 8 3 21 3 29 0 11 -5 15 1 15 20 0 20 5 26 21 26 17 0 20 -5 16
-22z m523 7 c0 -8 -9 -15 -20 -15 -20 0 -26 11 -13 23 12 13 33 7 33 -8z m447
-7 c-3 -13 -11 -49 -17 -80 -9 -48 -15 -58 -32 -58 -12 0 -18 5 -16 13 3 6 11
42 18 80 11 55 17 67 33 67 15 0 18 -5 14 -22z m231 5 c2 -8 -5 -13 -17 -13
-12 0 -21 6 -21 16 0 18 31 15 38 -3z m132 -61 l0 -79 -45 -1 c-48 0 -65 15
-65 57 0 27 35 62 55 55 11 -5 15 1 15 20 0 19 5 26 20 26 18 0 20 -7 20 -78z
m-900 38 c11 -11 20 -22 20 -24 0 -2 -9 -6 -20 -9 -14 -3 -20 -14 -20 -31 0
-14 5 -26 10 -26 6 0 10 -7 10 -16 0 -11 -8 -14 -27 -12 -25 3 -29 8 -33 48
-4 36 -1 50 15 67 24 27 21 27 45 3z m-576 -15 c20 -21 10 -43 -28 -60 l-31
-13 28 -1 c37 -1 31 -25 -7 -29 -72 -9 -77 85 -6 111 24 9 28 8 44 -8z m254
-52 l-10 -52 -42 2 c-37 2 -41 5 -44 31 -5 44 6 76 27 76 17 0 18 -5 10 -37
-4 -21 -6 -39 -4 -41 9 -9 24 11 30 41 8 33 25 52 37 39 3 -4 2 -30 -4 -59z
m119 43 c-2 -6 -11 -10 -20 -8 -18 3 -41 -33 -32 -48 3 -6 13 -10 21 -10 8 0
14 -7 14 -15 0 -23 -57 -20 -69 3 -14 27 1 75 28 88 26 13 64 7 58 -10z m77
15 c3 -5 15 -7 26 -4 23 6 23 8 9 -56 l-10 -50 -42 2 -42 2 1 44 c1 30 7 48
19 58 22 15 32 16 39 4z m307 -1 c26 -14 26 -71 0 -94 -28 -25 -75 -18 -79 13
-6 37 6 67 30 79 29 14 26 14 49 2z m107 2 c9 9 16 9 28 -4 24 -23 10 -108
-18 -108 -18 0 -19 5 -13 40 9 51 -10 54 -22 3 -6 -25 -15 -39 -27 -41 -17 -4
-18 1 -12 38 9 58 24 84 40 71 9 -7 16 -7 24 1z m167 -41 c-11 -67 -13 -69
-53 -69 -20 0 -40 5 -44 11 -28 44 17 107 71 99 32 -4 33 -6 26 -41z m565 29
c31 -31 26 -50 -15 -50 -19 0 -35 -4 -35 -10 0 -5 14 -10 30 -10 20 0 30 -5
30 -15 0 -18 -51 -21 -81 -5 -28 15 -26 74 3 94 30 21 44 20 68 -4z m130 0
c24 -24 25 -48 4 -78 -20 -28 -68 -30 -87 -2 -42 60 32 131 83 80z m-1074 -27
c-11 -62 -17 -73 -36 -73 -16 0 -17 4 -8 43 15 65 16 67 34 67 13 0 15 -7 10
-37z m559 22 c16 -49 18 -50 28 -17 7 21 16 32 29 32 15 0 18 -5 12 -22 -31
-103 -60 -116 -87 -40 -9 26 -17 50 -17 55 0 14 31 7 35 -8z m135 -40 c0 -48
-2 -55 -20 -55 -18 0 -20 7 -20 55 0 48 2 55 20 55 18 0 20 -7 20 -55z m-3050
-75 c0 -20 -8 -20 -874 -20 -750 0 -875 2 -879 14 -3 8 -1 17 6 19 7 3 402 5
880 6 860 1 867 1 867 -19z m2320 -142 c0 -25 3 -29 12 -20 32 32 71 -12 61
-71 -8 -49 -31 -49 -35 1 -4 52 -32 51 -36 -1 -3 -30 -7 -37 -20 -35 -13 3
-18 17 -20 67 -3 73 1 91 23 91 10 0 15 -10 15 -32z m880 2 c0 -28 2 -29 20
-18 34 22 58 -22 52 -94 -3 -35 -31 -19 -34 20 -4 52 -32 51 -36 -1 -3 -30 -7
-37 -20 -35 -13 3 -18 17 -20 67 -3 73 1 91 23 91 10 0 15 -10 15 -30z m-4646
5 c3 -8 3 -22 0 -30 -4 -8 -3 -15 1 -15 3 0 13 7 21 15 23 22 37 19 24 -6 -9
-16 -8 -26 5 -45 14 -23 14 -24 -4 -24 -10 0 -22 8 -26 18 -6 16 -7 16 -16 0
-19 -33 -29 -18 -29 42 0 57 11 78 24 45z m246 -45 c0 -47 -3 -60 -15 -60 -12
0 -15 13 -15 60 0 47 3 60 15 60 12 0 15 -13 15 -60z m420 50 c0 -5 -7 -10
-15 -10 -8 0 -15 5 -15 10 0 6 7 10 15 10 8 0 15 -4 15 -10z m320 0 c0 -5 -5
-10 -11 -10 -8 0 -8 -4 0 -14 8 -10 9 -16 1 -21 -5 -3 -10 -19 -10 -36 0 -44
-27 -37 -32 9 -7 49 6 82 32 82 11 0 20 -4 20 -10z m540 -50 l0 -59 -37 2
c-35 2 -38 4 -41 36 -4 35 12 55 36 46 7 -2 12 4 12 15 0 11 7 20 15 20 12 0
15 -13 15 -60z m-1749 13 l12 -38 12 35 c8 23 19 36 33 38 20 3 22 -1 22 -52
0 -43 -3 -56 -15 -56 -10 0 -15 11 -16 33 l-1 32 -11 -33 c-12 -39 -38 -40
-48 -2 l-7 25 -1 -27 c-1 -18 -7 -28 -16 -28 -12 0 -15 13 -15 55 0 48 3 55
19 55 14 0 23 -11 32 -37z m3899 22 c0 -8 7 -15 15 -15 8 0 15 -4 15 -10 0 -5
-7 -10 -15 -10 -10 0 -15 -10 -15 -30 0 -20 5 -30 15 -30 8 0 15 -7 15 -15 0
-18 -43 -20 -58 -2 -15 18 -17 79 -4 105 14 25 32 29 32 7z m374 -7 c13 -14
15 -23 8 -26 -19 -6 -15 -62 4 -62 9 0 14 -6 12 -12 -3 -7 -18 -13 -34 -13
-26 0 -29 4 -32 35 -2 19 -7 39 -12 44 -8 8 18 55 30 56 3 0 14 -10 24 -22z
m147 1 c20 -20 20 -23 5 -31 -20 -11 -21 -47 -1 -54 27 -11 17 -36 -12 -32
-24 3 -28 8 -31 38 -2 19 -7 39 -12 44 -8 7 15 56 26 56 2 0 14 -10 25 -21z
m-4263 -8 c8 -5 15 -23 15 -42 2 -31 0 -34 -32 -36 -19 -2 -38 2 -42 9 -11 17
1 38 22 38 10 0 19 5 19 11 0 6 -7 9 -15 5 -15 -5 -20 5 -8 17 9 9 25 8 41 -2z
m203 -1 c28 -15 24 -40 -6 -40 -14 0 -25 -4 -25 -10 0 -5 9 -10 20 -10 11 0
20 -4 20 -10 0 -14 -43 -13 -58 2 -23 23 -8 78 21 78 4 0 17 -5 28 -10z m193
-6 c23 -22 20 -34 -9 -34 -14 0 -25 -4 -25 -10 0 -5 9 -10 20 -10 11 0 20 -5
20 -11 0 -6 -14 -9 -32 -7 -28 2 -34 8 -36 31 -6 49 30 73 62 41z m90 10 c11
-4 16 -19 16 -44 0 -38 0 -38 -37 -37 -31 2 -38 6 -38 22 0 13 8 21 23 23 12
2 22 8 22 14 0 5 -7 8 -15 5 -8 -4 -17 -2 -20 3 -3 4 1 11 7 13 19 8 24 8 42
1z m96 -9 c0 -7 -7 -15 -15 -19 -8 -3 -15 -17 -15 -31 0 -16 -6 -25 -15 -25
-11 0 -15 11 -15 38 0 21 2 41 4 43 11 10 56 6 56 -6z m88 2 c18 -12 16 -77
-3 -77 -10 0 -15 10 -15 30 0 37 -18 40 -22 3 -5 -47 -28 -40 -28 10 0 42 1
45 28 43 15 -1 33 -5 40 -9z m62 -32 c0 -33 -4 -45 -15 -45 -11 0 -15 12 -15
45 0 33 4 45 15 45 11 0 15 -12 15 -45z m98 33 c18 -15 16 -78 -3 -78 -10 0
-15 10 -15 30 0 20 -5 30 -15 30 -10 0 -15 -10 -15 -30 0 -20 -5 -30 -15 -30
-11 0 -15 11 -15 38 0 21 2 41 4 43 9 9 62 7 74 -3z m112 8 c0 -25 -23 -56
-42 -57 -18 -1 -17 -3 7 -8 16 -3 31 -14 33 -23 4 -22 -33 -41 -65 -33 -22 5
-24 10 -18 33 4 15 7 38 6 51 0 14 5 28 11 33 14 8 68 11 68 4z m148 -34 c2
-18 7 -32 12 -32 5 0 10 14 12 32 5 51 28 47 28 -5 l0 -45 -37 1 c-37 2 -38 3
-41 46 -2 32 0 42 10 39 7 -3 14 -19 16 -36z m150 26 c18 -15 16 -78 -3 -78
-10 0 -15 10 -15 30 0 20 -5 30 -15 30 -10 0 -15 -10 -15 -30 0 -20 -5 -30
-15 -30 -11 0 -15 11 -15 38 0 21 2 41 4 43 9 9 62 7 74 -3z m126 6 c11 -4 16
-19 16 -43 0 -36 -2 -38 -34 -39 -23 -1 -36 4 -40 14 -8 21 1 34 25 34 10 0
19 5 19 11 0 6 -7 9 -15 6 -8 -4 -17 -2 -20 3 -3 4 1 11 7 13 19 8 24 8 42 1z
m114 -7 c18 -12 16 -77 -3 -77 -10 0 -15 10 -15 30 0 37 -18 40 -22 3 -5 -47
-28 -40 -28 10 0 42 1 45 28 43 15 -1 33 -5 40 -9z m1680 -3 c12 -9 -27 -60
-48 -63 -23 -3 -22 -4 10 -15 39 -12 49 -36 25 -60 -36 -35 -126 -8 -95 29 8
10 10 29 6 54 -8 53 12 74 62 65 21 -4 39 -8 40 -10z m103 6 c15 -8 19 -21 19
-59 l0 -48 -45 -1 c-52 0 -72 16 -55 47 6 13 21 21 35 21 14 0 25 5 25 11 0 7
-10 9 -25 5 -18 -5 -25 -2 -25 8 0 13 14 21 43 25 5 0 17 -4 28 -9z m154 -2
c6 0 17 3 26 6 27 11 49 -20 49 -70 0 -37 -3 -44 -19 -44 -16 0 -20 8 -23 43
-2 23 -7 42 -13 42 -5 0 -11 -19 -13 -42 -3 -35 -7 -43 -23 -43 -16 0 -19 7
-19 40 0 29 -4 40 -15 40 -11 0 -15 -11 -15 -40 0 -33 -3 -40 -20 -40 -18 0
-20 7 -20 56 0 50 2 56 19 51 10 -2 25 -1 32 4 8 5 21 6 29 3 8 -4 20 -6 25
-6z m183 -4 c12 -8 22 -24 22 -35 0 -15 -7 -19 -36 -19 -21 0 -33 -4 -29 -10
3 -5 17 -10 31 -10 15 0 24 -6 24 -15 0 -21 -58 -20 -82 2 -37 33 -12 94 42
102 3 1 16 -6 28 -15z m413 6 c15 -8 19 -21 19 -60 l0 -49 -47 2 c-46 2 -48 3
-48 32 0 25 4 30 28 33 15 2 27 8 27 13 0 6 -10 9 -22 7 -26 -4 -36 18 -11 25
30 8 33 7 54 -3z m377 -6 c12 -8 22 -24 22 -35 0 -15 -7 -19 -36 -19 -21 0
-33 -4 -29 -10 3 -5 17 -10 31 -10 15 0 24 -6 24 -15 0 -10 -10 -15 -32 -15
-61 0 -89 59 -48 100 24 24 38 25 68 4z m124 4 c18 -14 31 -77 20 -94 -4 -5
-27 -10 -52 -10 -42 1 -45 3 -48 29 -3 23 1 28 27 33 35 7 43 27 9 22 -26 -4
-36 18 -11 25 31 8 39 7 55 -5z m138 -14 c0 -8 -10 -14 -25 -14 -20 0 -25 -5
-25 -25 0 -20 5 -25 26 -25 33 0 27 -24 -8 -28 -56 -7 -81 79 -30 104 28 14
62 7 62 -12z m248 10 c12 -8 22 -24 22 -35 0 -15 -7 -19 -35 -19 -19 0 -35 -4
-35 -10 0 -5 14 -10 30 -10 20 0 30 -5 30 -15 0 -21 -64 -20 -85 1 -24 25 -16
76 15 91 32 16 31 16 58 -3z m126 -9 c-3 -7 -15 -11 -27 -8 -19 4 -18 2 8 -20
25 -21 28 -29 19 -44 -15 -24 -84 -31 -84 -9 0 11 9 16 28 16 l27 1 -27 15
c-34 18 -37 51 -6 63 29 11 68 2 62 -14z m-5494 -48 c0 -16 -121 -137 -138
-137 -7 0 -31 16 -52 37 -32 29 -38 39 -28 50 9 11 17 8 45 -19 l33 -32 52 49
c29 28 56 56 61 63 9 14 27 7 27 -11z m1320 -127 c0 -5 -7 -10 -15 -10 -8 0
-15 5 -15 10 0 6 7 10 15 10 8 0 15 -4 15 -10z m-456 -36 c23 -22 20 -34 -9
-34 -14 0 -25 -4 -25 -10 0 -5 9 -10 20 -10 11 0 20 -4 20 -10 0 -5 -14 -10
-30 -10 -24 0 -33 6 -40 26 -6 14 -10 27 -10 29 0 9 33 35 45 35 7 0 21 -7 29
-16z m104 3 c18 -12 16 -77 -3 -77 -10 0 -15 10 -15 30 0 27 -18 44 -21 20 -1
-5 -3 -14 -4 -20 -1 -5 -3 -14 -4 -20 0 -5 -5 -10 -11 -10 -5 0 -10 19 -10 43
0 39 2 42 28 42 15 0 33 -4 40 -8z m112 9 c0 -21 -23 -56 -37 -57 -12 -1 -9
-3 7 -8 35 -10 33 -43 -3 -55 -22 -8 -31 -6 -45 8 -11 12 -13 20 -6 23 6 2 9
19 7 40 -2 23 1 39 9 44 13 9 68 12 68 5z m74 -2 c11 -4 16 -19 16 -44 0 -38
0 -38 -37 -37 -31 2 -38 6 -38 22 0 13 8 21 23 23 12 2 22 8 22 14 0 5 -7 8
-15 5 -8 -4 -17 -2 -20 3 -3 4 1 11 7 13 19 8 24 8 42 1z m116 2 c0 -21 -23
-56 -37 -57 -12 -1 -9 -3 7 -8 32 -9 37 -36 10 -51 -39 -21 -57 -5 -56 48 1
26 5 53 9 60 7 11 67 18 67 8z m50 -41 c0 -33 -4 -45 -15 -45 -11 0 -15 12
-15 45 0 33 4 45 15 45 11 0 15 -12 15 -45z m98 -2 c3 -46 -15 -61 -20 -16 -4
39 -28 42 -28 4 0 -21 -5 -31 -15 -31 -11 0 -15 12 -15 44 l0 43 38 -1 c36 -1
37 -2 40 -43z m100 25 c-2 -12 -14 -28 -28 -35 l-25 -13 26 0 c32 0 44 -24 23
-45 -16 -16 -42 -19 -60 -7 -11 8 -12 91 0 110 4 7 21 12 37 12 26 0 30 -3 27
-22z m3232 -25 c0 -10 -4 -34 -9 -53 -5 -19 -12 -47 -15 -62 -4 -18 -13 -28
-24 -28 -18 0 -18 4 -5 68 7 37 16 73 18 80 7 18 35 14 35 -5z m70 2 c0 -8 -9
-15 -20 -15 -20 0 -26 11 -13 23 12 13 33 7 33 -8z m339 -12 c0 -16 -6 -50
-12 -78 -11 -47 -14 -50 -47 -53 -41 -4 -63 19 -53 57 8 37 22 51 48 51 16 0
25 8 29 25 9 35 36 33 35 -2z m-1201 -25 c32 -32 -4 -119 -43 -104 -11 4 -17
-2 -22 -24 -4 -21 -11 -30 -25 -30 -16 0 -19 5 -14 23 3 12 11 48 17 79 10 50
15 57 38 61 14 2 28 5 32 6 3 0 10 -4 17 -11z m126 -1 c26 -19 13 -52 -27 -65
-32 -10 -32 -10 -4 -11 29 -1 37 -18 12 -27 -22 -9 -62 3 -68 20 -10 25 9 71
34 83 30 16 31 16 53 0z m116 -6 c0 -10 -9 -21 -19 -24 -13 -3 -22 -17 -26
-41 -5 -26 -12 -36 -26 -36 -22 0 -22 -4 -8 60 9 42 14 51 29 47 10 -2 24 -1
31 4 19 12 19 12 19 -10z m88 2 c2 -8 -5 -13 -19 -13 -21 0 -21 -1 -5 -19 10
-11 16 -30 14 -43 -2 -19 -10 -24 -40 -26 -29 -2 -38 0 -38 12 0 9 9 16 20 16
23 0 27 15 5 24 -21 7 -19 43 3 55 22 14 54 10 60 -6z m122 -35 c0 -37 -25
-68 -55 -68 -28 0 -45 18 -45 50 0 33 10 47 40 58 36 14 60 -2 60 -40z m244
41 c16 2 18 -2 12 -36 -13 -69 -14 -71 -54 -71 -40 0 -52 10 -52 46 0 29 45
76 63 65 6 -4 20 -6 31 -4z m360 -2 c26 -19 13 -52 -27 -65 l-32 -10 28 -1
c39 -1 30 -25 -11 -29 -22 -2 -34 2 -41 16 -14 27 5 81 33 92 29 12 30 12 50
-3z m-474 -30 c0 -50 -11 -77 -30 -77 -15 0 -17 6 -13 40 4 25 2 40 -5 40 -6
0 -13 -18 -17 -40 -5 -30 -11 -40 -26 -40 -22 0 -22 -4 -8 58 l10 49 45 1 c43
1 44 1 44 -31z m270 28 c0 -2 -5 -27 -11 -55 -8 -40 -15 -50 -31 -50 -14 0
-18 5 -14 18 3 9 8 34 12 55 4 27 11 37 25 37 11 0 19 -2 19 -5z m110 -3 c0
-5 -11 -19 -25 -32 -28 -27 -32 -40 -10 -40 8 0 15 -7 15 -15 0 -11 -12 -15
-45 -15 -25 0 -45 3 -45 7 0 3 12 21 26 40 21 28 23 34 10 39 -9 3 -13 10 -10
15 7 11 84 12 84 1z m-3570 -130 l0 -59 -35 -1 c-30 -1 -36 2 -41 25 -8 31 7
59 30 57 10 -1 16 6 16 17 0 11 7 19 15 19 12 0 15 -13 15 -58z m410 48 c0 -5
-7 -10 -16 -10 -8 0 -12 5 -9 10 3 6 10 10 16 10 5 0 9 -4 9 -10z m-1380 -30
c7 -16 16 -30 19 -30 4 0 6 14 3 30 -3 23 0 30 12 30 13 0 16 -11 16 -55 0
-48 -2 -55 -20 -55 -12 0 -27 13 -39 38 l-20 37 -1 -37 c0 -21 -4 -38 -9 -38
-9 0 -20 98 -12 106 14 13 40 0 51 -26z m729 6 c8 -10 9 -16 1 -21 -13 -8 -13
-45 0 -45 6 0 10 -5 10 -11 0 -6 -10 -9 -22 -7 -35 5 -48 98 -13 98 7 0 18 -6
24 -14z m585 8 c17 -6 22 -34 7 -34 -13 0 -7 -33 7 -38 17 -5 4 -22 -17 -22
-14 0 -20 9 -23 38 -5 33 -1 62 7 62 2 0 10 -3 19 -6z m-1176 -16 c20 -20 14
-38 -13 -38 -14 0 -25 -4 -25 -10 0 -5 12 -10 26 -10 14 0 23 -4 19 -10 -9
-14 -48 -13 -63 2 -18 18 -15 55 6 67 23 14 36 13 50 -1z m60 -15 l10 -28 11
28 c13 33 37 37 26 5 -3 -13 -9 -33 -12 -45 -8 -34 -39 -29 -52 8 -6 18 -11
38 -11 45 0 24 18 15 28 -13z m126 21 c9 -3 16 -15 16 -25 0 -14 -7 -19 -26
-19 -14 0 -23 -4 -19 -10 3 -5 15 -10 26 -10 10 0 19 -5 19 -11 0 -16 -62 -6
-73 13 -8 12 -7 24 1 42 12 26 27 31 56 20z m96 -10 c0 -7 -7 -14 -15 -18 -8
-3 -15 -17 -15 -31 0 -16 -6 -25 -15 -25 -11 0 -15 11 -15 38 0 21 2 41 4 43
10 9 56 3 56 -7z m133 -5 c15 -24 0 -69 -23 -69 -13 0 -20 -7 -20 -20 0 -11
-7 -20 -15 -20 -12 0 -15 14 -15 64 l0 64 32 -2 c17 -1 36 -9 41 -17z m55 -17
c2 -18 7 -32 12 -32 5 0 10 14 12 32 5 51 28 47 28 -5 l0 -45 -37 1 c-37 2
-38 3 -41 46 -2 32 0 42 10 39 7 -3 14 -19 16 -36z m248 30 c6 -4 13 -15 17
-24 5 -14 1 -18 -18 -18 -14 0 -25 -4 -25 -10 0 -5 9 -10 20 -10 11 0 20 -4
20 -10 0 -19 -59 -11 -70 9 -14 27 -13 37 6 55 17 17 33 20 50 8z m166 -24 c4
-43 22 -42 26 0 5 46 26 35 30 -15 l3 -41 -38 0 c-42 0 -53 10 -53 49 0 49 27
54 32 7z m135 16 c2 -6 -5 -14 -17 -17 -23 -6 -18 -37 6 -37 8 0 14 -5 14 -11
0 -6 -12 -9 -27 -7 -22 2 -29 9 -31 31 -2 16 2 35 9 43 14 16 40 15 46 -2z
m91 4 c7 -7 12 -26 12 -44 0 -30 -2 -31 -37 -30 -31 1 -38 5 -38 21 0 13 8 21
23 23 12 2 22 8 22 14 0 6 -9 8 -20 5 -11 -3 -20 -2 -20 2 0 23 39 28 58 9z
m132 -33 c0 -33 -4 -45 -15 -45 -11 0 -15 11 -15 38 0 21 3 42 7 45 16 16 23
4 23 -38z m95 20 c28 -43 -27 -89 -63 -53 -18 18 -15 55 6 67 23 14 42 10 57
-14z m103 12 c18 -12 16 -77 -3 -77 -10 0 -15 10 -15 30 0 20 -5 30 -15 30
-10 0 -15 -10 -15 -30 0 -20 -5 -30 -15 -30 -11 0 -15 11 -15 38 0 21 2 41 4
43 7 7 60 4 74 -4z m-2021 -154 l-77 -78 -47 47 c-37 37 -45 50 -35 60 9 9 19
5 47 -22 l35 -34 65 64 c47 45 69 60 77 52 8 -8 -11 -33 -65 -89z m4441 -35
l3 -77 -43 1 c-54 0 -68 12 -68 54 0 39 24 67 51 59 15 -5 19 -1 19 20 0 20 4
26 18 23 14 -3 17 -16 20 -80z m402 67 c0 -8 -9 -15 -20 -15 -11 0 -20 7 -20
15 0 8 9 15 20 15 11 0 20 -7 20 -15z m-806 -35 c23 -8 26 -15 26 -59 l0 -50
-47 2 c-46 2 -48 3 -48 32 0 25 4 30 28 33 15 2 27 8 27 13 0 6 -10 9 -22 7
-26 -4 -36 18 -11 25 10 3 19 5 20 6 1 0 13 -3 27 -9z m136 0 c17 -10 6 -25
-18 -25 -11 0 -18 -10 -20 -29 -3 -26 -1 -28 23 -24 20 4 25 2 23 -11 -4 -20
-40 -26 -68 -11 -31 17 -25 80 10 97 30 15 31 15 50 3z m111 0 c15 -8 19 -21
19 -60 l0 -49 -47 2 c-46 2 -48 3 -48 32 0 25 4 30 28 33 15 2 27 8 27 13 0 6
-10 9 -22 7 -26 -4 -36 18 -11 25 30 8 33 7 54 -3z m267 -6 c12 -8 22 -24 22
-35 0 -15 -7 -19 -35 -19 -19 0 -35 -4 -35 -10 0 -5 14 -10 30 -10 20 0 30 -5
30 -15 0 -21 -64 -20 -84 1 -33 33 -7 104 39 104 6 0 21 -7 33 -16z m141 7
c10 -6 23 -6 31 -1 29 18 50 -8 50 -61 0 -43 -3 -50 -17 -47 -12 2 -19 14 -20
33 -3 61 -2 58 -18 45 -8 -7 -15 -28 -15 -46 0 -27 -4 -34 -20 -34 -17 0 -20
7 -20 45 0 45 -12 60 -24 29 -3 -9 -6 -29 -6 -45 0 -22 -5 -29 -20 -29 -18 0
-20 7 -20 56 0 55 1 56 25 52 14 -3 28 -1 31 3 7 12 21 11 43 0z m362 -1 c5 0
9 -6 9 -14 0 -9 -7 -12 -22 -9 -21 5 -20 2 7 -20 25 -21 28 -29 19 -44 -15
-24 -84 -31 -84 -9 0 11 9 16 28 16 l27 1 -27 15 c-16 8 -28 23 -28 34 0 21
28 42 48 35 8 -3 18 -5 23 -5z m-211 -55 c0 -48 -2 -55 -20 -55 -18 0 -20 7
-20 55 0 48 2 55 20 55 18 0 20 -7 20 -55z m117 43 c-2 -7 -11 -13 -20 -13 -9
0 -21 -5 -27 -11 -17 -17 0 -44 27 -44 35 0 24 -24 -14 -28 -18 -2 -35 3 -43
13 -16 19 -16 60 0 80 15 19 84 21 77 3z m-4397 -27 c0 -11 6 -18 16 -17 23 2
38 -26 30 -57 -5 -23 -11 -26 -41 -25 l-35 1 0 59 c0 45 3 58 15 58 8 0 15 -8
15 -19z m193 -2 c3 -12 10 -18 17 -14 19 11 40 -16 40 -51 0 -24 -5 -34 -15
-34 -10 0 -15 10 -15 31 0 38 -24 35 -28 -4 -6 -51 -22 -27 -22 33 0 59 12 80
23 39z m107 11 c0 -5 -7 -10 -15 -10 -8 0 -15 5 -15 10 0 6 7 10 15 10 8 0 15
-4 15 -10z m210 -50 l0 -59 -37 2 c-37 2 -38 3 -38 42 0 35 3 40 23 39 15 0
22 5 22 18 0 10 7 18 15 18 12 0 15 -13 15 -60z m760 0 c0 -47 -3 -60 -15 -60
-12 0 -15 13 -15 60 0 47 3 60 15 60 12 0 15 -13 15 -60z m50 0 c0 -47 -3 -60
-15 -60 -12 0 -15 13 -15 60 0 47 3 60 15 60 12 0 15 -13 15 -60z m-1182 18
c20 -20 14 -38 -13 -38 -14 0 -25 -4 -25 -10 0 -5 9 -10 20 -10 11 0 20 -4 20
-10 0 -14 -43 -13 -58 2 -26 26 -7 78 28 78 9 0 21 -5 28 -12z m162 -33 c0
-33 -4 -45 -15 -45 -11 0 -15 12 -15 45 0 33 4 45 15 45 11 0 15 -12 15 -45z
m98 33 c18 -15 16 -78 -3 -78 -10 0 -15 10 -15 30 0 20 -5 30 -15 30 -10 0
-15 -10 -15 -30 0 -20 -5 -30 -15 -30 -11 0 -15 11 -15 38 0 21 2 41 5 44 10
9 59 6 73 -4z m240 -34 c3 -40 2 -41 -30 -42 -18 0 -36 4 -39 10 -11 17 1 38
22 38 10 0 19 5 19 11 0 6 -7 9 -15 6 -18 -7 -30 9 -13 17 35 14 53 1 56 -40z
m145 25 c15 -24 0 -69 -23 -69 -13 0 -20 -7 -20 -20 0 -11 -7 -20 -15 -20 -12
0 -15 14 -15 64 l0 64 32 -2 c17 -1 36 -9 41 -17z m81 15 c11 -4 16 -19 16
-43 0 -36 -2 -38 -34 -39 -23 -1 -36 4 -40 14 -8 21 1 34 25 34 10 0 19 5 19
11 0 6 -7 9 -15 6 -8 -4 -17 -2 -20 3 -3 4 1 11 7 13 19 8 24 8 42 1z m69 -20
l14 -27 7 27 c5 21 12 26 36 26 24 0 31 -5 37 -27 l7 -28 6 25 c7 32 40 40 40
11 0 -12 5 -21 10 -21 6 0 10 9 10 20 0 11 7 20 16 20 10 0 14 -6 10 -17 -3
-10 -8 -30 -12 -45 -4 -18 -13 -28 -25 -28 -14 0 -19 8 -20 28 l-1 27 -11 -28
c-15 -38 -39 -30 -53 18 -10 36 -12 38 -21 20 -6 -11 -16 -36 -22 -57 -12 -37
-34 -54 -53 -42 -7 5 -5 12 6 20 16 11 16 15 2 49 -9 21 -16 41 -16 46 0 19
20 8 33 -17z m275 14 c7 -7 12 -26 12 -44 0 -31 -2 -32 -37 -31 -31 2 -38 6
-38 22 0 13 8 21 23 23 12 2 22 8 22 14 0 5 -7 8 -15 5 -15 -7 -29 6 -18 17
10 10 38 7 51 -6z m3352 -34 c0 -14 -21 -19 -33 -7 -9 9 13 34 24 27 5 -3 9
-12 9 -20z m-3210 -124 c0 -5 -7 -10 -15 -10 -8 0 -15 5 -15 10 0 6 7 10 15
10 8 0 15 -4 15 -10z m150 -50 c0 -47 -3 -60 -15 -60 -12 0 -15 13 -15 60 0
47 3 60 15 60 12 0 15 -13 15 -60z m-1621 13 l20 -38 1 38 c0 59 24 41 28 -21
3 -49 2 -52 -21 -52 -16 0 -28 10 -40 33 l-16 32 0 -32 c-1 -22 -6 -33 -16
-33 -12 0 -15 13 -15 55 0 48 2 55 20 55 12 0 27 -13 39 -37z m865 21 c9 -3
16 -13 16 -21 0 -8 -4 -11 -10 -8 -6 4 -10 -5 -10 -19 0 -14 5 -26 10 -26 6 0
10 -5 10 -11 0 -6 -10 -9 -22 -7 -18 2 -24 12 -29 40 -3 21 -1 42 5 48 12 12
10 12 30 4z m-730 -20 c23 -22 20 -34 -9 -34 -14 0 -25 -4 -25 -10 0 -5 9 -10
20 -10 11 0 20 -4 20 -10 0 -5 -14 -10 -30 -10 -23 0 -33 6 -39 23 -19 50 27
88 63 51z m57 -11 l11 -28 10 28 c5 15 16 27 24 27 18 0 17 -1 -2 -50 -9 -22
-22 -40 -30 -40 -12 0 -44 59 -44 81 0 20 21 7 31 -18z m137 15 c20 -20 14
-38 -13 -38 -14 0 -25 -4 -25 -10 0 -5 9 -10 20 -10 11 0 20 -4 20 -10 0 -14
-43 -13 -58 2 -18 18 -15 55 6 67 23 14 36 13 50 -1z m92 -4 c0 -8 -7 -14 -15
-14 -10 0 -15 -10 -15 -30 0 -20 -5 -30 -15 -30 -11 0 -15 11 -15 43 0 40 2
42 30 43 19 1 30 -4 30 -12z m118 -1 c2 -8 -5 -13 -18 -13 -15 0 -20 -5 -18
-17 2 -10 11 -17 21 -17 9 1 17 -4 17 -12 0 -17 -41 -19 -58 -2 -18 18 -15 55
6 67 21 13 44 10 50 -6z m82 0 c0 -7 -7 -13 -15 -13 -10 0 -15 -10 -15 -30 0
-20 -5 -30 -15 -30 -11 0 -15 11 -15 43 0 42 1 44 30 44 18 0 30 -6 30 -14z
m78 5 c20 -20 14 -38 -13 -38 -14 0 -25 -4 -25 -10 0 -5 9 -10 20 -10 11 0 20
-4 20 -10 0 -11 -30 -13 -54 -4 -19 7 -21 55 -4 72 7 7 19 12 28 12 9 0 21 -5
28 -12z m86 6 c11 -4 16 -19 16 -44 0 -35 -2 -37 -32 -38 -18 0 -36 4 -39 10
-11 17 1 38 22 38 10 0 19 5 19 11 0 6 -7 9 -15 5 -15 -5 -20 5 -8 17 8 9 17
9 37 1z m177 -4 c28 -15 24 -40 -6 -40 -14 0 -25 -4 -25 -10 0 -5 9 -10 20
-10 11 0 20 -4 20 -10 0 -5 -14 -10 -30 -10 -32 0 -53 30 -42 60 11 29 32 36
63 20z m137 -2 c7 -7 12 -26 12 -44 0 -31 -2 -32 -37 -31 -31 2 -38 6 -38 22
0 13 8 21 23 23 12 2 22 8 22 14 0 5 -7 8 -15 5 -8 -4 -17 -2 -20 3 -11 18 36
25 53 8z m126 6 c21 -8 10 -25 -12 -18 -11 4 -9 -1 7 -14 32 -26 22 -52 -19
-52 -16 0 -30 5 -30 10 0 6 10 10 23 10 l22 0 -25 19 c-20 16 -22 21 -11 35
15 18 21 19 45 10z m97 -4 c21 -12 25 -50 7 -68 -7 -7 -22 -12 -35 -12 -37 0
-51 60 -19 82 15 10 24 10 47 -2z m99 -5 c0 -9 -9 -15 -21 -15 -14 0 -19 -5
-17 -17 2 -10 11 -17 21 -17 9 1 17 -4 17 -12 0 -21 -48 -17 -60 5 -14 27 -13
37 6 55 20 20 54 21 54 1z m50 -30 c0 -33 -4 -45 -15 -45 -11 0 -15 12 -15 45
0 33 4 45 15 45 11 0 15 -12 15 -45z m88 33 c7 -7 12 -26 12 -44 0 -31 -2 -32
-37 -31 -31 2 -38 6 -38 22 0 13 8 21 23 23 12 2 22 8 22 14 0 6 -9 8 -20 5
-22 -6 -28 8 -7 16 21 9 32 8 45 -5z m-1922 -69 c7 -12 -123 -149 -141 -149
-16 1 -85 69 -85 85 0 22 10 18 47 -17 l33 -32 63 62 c65 65 71 69 83 51z
m2804 -14 c0 -8 -7 -15 -15 -15 -8 0 -15 -7 -15 -15 0 -8 7 -15 15 -15 8 0 15
-7 15 -15 0 -8 -8 -15 -17 -15 -15 0 -18 -9 -18 -55 0 -51 -1 -55 -22 -55 -21
0 -23 5 -23 54 0 30 -5 56 -10 58 -6 2 -2 20 10 46 17 35 25 42 50 42 20 0 30
-5 30 -15z m510 -85 c0 -101 -7 -119 -38 -88 -8 8 -15 8 -27 -2 -12 -10 -21
-10 -40 -2 -22 10 -25 18 -25 59 0 27 4 53 8 59 12 18 42 24 63 14 17 -10 19
-7 19 25 0 28 4 35 20 35 19 0 20 -7 20 -100z m1340 90 c0 -5 -10 -14 -22 -21
-19 -10 -19 -12 -5 -21 21 -11 23 -42 2 -34 -12 4 -15 -5 -15 -54 0 -53 -2
-60 -20 -60 -18 0 -20 7 -20 55 0 30 -4 55 -10 55 -5 0 -10 7 -10 15 0 8 5 15
10 15 6 0 10 8 10 18 0 10 5 23 12 30 14 14 68 16 68 2z m180 -90 c0 -92 -2
-100 -19 -100 -18 0 -20 9 -23 100 -3 98 -3 100 20 100 21 0 22 -3 22 -100z
m720 0 c0 -97 -1 -100 -22 -100 -23 0 -23 2 -20 100 3 91 5 100 23 100 17 0
19 -8 19 -100z m-1025 73 c-3 -10 -18 -53 -33 -95 -20 -57 -32 -78 -44 -78
-23 0 -23 -2 14 101 25 69 36 89 51 89 14 0 17 -5 12 -17z m229 -3 c-3 -8 -17
-46 -32 -85 -25 -69 -36 -85 -58 -85 -8 0 -5 19 8 55 12 31 25 52 31 48 6 -3
7 -1 3 6 -12 19 15 80 36 78 12 -1 16 -6 12 -17z m1226 -9 c0 -5 8 -12 18 -15
23 -8 25 -36 3 -36 -13 0 -16 -8 -13 -41 3 -30 8 -39 19 -35 10 4 13 0 11 -12
-4 -21 -44 -28 -64 -12 -8 8 -14 30 -14 55 0 25 -5 45 -12 47 -8 3 -6 13 8 31
19 26 44 36 44 18z m-3484 -21 c10 0 13 -8 8 -27 -7 -33 -39 -63 -65 -63 -10
0 -19 -4 -19 -10 0 -5 13 -10 29 -10 44 0 61 -10 61 -36 0 -30 -35 -54 -81
-54 -46 0 -68 23 -51 51 7 11 10 24 6 30 -3 5 -1 16 6 24 7 9 8 15 0 20 -5 3
-10 17 -10 30 0 32 37 58 74 51 16 -4 35 -6 42 -6z m159 -15 c51 -50 18 -125
-55 -125 -55 0 -81 90 -38 130 29 27 64 25 93 -5z m303 -53 c2 -58 0 -72 -12
-72 -8 0 -18 5 -22 11 -4 8 -9 8 -17 0 -18 -18 -55 -12 -71 11 -9 13 -16 43
-16 70 0 45 2 48 25 48 23 0 25 -3 25 -49 0 -28 5 -53 12 -57 18 -11 38 26 38
72 0 35 3 42 18 40 14 -2 18 -15 20 -74z m110 69 c18 7 31 5 48 -6 21 -13 24
-23 24 -75 0 -57 -1 -60 -25 -60 -14 0 -24 3 -24 8 1 4 1 29 0 55 -1 40 -4 48
-18 45 -14 -2 -19 -16 -23 -53 -4 -42 -8 -50 -27 -53 -22 -3 -23 0 -23 66 0
68 11 92 34 71 5 -4 20 -3 34 2z m352 1 c16 10 24 10 40 1 13 -9 27 -10 45 -3
50 19 75 -13 75 -96 0 -40 -2 -44 -25 -44 -24 0 -25 3 -25 56 0 47 -3 55 -17
52 -14 -2 -19 -15 -21 -56 -3 -48 -5 -52 -28 -52 -23 0 -24 3 -24 55 0 48 -2
55 -20 55 -18 0 -27 -22 -21 -54 5 -26 -11 -56 -29 -56 -18 0 -20 7 -20 68 0
76 4 86 31 71 13 -6 25 -6 39 3z m305 -17 c14 -13 25 -33 25 -45 0 -17 -6 -20
-46 -20 -32 0 -44 -4 -41 -12 2 -7 20 -13 40 -13 38 0 50 -18 21 -29 -51 -20
-114 18 -114 69 0 31 41 75 70 75 12 0 32 -11 45 -25z m235 15 c19 -12 4 -27
-30 -32 -19 -2 -26 -10 -28 -31 -2 -17 2 -29 12 -33 9 -3 13 -10 10 -16 -3 -5
3 -4 14 3 25 16 40 5 22 -16 -19 -23 -66 -19 -84 7 -24 34 -21 94 6 112 25 18
56 20 78 6z m157 -11 c43 -37 9 -129 -48 -129 -42 0 -69 31 -69 80 0 33 5 42
28 55 27 15 66 12 89 -6z m118 7 c17 11 29 12 49 4 18 -7 33 -7 46 0 20 11 50
4 62 -14 4 -6 8 -37 8 -68 0 -56 -1 -58 -26 -58 -25 0 -26 2 -22 55 3 51 1 56
-17 53 -17 -3 -21 -12 -23 -55 -3 -49 -5 -53 -28 -53 -23 0 -24 3 -24 55 0 48
-2 55 -20 55 -18 0 -20 -7 -20 -55 0 -52 -1 -55 -25 -55 -24 0 -25 2 -25 69 0
69 13 95 34 66 8 -11 14 -10 31 1z m752 -8 c7 -6 13 -24 13 -40 0 -22 -4 -29
-17 -27 -10 1 -31 1 -47 0 -25 -1 -27 -3 -15 -17 8 -10 23 -14 41 -12 22 4 28
1 26 -11 -5 -24 -87 -20 -105 4 -27 38 -12 104 27 118 19 7 61 -1 77 -15z
m151 6 c19 -13 22 -24 22 -75 0 -44 -4 -59 -14 -59 -8 0 -16 5 -18 10 -2 7
-14 6 -35 -2 -38 -14 -63 1 -63 38 0 26 26 44 65 44 17 0 25 5 22 13 -2 7 -17
11 -36 9 -21 -1 -31 2 -31 12 0 26 56 33 88 10z m104 -7 c4 -6 13 -4 23 6 23
24 35 21 35 -8 0 -20 -5 -25 -25 -25 -23 0 -25 -3 -25 -50 0 -47 -2 -50 -25
-50 -24 0 -25 2 -25 75 0 67 2 74 18 68 9 -4 20 -11 24 -16z m150 11 c17 17
35 15 58 -8 15 -15 20 -33 20 -75 0 -52 -1 -55 -25 -55 -24 0 -25 3 -25 55 0
47 -3 55 -19 55 -23 0 -31 -19 -31 -71 0 -32 -3 -39 -20 -39 -18 0 -20 7 -20
68 0 38 3 71 6 75 3 3 15 1 25 -6 14 -9 21 -9 31 1z m321 -20 c24 -28 21 -65
-8 -93 -29 -30 -68 -32 -95 -5 -35 35 -23 107 20 123 25 9 64 -2 83 -25z m164
9 c7 -7 15 -26 19 -42 4 -24 0 -36 -20 -58 -49 -53 -116 -23 -116 53 0 33 5
42 28 55 28 15 69 12 89 -8z m-5087 -58 c0 -11 4 -18 9 -15 5 4 16 3 25 0 22
-8 23 -84 1 -84 -10 0 -15 10 -15 30 0 17 -4 30 -10 30 -5 0 -10 -13 -10 -30
0 -20 -5 -30 -15 -30 -12 0 -15 13 -15 60 0 47 3 60 15 60 8 0 15 -9 15 -21z
m100 11 c0 -5 -7 -10 -16 -10 -8 0 -12 5 -9 10 3 6 10 10 16 10 5 0 9 -4 9
-10z m480 -11 c0 -11 4 -18 9 -15 22 14 41 -7 41 -45 0 -44 -17 -53 -22 -12
-4 39 -28 42 -28 4 0 -21 -5 -31 -15 -31 -12 0 -15 13 -15 60 0 47 3 60 15 60
8 0 15 -9 15 -21z m-480 -54 c0 -33 -4 -45 -15 -45 -11 0 -15 11 -15 38 0 21
3 42 7 45 16 16 23 4 23 -38z m90 30 c18 -21 6 -45 -19 -38 -12 3 -21 1 -21
-6 0 -6 11 -11 25 -11 14 0 25 -4 25 -10 0 -14 -54 -12 -68 2 -18 18 -15 55 6
67 24 14 38 13 52 -4z m90 -2 c0 -7 -7 -13 -15 -13 -10 0 -15 -10 -15 -30 0
-20 -5 -30 -15 -30 -11 0 -15 11 -15 43 0 42 1 44 30 44 18 0 30 -6 30 -14z
m74 11 c11 -4 16 -19 16 -44 0 -38 0 -38 -37 -37 -31 2 -38 6 -38 22 0 13 8
21 23 23 12 2 22 8 22 14 0 5 -7 8 -15 5 -8 -4 -17 -2 -20 3 -3 4 1 11 7 13
19 8 24 8 42 1z m96 -10 c0 -7 -7 -14 -15 -18 -8 -3 -15 -17 -15 -31 0 -16 -6
-25 -15 -25 -11 0 -15 11 -15 38 0 21 2 41 4 43 10 9 56 3 56 -7z m80 1 c0 -9
-9 -15 -21 -15 -14 0 -19 -5 -17 -17 2 -10 11 -17 21 -17 9 1 17 -4 17 -12 0
-21 -48 -17 -60 5 -14 27 -13 37 6 55 20 20 54 21 54 1z m151 -12 l10 -27 12
23 c10 20 23 29 28 19 1 -2 -4 -22 -11 -45 -15 -48 -43 -79 -61 -67 -9 5 -8
10 5 20 16 11 16 15 2 49 -19 44 -20 55 -6 55 6 0 15 -12 21 -27z m2347 -10
c-2 -10 -10 -18 -18 -18 -8 0 -16 8 -18 18 -2 12 3 17 18 17 15 0 20 -5 18
-17z"/>
<path d="M5270 3431 c0 -28 4 -41 14 -41 40 0 48 73 9 78 -21 3 -23 -1 -23
-37z"/>
<path d="M4847 2903 c-13 -13 -7 -54 9 -60 21 -8 45 7 55 35 6 15 5 21 -1 17
-6 -3 -10 -1 -10 4 0 12 -43 15 -53 4z"/>
<path d="M5358 2863 c-8 -34 -13 -65 -10 -68 3 -3 18 -5 34 -5 31 0 31 -1 3
95 l-11 40 -16 -62z"/>
<path d="M5850 2371 c0 -25 19 -38 31 -20 12 19 6 33 -14 37 -11 2 -17 -3 -17
-17z"/>
<path d="M4160 2395 c0 -14 5 -25 10 -25 6 0 10 11 10 25 0 14 -4 25 -10 25
-5 0 -10 -11 -10 -25z"/>
<path d="M4481 2378 c-9 -24 -6 -38 8 -38 12 0 20 49 10 56 -5 3 -13 -5 -18
-18z"/>
<path d="M4807 2383 c-10 -10 -8 -43 2 -43 9 0 21 24 21 41 0 11 -14 12 -23 2z"/>
<path d="M5026 2393 c-9 -10 -7 -53 3 -53 11 0 21 49 11 55 -4 2 -10 2 -14 -2z"/>
<path d="M5990 2390 c0 -5 7 -10 16 -10 8 0 12 5 9 10 -3 6 -10 10 -16 10 -5
0 -9 -4 -9 -10z"/>
<path d="M5560 2085 c0 -16 6 -25 15 -25 9 0 15 9 15 25 0 16 -6 25 -15 25 -9
0 -15 -9 -15 -25z"/>
<path d="M5080 2110 c0 -5 7 -10 15 -10 8 0 15 5 15 10 0 6 -7 10 -15 10 -8 0
-15 -4 -15 -10z"/>
<path d="M5205 2070 c-3 -5 1 -10 9 -10 9 0 16 5 16 10 0 6 -4 10 -9 10 -6 0
-13 -4 -16 -10z"/>
<path d="M5435 2110 c-3 -5 1 -10 9 -10 9 0 16 5 16 10 0 6 -4 10 -9 10 -6 0
-13 -4 -16 -10z"/>
<path d="M4477 1813 c-10 -10 -8 -43 2 -43 9 0 21 24 21 41 0 11 -14 12 -23 2z"/>
<path d="M5814 1817 c-8 -21 1 -47 16 -47 19 0 23 31 7 48 -15 14 -17 14 -23
-1z"/>
<path d="M4355 1820 c-3 -5 1 -10 9 -10 9 0 16 5 16 10 0 6 -4 10 -9 10 -6 0
-13 -4 -16 -10z"/>
<path d="M4830 1795 c0 -28 15 -34 24 -9 10 25 7 34 -9 34 -9 0 -15 -9 -15
-25z"/>
<path d="M5127 1823 c-11 -10 -8 -53 3 -53 6 0 10 14 10 30 0 31 -2 35 -13 23z"/>
<path d="M5377 1813 c-10 -10 -8 -43 2 -43 9 0 21 24 21 41 0 11 -14 12 -23 2z"/>
<path d="M5950 1820 c0 -5 7 -10 15 -10 8 0 15 5 15 10 0 6 -7 10 -15 10 -8 0
-15 -4 -15 -10z"/>
<path d="M6075 1810 c-8 -27 10 -49 26 -33 13 13 8 45 -8 50 -6 2 -14 -6 -18
-17z"/>
<path d="M2730 1520 c0 -11 5 -20 10 -20 6 0 10 9 10 20 0 11 -4 20 -10 20 -5
0 -10 -9 -10 -20z"/>
<path d="M1155 1510 c-3 -5 -2 -10 4 -10 5 0 13 5 16 10 3 6 2 10 -4 10 -5 0
-13 -4 -16 -10z"/>
<path d="M1360 1540 c0 -5 5 -10 10 -10 6 0 10 5 10 10 0 6 -4 10 -10 10 -5 0
-10 -4 -10 -10z"/>
<path d="M1550 1540 c0 -5 5 -10 10 -10 6 0 10 5 10 10 0 6 -4 10 -10 10 -5 0
-10 -4 -10 -10z"/>
<path d="M1645 1510 c-3 -5 -1 -10 4 -10 6 0 11 5 11 10 0 6 -2 10 -4 10 -3 0
-8 -4 -11 -10z"/>
<path d="M2070 1540 c0 -5 5 -10 10 -10 6 0 10 5 10 10 0 6 -4 10 -10 10 -5 0
-10 -4 -10 -10z"/>
<path d="M2070 1470 c0 -5 7 -10 15 -10 8 0 15 5 15 10 0 6 -7 10 -15 10 -8 0
-15 -4 -15 -10z"/>
<path d="M2525 1510 c-3 -5 -2 -10 4 -10 5 0 13 5 16 10 3 6 2 10 -4 10 -5 0
-13 -4 -16 -10z"/>
<path d="M4280 1525 c0 -8 5 -15 10 -15 6 0 10 7 10 15 0 8 -4 15 -10 15 -5 0
-10 -7 -10 -15z"/>
<path d="M4270 1441 c0 -5 6 -11 13 -13 17 -7 38 2 31 13 -7 12 -44 12 -44 0z"/>
<path d="M4405 1490 c-3 -5 1 -10 9 -10 9 0 16 5 16 10 0 6 -4 10 -9 10 -6 0
-13 -4 -16 -10z"/>
<path d="M4745 1530 c-3 -5 1 -10 9 -10 9 0 16 5 16 10 0 6 -4 10 -9 10 -6 0
-13 -4 -16 -10z"/>
<path d="M5155 1490 c-3 -5 1 -10 9 -10 9 0 16 5 16 10 0 6 -4 10 -9 10 -6 0
-13 -4 -16 -10z"/>
<path d="M5535 1530 c-3 -5 1 -10 9 -10 9 0 16 5 16 10 0 6 -4 10 -9 10 -6 0
-13 -4 -16 -10z"/>
<path d="M5660 1490 c0 -5 4 -10 9 -10 6 0 13 5 16 10 3 6 -1 10 -9 10 -9 0
-16 -4 -16 -10z"/>
<path d="M6045 1530 c-3 -5 1 -10 9 -10 9 0 16 5 16 10 0 6 -4 10 -9 10 -6 0
-13 -4 -16 -10z"/>
<path d="M1550 1320 c0 -5 5 -10 10 -10 6 0 10 5 10 10 0 6 -4 10 -10 10 -5 0
-10 -4 -10 -10z"/>
<path d="M1751 1314 c0 -11 3 -14 6 -6 3 7 2 16 -1 19 -3 4 -6 -2 -5 -13z"/>
<path d="M1740 1250 c0 -5 7 -10 15 -10 8 0 15 5 15 10 0 6 -7 10 -15 10 -8 0
-15 -4 -15 -10z"/>
<path d="M1840 1290 c0 -5 5 -10 10 -10 6 0 10 5 10 10 0 6 -4 10 -10 10 -5 0
-10 -4 -10 -10z"/>
<path d="M1940 1320 c0 -5 5 -10 10 -10 6 0 10 5 10 10 0 6 -4 10 -10 10 -5 0
-10 -4 -10 -10z"/>
<path d="M1930 1250 c0 -5 7 -10 15 -10 8 0 15 5 15 10 0 6 -7 10 -15 10 -8 0
-15 -4 -15 -10z"/>
<path d="M2190 1320 c0 -5 5 -10 10 -10 6 0 10 5 10 10 0 6 -4 10 -10 10 -5 0
-10 -4 -10 -10z"/>
<path d="M2185 1250 c-3 -5 3 -10 14 -10 12 0 21 5 21 10 0 6 -6 10 -14 10 -8
0 -18 -4 -21 -10z"/>
<path d="M5805 1219 c-8 -23 -1 -34 14 -24 13 8 15 45 2 45 -5 0 -13 -9 -16
-21z"/>
<path d="M4636 1243 c-9 -10 -7 -55 3 -49 12 8 21 45 11 51 -4 2 -10 2 -14 -2z"/>
<path d="M4760 1240 c0 -5 5 -10 10 -10 6 0 10 5 10 10 0 6 -4 10 -10 10 -5 0
-10 -4 -10 -10z"/>
<path d="M5077 1244 c-10 -10 -9 -54 2 -54 12 0 22 43 13 52 -5 5 -11 5 -15 2z"/>
<path d="M5327 1233 c-4 -3 -7 -15 -7 -25 0 -26 24 -17 28 10 3 21 -8 29 -21
15z"/>
<path d="M5690 1240 c0 -5 5 -10 10 -10 6 0 10 5 10 10 0 6 -4 10 -10 10 -5 0
-10 -4 -10 -10z"/>
<path d="M2022 1116 c1 -10 8 -17 13 -17 15 1 12 24 -3 29 -9 3 -13 -2 -10
-12z"/>
<path d="M1205 1130 c-3 -5 -1 -10 4 -10 6 0 11 5 11 10 0 6 -2 10 -4 10 -3 0
-8 -4 -11 -10z"/>
<path d="M1395 1130 c-3 -5 1 -10 10 -10 9 0 13 5 10 10 -3 6 -8 10 -10 10 -2
0 -7 -4 -10 -10z"/>
<path d="M1610 1110 c0 -11 5 -20 10 -20 6 0 10 9 10 20 0 11 -4 20 -10 20 -5
0 -10 -9 -10 -20z"/>
<path d="M1930 1130 c0 -5 5 -10 11 -10 5 0 7 5 4 10 -3 6 -8 10 -11 10 -2 0
-4 -4 -4 -10z"/>
<path d="M2310 1100 c0 -5 5 -10 10 -10 6 0 10 5 10 10 0 6 -4 10 -10 10 -5 0
-10 -4 -10 -10z"/>
<path d="M2537 1134 c-10 -11 -8 -44 2 -44 6 0 13 4 16 10 8 12 -9 43 -18 34z"/>
<path d="M5030 935 c0 -16 6 -25 15 -25 9 0 15 9 15 25 0 16 -6 25 -15 25 -9
0 -15 -9 -15 -25z"/>
<path d="M4660 920 c0 -5 4 -10 9 -10 6 0 13 5 16 10 3 6 -1 10 -9 10 -9 0
-16 -4 -16 -10z"/>
<path d="M4900 920 c0 -5 5 -10 10 -10 6 0 10 5 10 10 0 6 -4 10 -10 10 -5 0
-10 -4 -10 -10z"/>
<path d="M5165 960 c-3 -5 1 -10 9 -10 9 0 16 5 16 10 0 6 -4 10 -9 10 -6 0
-13 -4 -16 -10z"/>
<path d="M1220 890 c0 -11 5 -20 10 -20 6 0 10 9 10 20 0 11 -4 20 -10 20 -5
0 -10 -9 -10 -20z"/>
<path d="M1675 900 c-8 -13 4 -32 16 -25 12 8 12 35 0 35 -6 0 -13 -4 -16 -10z"/>
<path d="M1320 910 c0 -5 5 -10 10 -10 6 0 10 5 10 10 0 6 -4 10 -10 10 -5 0
-10 -4 -10 -10z"/>
<path d="M1815 880 c-3 -5 -2 -10 4 -10 5 0 13 5 16 10 3 6 2 10 -4 10 -5 0
-13 -4 -16 -10z"/>
<path d="M1960 890 c0 -11 5 -20 10 -20 6 0 10 9 10 20 0 11 -4 20 -10 20 -5
0 -10 -9 -10 -20z"/>
<path d="M2055 880 c-3 -5 -1 -10 4 -10 6 0 11 5 11 10 0 6 -2 10 -4 10 -3 0
-8 -4 -11 -10z"/>
<path d="M2390 880 c0 -5 5 -10 10 -10 6 0 10 5 10 10 0 6 -4 10 -10 10 -5 0
-10 -4 -10 -10z"/>
<path d="M1200 720 c0 -5 5 -10 10 -10 6 0 10 5 10 10 0 6 -4 10 -10 10 -5 0
-10 -4 -10 -10z"/>
<path d="M1390 720 c0 -5 5 -10 10 -10 6 0 10 5 10 10 0 6 -4 10 -10 10 -5 0
-10 -4 -10 -10z"/>
<path d="M1760 720 c0 -5 5 -10 10 -10 6 0 10 5 10 10 0 6 -4 10 -10 10 -5 0
-10 -4 -10 -10z"/>
<path d="M1855 690 c-3 -5 -2 -10 4 -10 5 0 13 5 16 10 3 6 2 10 -4 10 -5 0
-13 -4 -16 -10z"/>
<path d="M2030 720 c0 -5 5 -10 10 -10 6 0 10 5 10 10 0 6 -4 10 -10 10 -5 0
-10 -4 -10 -10z"/>
<path d="M2165 690 c-3 -5 -1 -10 4 -10 6 0 11 5 11 10 0 6 -2 10 -4 10 -3 0
-8 -4 -11 -10z"/>
<path d="M2386 714 c-7 -18 0 -34 15 -34 12 0 12 37 0 44 -5 3 -12 -1 -15 -10z"/>
<path d="M2620 690 c0 -5 5 -10 10 -10 6 0 10 5 10 10 0 6 -4 10 -10 10 -5 0
-10 -4 -10 -10z"/>
<path d="M3967 574 c-4 -4 -7 -20 -7 -36 0 -23 4 -28 26 -28 23 0 25 3 22 32
-3 31 -25 48 -41 32z"/>
<path d="M3164 587 c-7 -20 1 -47 15 -47 17 0 22 33 7 49 -14 13 -16 13 -22
-2z"/>
<path d="M3141 453 c-9 -18 -6 -19 32 -14 49 7 56 25 10 29 -23 2 -34 -2 -42
-15z"/>
<path d="M3327 573 c-12 -12 -7 -50 8 -63 21 -17 35 -3 35 36 0 26 -4 34 -18
34 -10 0 -22 -3 -25 -7z"/>
<path d="M4407 583 c-14 -13 -6 -23 18 -23 18 0 23 4 19 15 -6 16 -26 20 -37
8z"/>
<path d="M4787 573 c-12 -12 -7 -50 8 -63 21 -17 35 -3 35 36 0 26 -4 34 -18
34 -10 0 -22 -3 -25 -7z"/>
<path d="M5657 575 c-5 -11 0 -15 19 -15 16 0 24 5 22 13 -7 18 -35 20 -41 2z"/>
<path d="M5820 519 c0 -25 33 -22 38 4 2 12 -3 17 -17 17 -15 0 -21 -6 -21
-21z"/>
<path d="M6370 551 c0 -31 22 -57 40 -46 5 3 10 22 10 41 0 30 -3 34 -25 34
-21 0 -25 -5 -25 -29z"/>
<path d="M6547 573 c-12 -12 -7 -50 8 -63 21 -17 35 -3 35 36 0 26 -4 34 -18
34 -10 0 -22 -3 -25 -7z"/>
<path d="M1685 500 c-3 -5 -1 -10 4 -10 6 0 11 5 11 10 0 6 -2 10 -4 10 -3 0
-8 -4 -11 -10z"/>
<path d="M1850 470 c0 -5 5 -10 10 -10 6 0 10 5 10 10 0 6 -4 10 -10 10 -5 0
-10 -4 -10 -10z"/>
<path d="M360 3572 c0 -14 63 -213 82 -257 12 -27 23 -69 26 -92 l4 -43 -46 0
-46 0 2 -270 c2 -149 6 -270 11 -270 4 0 183 0 397 0 l390 0 0 270 0 270 125
0 c69 0 125 2 125 5 0 6 -35 91 -70 170 -9 22 -35 82 -56 133 l-39 93 -452 -2
c-249 -1 -453 -4 -453 -7z m596 -214 c-10 -68 -29 -84 -21 -19 3 30 9 59 12
64 11 18 15 -4 9 -45z m-363 3 c3 -16 9 -40 13 -55 3 -15 2 -26 -4 -26 -9 0
-32 72 -32 99 0 23 18 9 23 -18z m190 -131 c-4 -8 -10 14 -14 50 -4 36 -4 70
-1 75 9 14 24 -107 15 -125z m341 53 c-27 -61 -40 -80 -49 -72 -9 10 48 129
61 129 9 0 5 -17 -12 -57z"/>
<path d="M2865 3252 c-3 -3 -5 -54 -5 -114 l0 -108 30 0 30 0 0 109 c0 108 0
109 -25 113 -13 3 -27 3 -30 0z"/>
<path d="M1990 3135 l0 -105 69 0 c46 0 70 4 73 13 10 25 -4 37 -43 37 l-39 0
0 80 0 80 -30 0 -30 0 0 -105z"/>
<path d="M3346 3213 c-3 -10 -11 -26 -18 -37 -10 -15 -10 -20 0 -23 7 -3 12
-22 12 -48 0 -67 6 -75 56 -75 38 0 44 3 44 21 0 12 -8 23 -19 26 -20 5 -36
46 -26 63 4 6 15 10 25 10 13 0 18 7 17 20 -1 11 -8 20 -18 20 -9 0 -19 9 -22
20 -6 25 -42 27 -51 3z"/>
<path d="M2200 3193 c-30 -12 -43 -36 -44 -78 -1 -63 22 -85 91 -85 49 0 53 2
53 24 0 20 -5 23 -32 22 -18 0 -33 4 -33 9 0 6 17 8 38 7 36 -4 37 -3 37 31 0
55 -56 91 -110 70z m48 -46 c8 -10 5 -13 -15 -15 -22 -2 -24 0 -13 13 15 18
15 18 28 2z"/>
<path d="M2373 3193 c-24 -5 -27 -11 -18 -35 4 -10 17 -13 43 -10 42 5 36 -10
-6 -16 -64 -8 -83 -74 -29 -100 24 -12 32 -11 54 3 20 14 25 14 21 3 -5 -11 1
-13 23 -10 28 4 29 6 29 66 0 67 -4 77 -37 95 -22 11 -39 12 -80 4z m57 -102
c0 -14 -18 -23 -30 -16 -6 4 -8 11 -5 16 8 12 35 12 35 0z"/>
<path d="M2545 3192 c-18 -2 -20 -10 -20 -82 l0 -80 27 0 c29 0 34 10 40 75 2
22 9 31 26 33 17 3 22 10 22 33 0 33 0 33 -35 17 -17 -7 -29 -8 -33 -2 -4 5
-16 8 -27 6z"/>
<path d="M2666 3193 c-3 -4 -6 -42 -6 -85 l0 -78 30 0 c29 0 30 2 30 44 0 54
8 76 26 76 10 0 14 -15 15 -52 1 -29 1 -56 0 -60 0 -5 15 -8 35 -8 29 0 35 3
30 16 -3 9 -6 40 -6 70 0 46 -3 56 -25 70 -21 14 -31 15 -50 6 -16 -8 -33 -8
-49 -2 -13 5 -27 6 -30 3z"/>
<path d="M2976 3175 c-20 -18 -26 -34 -26 -65 0 -53 27 -80 78 -80 46 1 70 18
78 59 18 86 -68 144 -130 86z m69 -65 c0 -51 -29 -48 -33 3 -3 33 -1 38 15 35
13 -2 18 -12 18 -38z"/>
<path d="M3185 3190 c-50 -20 -66 -78 -36 -127 18 -29 26 -33 66 -33 54 0 85
25 85 70 0 73 -54 116 -115 90z m51 -65 c8 -31 -1 -55 -20 -55 -18 0 -30 33
-21 60 9 28 33 25 41 -5z"/>
</g>
</svg>
