<svg xmlns="http://www.w3.org/2000/svg" xmlns:xlink="http://www.w3.org/1999/xlink" width="960" height="540" viewBox="0 0 720 405" preserveAspectRatio="xMidYMid meet" xmlns:v="https://vecta.io/nano"><path d="M360 95v95H180 0v107.5V405h360 360V202.5 0H540 360v95zm238.8-42c2.9 0 4.5 1.6 3.8 3.8-.6 1.9-1.3 2-5.7 1.5-4.5-.5-4.9-.4-4.9 1.5 0 1.5 1.3 2.8 4.8 4.5 5.8 2.9 7.6 6.1 6.1 10.6-1.8 5.2-9.6 7.7-16.3 5.1-2-.7-2.6-1.6-2.6-4 0-2.6.3-2.9 1.8-2.2 3.3 1.8 7.9 2.1 9.7.8 2.4-1.7 1.3-3.1-4.4-6.1-5.1-2.6-6.1-3.9-6.1-8.6 0-4.4 6.3-8.6 10.8-7.3.8.2 2.1.4 3 .4zM451 58v5h5 5v-5-5h3.5 3.5v14 14h-3.5-3.5v-6-6h-5-5v6 6h-3.5-3.5V67 53h3.5 3.5v5zm40-2.5c0 2.3-.3 2.5-5.1 2.5-4.9 0-5 .1-4.7 2.7.3 2.5.7 2.8 4.6 3.1 3.7.3 4.2.6 4.2 2.8s-.4 2.4-4.5 2.4c-4.3 0-4.5.1-4.5 3s.1 3 5 3 5 .1 5 3v3h-8-8V67 53h8c7.9 0 8 0 8 2.5zm12 8.5v11h5.5c5.4 0 5.5 0 5.5 3v3h-8.5-8.5V67 53h3 3v11zm32.8-9.4c3.3 2.3 4.5 6 3.2 10-1.4 4.2-4.4 6.4-8.7 6.4-3.3 0-3.3 0-3.3 5v5h-3.5-3.5V67 53h6.8c4.6 0 7.5.5 9 1.6zm26.2 7.5c0 10.4.9 12.9 4.8 12.9 4.6 0 5.2-1.5 5.2-12.2V53h3.6 3.6l-.4 11c-.3 10.3-.5 11.1-3 13.6-1.9 2-3.9 2.8-7.5 3.1-9.8.8-13.3-4-13.3-18.5V53h3.5 3.5v9.1zm43 23.4c0 1.3-9.8 1.5-82 1.5s-82-.2-82-1.5 9.8-1.5 82-1.5 82 .2 82 1.5zm-133.5 24.7c.2.2.2 1.4-.2 2.6-.5 2-1 2.2-5.3 1.6-4.2-.6-4.9-.4-6.4 1.7-2.2 3.2-2.1 11.2.1 13.4 1.2 1.3 2.8 1.6 6.5 1.3 4.7-.5 4.8-.5 4.8 2.3 0 2.4-.5 2.9-3.5 3.5-7 1.3-13.7-1.5-15.6-6.4-1.5-4-1.3-11.6.4-14.9 2-3.9 4-5.4 8-6.2 2.9-.7 10.2.1 11.2 1.1zm21.8-.1c5 2.2 5.6 8 1.5 12.6l-2 2.1 4.1 6.1 4.2 6.1h-4c-3.7 0-4.1-.3-7-5.5-1.7-3-3.8-5.5-4.6-5.5-1.1 0-1.5 1.3-1.5 5.5 0 5.4 0 5.5-3 5.5h-3v-14-14h6.5c3.5 0 7.5.5 8.8 1.1zm27.7 1.4c0 2.3-.3 2.5-5.1 2.5-4.9 0-5 .1-4.7 2.7.3 2.5.7 2.8 4.6 3.1 3.7.3 4.2.6 4.2 2.8s-.4 2.4-4.5 2.4c-4.3 0-4.5.1-4.5 3s.1 3 5 3 5 .1 5 3v3h-8-8v-14-14h8c7.9 0 8 0 8 2.5zm25.4 9.7l4.3 14c.4 1.5-.1 1.8-3.1 1.8-3.3 0-3.7-.3-4.2-3-.6-2.8-.9-3-5.6-3-4.6 0-5 .2-5.9 3-.9 2.5-1.6 3-4.5 3-1.9 0-3.4-.3-3.4-.6s1.9-6.6 4.2-14l4.2-13.4h5.1 5.1l3.8 12.2zm27.6-9.7c0 2.2-.4 2.5-3.5 2.5H567v11.5V137h-3.5-3.5v-11.5V114h-3.5c-3.1 0-3.5-.3-3.5-2.5V109h10.5H574v2.5zm21 0c0 2.3-.4 2.5-4.6 2.5-4.4 0-4.5.1-4.2 2.7.3 2.5.7 2.8 4.6 3.1 3.7.3 4.2.6 4.2 2.8s-.4 2.4-4.5 2.4c-4.3 0-4.5.1-4.5 3s.2 3 4.5 3 4.5.1 4.5 3v3h-8-8v-14-14h8c7.9 0 8 0 8 2.5zm2 30c0 1.3-8.9 1.5-74 1.5s-74-.2-74-1.5 8.9-1.5 74-1.5 74 .2 74 1.5zm-78 18c0 .8-.5 1.5-1.1 1.5s-.8.7-.5 1.6c.3.8-.1 2.2-.8 3-.8.8-1.8 3.5-2.2 6-.7 5-2.5 7.4-5.5 7.4-2.2 0-2.6-2.5-.5-3.3 1.6-.6 3.8-8.9 3-11.1-.3-.9-.1-1.6.5-1.6s1.1-.6 1.1-1.3c0-1.9 2.1-3.7 4.2-3.7 1 0 1.8.7 1.8 1.5zm6 0c0 .8-.9 1.5-2 1.5-2 0-2.6-1.1-1.3-2.3 1.2-1.3 3.3-.7 3.3.8zm67 6.3v7.9l-4.5.1c-4.8 0-6.5-1.5-6.5-5.7 0-2.7 3.5-6.2 5.5-5.5 1 .4 1.5 0 1.5-1.3 0-2.3.8-3.3 2.7-3.3 1 0 1.3 2 1.3 7.8zm-170.2 0c1.2 3.8 2.2 7.1 2.2 7.5 0 1.4-3.8.7-4.4-.8-.3-.8-1.5-1.5-2.6-1.5s-2.3.7-2.6 1.5c-.6 1.5-4.4 2.2-4.4.8 0-.4 1-3.7 2.2-7.5 2-6.1 2.5-6.8 4.8-6.8s2.8.7 4.8 6.8zM532 162c1.1 1.1 2 2.2 2 2.4s-.9.6-2 .9c-1.4.3-2 1.4-2 3.1 0 1.4.5 2.6 1 2.6.6 0 1 .7 1 1.6 0 1.1-.8 1.4-2.7 1.2-2.5-.3-2.8-.7-2.9-4 0-2.1-.3-4.1-.7-4.4-.5-.5 3.1-5.3 4.1-5.4.1 0 1.1.9 2.2 2zm31.4.2c1.3 1.4 1.5 2.3.8 2.6-1.9.6-1.5 6.2.4 6.2.9 0 1.4.6 1.2 1.2-.3.7-1.8 1.3-3.4 1.3-2.6 0-2.9-.4-3.2-3.5-.2-1.9-.7-3.9-1.2-4.4-.8-.8 1.8-5.5 3-5.6.3 0 1.4 1 2.4 2.2zm62.6-.7a1.54 1.54 0 0 0 1.5 1.5c.8 0 1.5.4 1.5.9s-.7 1.1-1.5 1.5c-.8.3-1.5 1.7-1.5 3.1 0 1.6.6 2.5 1.5 2.5a1.54 1.54 0 0 1 1.5 1.5c0 1.8-4.3 2-5.8.2-1.8-2.2-2-8.9-.3-10.9 1.9-2.2 3.1-2.3 3.1-.3zm-184.9 2.9c.5 5-.9 9.6-3 9.6-1.7 0-1.8-.5-1-3.7.4-2.1.6-3.9.4-4.1-.9-1-2.3 1.1-2.9 4.3-.5 2.6-1.2 3.5-2.7 3.5s-1.9-.5-1.5-1.8c.3-.9.8-3.4 1.2-5.5.5-3 1-3.8 2.4-3.4 1 .2 2.4.1 3-.3 1.6-1 4-.2 4.1 1.4zm11-1.4c2.6 1.4 2.6 7.1 0 9.4-2.8 2.5-7.5 1.8-7.9-1.3-.6-3.7.6-6.7 3-7.9 2.9-1.4 2.6-1.4 4.9-.2zm13.9.5c.8 1 1 3 .6 6-.6 3.5-1.1 4.5-2.6 4.5-1.8 0-1.9-.5-1.4-4.8.5-3.7.4-4.5-.6-3.5-.7.6-1.5 2.6-1.9 4.5-.4 2.1-1.4 3.4-2.5 3.6-1.6.4-1.8-.1-1.2-3.5 1.2-6.7 1.7-7.5 3.7-7 1 .3 2.2.1 2.5-.4.8-1.3 2-1.1 3.4.6zm20.5 1.5c.3 1-.1 3.5-1 5.5-1.2 3.1-1.9 3.7-3.9 3.3s-2.5 0-3 2.4c-.4 1.9-1.2 2.8-2.5 2.8-1.8 0-1.8-.2-.2-7.7 1.5-7.4 1.8-7.8 4.6-8.4 3.8-.7 5.3-.2 6 2.1zm10.5-1.1c0 1-.9 2.1-1.9 2.4-1.3.3-2.2 1.7-2.6 4.1-.5 2.6-1.2 3.6-2.6 3.6-2.2 0-2.2.4-.8-6 .9-4.2 1.4-5.1 2.9-4.7 1 .2 2.4.1 3.1-.4 1.9-1.2 1.9-1.2 1.9 1zm9.1-.9c2.6 1.4 2.6 7.1 0 9.4-2.8 2.5-7.5 1.8-7.9-1.3-.6-3.7.6-6.7 3-7.9 2.9-1.4 2.6-1.4 4.9-.2zm48.5 0c.7 0 1.1.6.8 1.4s-1.4 1.2-2.7.9c-1.9-.4-1.8-.2.8 2 2.5 2.1 2.8 2.9 1.9 4.4-1.4 2.3-8.4 3.1-8.4.9 0-.8 1.2-1.6 2.8-1.9 2.6-.4 2.6-.5.5-1.2-3.1-1-4-4.5-1.7-6.2 1-.7 2.5-1.1 3.2-.8.8.3 2 .5 2.8.5zm47.8 0c1.9.7 2.6 1.7 2.6 3.5 0 2.1-.5 2.5-3 2.5-1.6 0-3 .4-3 1 0 .5 1.4 1 3.1 1 2 0 2.9.4 2.7 1.2-.3.8-2.1 1.3-4.4 1.3-3 0-4.1-.5-5-2.3-2.1-4.1-.5-7.5 4.3-9.1.1-.1 1.3.3 2.7.9zm15 .6c1 .9 1.6 3.3 1.6 6 0 3.7-.3 4.4-1.9 4.4s-2-.8-2.3-4.3c-.2-2.3-.7-4.2-1.3-4.2-.5 0-1.1 1.9-1.3 4.2-.3 3.5-.7 4.3-2.3 4.3-1.7 0-1.9-.7-1.9-5.6 0-5 .2-5.6 1.9-5.1 1 .2 2.5.1 3.2-.4 1.9-1.2 2.5-1.1 4.3.7zm-93.4-.1c0 .2-.5 2.7-1.1 5.5-.8 4-1.5 5-3.1 5-1.4 0-1.8-.5-1.4-1.8.3-.9.8-3.4 1.2-5.5.4-2.7 1.1-3.7 2.5-3.7 1.1 0 1.9.2 1.9.5zm47 2.2c0 1.6.4 3.4.9 4.2 1.4 2.2 3.1.3 3.1-3.5 0-2.7.4-3.4 2-3.4 1.8 0 2 .7 2 5.4v5.4l-5.2-.2-5.3-.1-.3-5.3c-.2-4.2 0-5.2 1.2-5.2 1.1 0 1.6.9 1.6 2.7zm-96.6 2.8c-.4.8-1.7 1.5-3 1.5-1.5 0-2.4-.6-2.4-1.5 0-1 1-1.5 3-1.5 2.2 0 2.8.4 2.4 1.5zm161.6 0c0 1-1 1.5-3 1.5s-3-.5-3-1.5 1-1.5 3-1.5 3 .5 3 1.5zm-97 2.9c0 1.6-2.1 5.6-3 5.6-1.1 0-1.4-4.3-.3-5.3.7-.8 3.3-1 3.3-.3zm23.8 22.7l.3 7.6h-4.3c-5.5.1-6.8-1-6.8-5.8 0-4.4 3-7 5.6-4.8 1.2.9 1.4.6 1.4-2.1 0-2.5.4-3.1 1.8-2.8s1.7 1.6 2 7.9zm-28.8-4.6a1.54 1.54 0 0 0 1.5 1.5c.8 0 1.5.4 1.5.9s-.7 1.1-1.5 1.5c-.8.3-1.5 1.7-1.5 3.1 0 1.6.6 2.5 1.5 2.5a1.54 1.54 0 0 1 1.5 1.5c0 1.8-4.3 2-5.8.2-1.8-2.2-2-8.9-.3-10.9 1.9-2.2 3.1-2.3 3.1-.3zm-42.8 1.5c.5 0 .8.6.6 1.2-.3.7-1.3 1.3-2.4 1.3-1.4 0-2 .8-2.2 2.9-.3 2.6-.1 2.8 2.3 2.4 2-.4 2.5-.2 2.3 1.1-.4 2-5.4 2.7-7.4 1-2.3-1.9-1.8-7.5.8-9.4 1.3-.8 2.9-1.3 3.6-1 .8.3 1.8.5 2.4.5zm10.8.9c0 1-.9 2.1-2 2.4-1.5.4-2 1.4-2 4.1 0 2.9-.4 3.6-2 3.6-1.8 0-2-.7-2-5.6 0-5.4.1-5.6 2.4-5.2 1.4.3 3.1.1 3.8-.3 1.8-1.2 1.8-1.2 1.8 1zm11.8.9c2.2 2.8 1.4 4.2-2.3 4.2-1.9 0-3.5.4-3.5 1 0 .5 1.4 1 3.1 1 3.8 0 3.5 2.4-.4 2.8-4.3.5-6.7-1.4-6.7-5.3 0-5.8 6.2-8.2 9.8-3.7zm11.3-1.8c1.5.8 1.9 2.1 1.9 5.9v4.9l-4.6-.2c-3.2-.1-5-.6-5.7-1.8-1.4-2.2.7-4.8 3.9-4.8 1.3 0 2.4-.5 2.4-1.1 0-.7-1-.9-2.5-.5-1.8.5-2.5.2-2.5-.8 0-1.3 1.4-2.1 4.3-2.5.5 0 1.7.4 2.8.9zm22.7.6c1.2.8 2.2 2.4 2.2 3.5 0 1.5-.7 1.9-3.5 1.9-1.9 0-3.5.4-3.5 1 0 .5 1.4 1 3 1 2 0 3 .5 3 1.5 0 2.1-6.4 2-8.4-.1-3.3-3.3-.7-10.4 3.9-10.4.6 0 2.1.7 3.3 1.6zm-445.3 11.6l2.4 10.8c2 9.4 2.1 9.4 4.8-3.5l2-9h3.4 3.4l2.1 9.8c2.1 9.3 3.4 13 3.4 9.4 0-.8.9-5.6 2.1-10.6 2-8.9 2.1-9.1 5-9.1 3.6 0 3.6.1-.2 15.5l-3.1 12.5h-4.3-4.2l-1.8-9.5c-1.1-5.2-2.2-9.2-2.6-8.8-.3.5-1.4 4.7-2.4 9.5l-1.8 8.8h-4.2-4.2l-3.2-13.3-3.1-14c0-.4 1.3-.7 3-.7 2.3 0 3.1.5 3.5 2.2zm52.5.3c0 2.3-.4 2.5-4.6 2.5-4.4 0-4.5.1-4.2 2.7.3 2.5.7 2.8 4.6 3.1 3.7.3 4.2.6 4.2 2.8s-.4 2.4-4.5 2.4c-4.3 0-4.5.1-4.5 3s.2 3 4.5 3 4.5.1 4.5 3v3h-8-8v-14-14h8c7.9 0 8 0 8 2.5zm21.5-.3l2.4 10.8c2 9.4 2.1 9.4 4.8-3.5l2-9h3.4 3.4l2.1 9.8c2.1 9.3 3.4 13 3.4 9.4 0-.8.9-5.6 2.1-10.6 2-8.9 2.1-9.1 5-9.1 3.6 0 3.6.1-.2 15.5l-3.1 12.5h-4.3-4.2l-1.8-9.5c-1.1-5.2-2.2-9.2-2.6-8.8-.3.5-1.4 4.7-2.4 9.5l-1.8 8.8h-4.2-4.2l-3.2-13.3-3.1-14c0-.4 1.3-.7 3-.7 2.3 0 3.1.5 3.5 2.2zM220 215v14h-3.5-3.5v-14-14h3.5 3.5v14zm14-3v11h5.5c5.4 0 5.5 0 5.5 3v3h-9-9v-14-14h3.5 3.5v11zm23 0v11h5.5c5.4 0 5.5 0 5.5 3v3h-8.5-8.5v-14-14h3 3v11zm197.7 5.2c-.3 1.3-1 4.9-1.7 8l-1.1 5.7-4.2-.2c-3.2-.2-4.3-.6-4.5-2-.9-4.8 2.6-10.2 5.9-9.2 1.4.5 1.9.1 1.9-1.3 0-2.2.8-3.2 2.8-3.2 1 0 1.3.7.9 2.2zm52.3-.7c0 .8-.9 1.5-2 1.5-2 0-2.6-1.1-1.3-2.3 1.2-1.3 3.3-.7 3.3.8zm44.7.7c-.3 1.3-1.1 4.9-1.7 8-.9 4.7-1.5 5.8-3.1 5.8-1.5 0-1.9-.5-1.5-1.8.3-.9.8-3.5 1.2-5.7 1-6.1 2.2-8.5 4-8.5 1.2 0 1.5.6 1.1 2.2zm23.1-.5c.2.8-.5 1.3-1.7 1.3s-2.1-.6-2.1-1.6c0-1.8 3.1-1.5 3.8.3zm13.2 6.1v7.9l-4.5.1c-4.8 0-6.5-1.5-6.5-5.7 0-2.7 3.5-6.2 5.5-5.5 1 .4 1.5 0 1.5-1.3 0-2.3.8-3.3 2.7-3.3 1 0 1.3 2 1.3 7.8zm-90-3.8c1.1 1.1 2 2.2 2 2.4s-.9.6-2 .9c-1.4.3-2 1.4-2 3.1 0 1.4.5 2.6 1 2.6.6 0 1 .7 1 1.6 0 1.1-.8 1.4-2.7 1.2-2.5-.3-2.8-.7-2.9-4 0-2.1-.3-4.1-.7-4.4-.5-.5 3.1-5.3 4.1-5.4.1 0 1.1.9 2.2 2zm-57 3.6c0 1.7-.9 2.8-3.2 3.8l-3.3 1.4 2.8.1c4.1.1 2.8 2.6-1.3 2.6s-5.8-2.3-4.4-6.2c1.8-5.2 9.4-6.6 9.4-1.7zm36.7-1.2c-.2.6-1.1 1-2 .8-1.8-.3-4.1 3.3-3.2 4.8.3.6 1.3 1 2.1 1s1.4.7 1.4 1.5c0 2.3-5.7 2-6.9-.3-1.4-2.7.1-7.5 2.8-8.8 2.6-1.3 6.4-.7 5.8 1zm7.7-1.5c.3.5 1.5.7 2.6.4 2.3-.6 2.3-.8.9 5.6l-1 5-4.2-.2c-3.2-.2-4.3-.6-4.5-2-1-5.1 4.1-12.2 6.2-8.8zm30.7.1c2.6 1.4 2.6 7.1 0 9.4-2.8 2.5-7.5 1.8-7.9-1.3-.6-3.7.6-6.7 3-7.9 2.9-1.4 2.6-1.4 4.9-.2zm13.9.5c.8 1 1 3 .6 6-.6 3.5-1.1 4.5-2.6 4.5-1.8 0-1.9-.5-1.4-4.8.5-3.7.4-4.5-.6-3.5-.7.6-1.5 2.6-1.9 4.5-.4 2.1-1.4 3.4-2.5 3.6-1.6.4-1.8-.1-1.2-3.5 1.2-6.7 1.7-7.5 3.7-7 1 .3 2.2.1 2.5-.4.8-1.3 2-1.1 3.4.6zm12.4-.4c1.6-.2 1.8.2 1.2 3.6-1.3 6.9-1.4 7.1-5.6 7.1-4.4.1-5.6-1.6-4.4-6.2.7-3 4.2-5.9 5.8-4.8.6.3 1.9.5 3 .3zm58.4 1.7c2.2 2.8 1.4 4.2-2.3 4.2-1.9 0-3.5.4-3.5 1 0 .5 1.4 1 3.1 1 3.8 0 3.5 2.4-.4 2.8-4.3.5-6.7-1.4-6.7-5.3 0-5.8 6.2-8.2 9.8-3.7zm13 0c3 3.8-.2 9.5-5.1 9-3.6-.3-5.7-3.4-4.9-7.4.8-4.3 7-5.3 10-1.6zm-153.9 1.9c-.4 2.1-.6 3.9-.4 4.1.9 1 2.3-1.1 2.9-4.3.5-2.6 1.2-3.5 2.7-3.5s1.9.5 1.5 1.7c-.3 1-.8 3.5-1.1 5.5-.7 3.6-.8 3.7-4.8 3.5-3.8-.2-4.2-.5-4.5-3.1-.5-4.4.6-7.6 2.7-7.6 1.7 0 1.8.5 1 3.7zm45.7 0c-1.1 6.2-1.7 7.3-3.6 7.3-1.6 0-1.7-.5-.9-4.3 1.4-6.1 1.7-6.7 3.5-6.7 1.3 0 1.5.7 1 3.7zm56-2c1.5 4.6 1.7 4.8 2.7 1.5.7-2.1 1.6-3.2 2.9-3.2 1.5 0 1.8.5 1.2 2.2-3.2 10.7-6.1 11.7-9.1 3.3-2-5.4-2-5.5-.2-5.5 1.1 0 2.2.8 2.5 1.7zm13.4 3.8c0 4.8-.2 5.5-2 5.5s-2-.7-2-5.5.2-5.5 2-5.5 2 .7 2 5.5zm-305 8c0 1.3-10.4 1.5-87.5 1.5s-87.5-.2-87.5-1.5 10.4-1.5 87.5-1.5 87.5.2 87.5 1.5zM502 247c0 2.6.3 2.9 1.8 2.1 3.3-1.7 5.2.5 5.2 5.9 0 3.8-.4 5-1.5 5-1 0-1.5-1-1.5-2.9 0-1.6-.3-3.7-.6-4.5-1-2.7-3.4.1-3.4 4 0 2.7-.4 3.4-2 3.4-1.8 0-2-.7-2-7.3 0-7.6.4-8.7 2.7-8.7.8 0 1.3 1.2 1.3 3zm88 0c0 2.6.3 2.9 1.8 2.1 3.3-1.7 5.2.5 5.2 5.9 0 3.8-.4 5-1.5 5-1 0-1.5-1-1.5-2.9 0-1.6-.3-3.7-.6-4.5-1-2.7-3.4.1-3.4 4 0 2.7-.4 3.4-2 3.4-1.8 0-2-.7-2-7.3 0-7.6.4-8.7 2.7-8.7.8 0 1.3 1.2 1.3 3zm-465 1c0 3.2 1.4 4 2.4 1.5.3-.8 1.2-1.5 2.1-1.5 1.8 0 1.9.4.3 3-1 1.5-1 2.2 0 3.2.6.6 1.2 1.6 1.2 2 0 1.4-2.3.8-3.6-1-1.2-1.6-1.3-1.6-1.9 0-1.4 3.6-2.5 1.7-2.5-4.2 0-3.3.4-6 1-6s1 1.3 1 3zm25 3c0 4.7-.3 6-1.5 6s-1.5-1.3-1.5-6 .3-6 1.5-6 1.5 1.3 1.5 6zm42-5c0 .5-.7 1-1.5 1s-1.5-.5-1.5-1c0-.6.7-1 1.5-1s1.5.4 1.5 1zm32 0c0 .5-.5 1-1.1 1-.8 0-.8.4 0 1.4s.9 1.6.1 2.1c-.5.3-1 1.9-1 3.6 0 4.4-2.7 3.7-3.2-.9-.7-4.9.6-8.2 3.2-8.2 1.1 0 2 .4 2 1zm54 4.9v5.8l-3.7-.1c-3.4-.1-3.8-.4-4.1-2.9-.4-3.2 1.5-6 3.5-5.3.8.3 1.3-.2 1.3-1.4 0-1.1.7-2 1.5-2 1.2 0 1.5 1.3 1.5 5.9zm-174.9-1.2l1.2 3.8 1.2-3.5c.8-2.3 1.9-3.6 3.3-3.8 2-.3 2.2.1 2.2 5.2 0 4.3-.3 5.6-1.5 5.6-1 0-1.5-1.1-1.6-3.8l-.1-3.7-1 3.8c-1.2 4.4-3.8 4.7-4.9.7l-.7-2.5-.1 2.7c-.1 1.8-.7 2.8-1.6 2.8-1.2 0-1.5-1.3-1.5-5.5 0-4.8.3-5.5 1.9-5.5 1.4 0 2.3 1.1 3.2 3.7zm389.9-2.2a1.54 1.54 0 0 0 1.5 1.5c.8 0 1.5.4 1.5.9s-.7 1.1-1.5 1.5c-.8.3-1.5 1.7-1.5 3.1 0 1.6.6 2.5 1.5 2.5a1.54 1.54 0 0 1 1.5 1.5c0 1.8-4.3 2-5.8.2-1.8-2.2-2-8.9-.3-10.9 1.9-2.2 3.1-2.3 3.1-.3zm37.4.7c1.3 1.4 1.5 2.3.8 2.6-1.9.6-1.5 6.2.4 6.2.9 0 1.4.6 1.2 1.2-.3.7-1.8 1.3-3.4 1.3-2.6 0-2.9-.4-3.2-3.5-.2-1.9-.7-3.9-1.2-4.4-.8-.8 1.8-5.5 3-5.6.3 0 1.4 1 2.4 2.2zm14.7-.1c2 2 2 2.3.5 3.1-2 1.2-2.2 5.8-.1 5.8.8 0 1.5.7 1.5 1.6 0 1.1-.8 1.4-2.7 1.2-2.4-.3-3-1-3.9-4.8-.9-3.6-.8-4.9.4-6.8 1.8-2.7 1.7-2.7 4.3-.1zm-426.7.5c1.1.4 1.6 1.9 1.6 4.4 0 3.5-.2 3.7-3.2 3.8-1.8 0-3.6-.4-3.9-1-1.1-1.7.1-3.8 2.2-3.8 1 0 1.9-.5 1.9-1.1s-.7-.9-1.5-.5c-1.5.5-2-.5-.8-1.7.8-.9 1.7-.9 3.7-.1zm21.4.6c2 2 1.4 3.8-1.3 3.8-1.4 0-2.5.4-2.5 1 0 .5.9 1 2 1s2 .4 2 1c0 1.4-4.3 1.3-5.8-.2-2.6-2.6-.7-7.8 2.8-7.8.9 0 2.1.5 2.8 1.2zm18.6.4c2.3 2.2 2 3.4-.9 3.4-1.4 0-2.5.4-2.5 1 0 .5.9 1 2 1s2 .5 2 1.1-1.4.9-3.2.7c-2.8-.2-3.4-.8-3.6-3.1-.6-4.9 3-7.3 6.2-4.1zm9-1c1.1.4 1.6 1.9 1.6 4.4 0 3.8 0 3.8-3.7 3.7-3.1-.2-3.8-.6-3.8-2.2 0-1.3.8-2.1 2.3-2.3 1.2-.2 2.2-.8 2.2-1.4 0-.5-.7-.8-1.5-.5-.8.4-1.7.2-2-.3-.3-.4.1-1.1.7-1.3 1.9-.8 2.4-.8 4.2-.1zm9.6 1c0 .7-.7 1.4-1.5 1.8-.8.3-1.5 1.7-1.5 3.1 0 1.6-.6 2.5-1.5 2.5-1.1 0-1.5-1.1-1.5-3.8 0-2.1.2-4.1.4-4.3 1-.9 5.6-.3 5.6.7zm8.8-.3c1.8 1.2 1.6 7.7-.3 7.7-1 0-1.5-1-1.5-3.1 0-3.8-2.4-3.5-2.8.4-.5 4.4-2.2 3.1-2.2-1.7 0-4.1.1-4.4 2.8-4.2 1.5.1 3.3.5 4 .9zm6.2 3.2c0 3.3-.4 4.5-1.5 4.5s-1.5-1.2-1.5-4.5.4-4.5 1.5-4.5 1.5 1.2 1.5 4.5zm9.8-3.3c1.8 1.5 1.6 7.8-.3 7.8-1 0-1.5-1-1.5-3s-.5-3-1.5-3-1.5 1-1.5 3-.5 3-1.5 3c-1.1 0-1.5-1.1-1.5-3.8 0-2.1.2-4.1.4-4.3.9-.9 6.2-.7 7.4.3zm11.2-.8c0 2.5-2.3 5.6-4.2 5.7-1.8.1-1.7.3.7.8 1.6.3 3.1 1.4 3.3 2.3.4 2.2-3.3 4.1-6.5 3.3-2.2-.5-2.4-1-1.8-3.3.4-1.5.7-3.8.6-5.1 0-1.4.5-2.8 1.1-3.3 1.4-.8 6.8-1.1 6.8-.4zm14.8 3.4c.2 1.8.7 3.2 1.2 3.2s1-1.4 1.2-3.2c.5-5.1 2.8-4.7 2.8.5v4.5l-3.7-.1c-3.7-.2-3.8-.3-4.1-4.6-.2-3.2 0-4.2 1-3.9.7.3 1.4 1.9 1.6 3.6zm15-2.6c1.8 1.5 1.6 7.8-.3 7.8-1 0-1.5-1-1.5-3s-.5-3-1.5-3-1.5 1-1.5 3-.5 3-1.5 3c-1.1 0-1.5-1.1-1.5-3.8 0-2.1.2-4.1.4-4.3.9-.9 6.2-.7 7.4.3zm12.6-.6c1.1.4 1.6 1.9 1.6 4.4 0 3.5-.2 3.7-3.2 3.8-1.8 0-3.6-.4-3.9-1-1.1-1.7.1-3.8 2.2-3.8 1 0 1.9-.5 1.9-1.1s-.7-.9-1.5-.5c-1.5.5-2-.5-.8-1.7.8-.9 1.7-.9 3.7-.1zm11.4.7c1.8 1.2 1.6 7.7-.3 7.7-1 0-1.5-1-1.5-3.1 0-3.8-2.4-3.5-2.8.4-.5 4.4-2.2 3.1-2.2-1.7 0-4.1.1-4.4 2.8-4.2 1.5.1 3.3.5 4 .9zm168 .3c.2.1-.2 1.5-1 3.1-.8 1.7-2.3 2.9-3.8 3.2-2.3.3-2.2.4 1 1.5 3.9 1.2 4.9 3.6 2.5 6-3.4 3.3-12.6.8-9.7-2.7 1.4-1.7 1.8-4.9.9-6.5-1.2-1.8.1-5 2.1-5.5 1.6-.4 7.3.2 8 .9zm10.3-.6c1.5.8 1.9 2.1 1.9 5.9v4.9l-4.6-.2c-3.2-.1-5-.6-5.7-1.8-1.4-2.2.7-4.8 3.9-4.8 1.3 0 2.4-.5 2.4-1.1 0-.7-1-.9-2.5-.5-1.8.5-2.5.2-2.5-.8 0-1.3 1.4-2.1 4.3-2.5.5 0 1.7.4 2.8.9zm15.4.2c.6 0 1.7-.3 2.6-.6 2.7-1.1 4.9 2 4.9 7 0 3.7-.3 4.4-1.9 4.4s-2-.8-2.3-4.3c-.2-2.3-.7-4.2-1.3-4.2-.5 0-1.1 1.9-1.3 4.2-.3 3.4-.7 4.3-2.2 4.3s-1.9-.9-2.2-4.3c-.2-2.3-.7-4.2-1.3-4.2-.5 0-1.1 1.9-1.3 4.2-.3 3.5-.7 4.3-2.3 4.3-1.7 0-1.9-.7-1.9-5.6 0-5 .2-5.6 1.9-5.1 1 .2 2.5.1 3.2-.4.8-.5 2.1-.6 2.9-.3.8.4 2 .6 2.5.6zm18.3.4c1.2.8 2.2 2.4 2.2 3.5 0 1.5-.7 1.9-3.5 1.9-1.9 0-3.5.4-3.5 1 0 .5 1.4 1 3 1 2 0 3 .5 3 1.5s-1.1 1.5-3.5 1.5c-8 0-8.4-11-.5-11.9.3-.1 1.6.6 2.8 1.5zm41.3-.6c1.5.8 1.9 2.1 1.9 6v4.9l-4.7-.2c-4.6-.2-4.8-.3-4.8-3.2 0-2.5.4-3 2.8-3.3 1.5-.2 2.7-.8 2.7-1.3 0-.6-1-.9-2.2-.7-2.6.4-3.6-1.8-1.1-2.5 3-.8 3.3-.7 5.4.3zm37.7.6c1.2.8 2.2 2.4 2.2 3.5 0 1.5-.7 1.9-3.5 1.9-1.9 0-3.5.4-3.5 1 0 .5 1.4 1 3 1 2 0 3 .5 3 1.5s-1.1 1.5-3.5 1.5c-8 0-8.4-11-.5-11.9.3-.1 1.6.6 2.8 1.5zm12.6-.3c1.1.8 2 3.1 2.3 5.9l.5 4.6-5.3-.2c-4.9-.1-5.4-.3-5.7-2.5-.4-2.7 1.2-4.1 4.6-4.1 1.4 0 2-.4 1.7-1-.4-.6-1.6-1-2.7-.8-2.6.4-3.6-1.9-1.1-2.5 3.1-.8 3.9-.7 5.7.6zm12-.7c2.5.9 1.9 3.4-.6 3.1-1.8-.2-2.3.3-2.3 2.3 0 1.8.6 2.6 2.3 2.8 1.2.2 2.2 1 2.2 1.8 0 2-5.4 1.8-7.5-.2-2.4-2.5-1.6-7.6 1.5-9.1 3-1.5 2.5-1.4 4.4-.7zm26.4 1c1.2.8 2.2 2.4 2.2 3.5 0 1.5-.7 1.9-3.5 1.9-1.9 0-3.5.4-3.5 1 0 .5 1.4 1 3 1 2 0 3 .5 3 1.5 0 2.1-6.4 2-8.4-.1-3.3-3.3-.7-10.4 3.9-10.4.6 0 2.1.7 3.3 1.6zm11.8-.6c.7 0 1.1.6.8 1.4s-1.4 1.2-2.7.9c-1.9-.4-1.8-.2.8 2 2.5 2.1 2.8 2.9 1.9 4.4-1.4 2.3-8.4 3.1-8.4.9 0-.8 1.2-1.6 2.8-1.9 2.6-.4 2.6-.5.5-1.2-3.1-1-4-4.5-1.7-6.2 1-.7 2.5-1.1 3.2-.8.8.3 2 .5 2.8.5zm-548.8 5.9c-.7 1.9-12.8 14.1-14 14.1-1.6 0-7.8-6.1-7.8-7.7 0-2.1 2.2-1.5 5.2 1.4l2.9 2.7 5.7-5.7c5-5 9-7.4 8-4.8zM204 268c0 .5-.7 1-1.5 1s-1.5-.5-1.5-1c0-.6.7-1 1.5-1s1.5.4 1.5 1zm-45.6 3.6c2.3 2.2 2 3.4-.9 3.4-1.4 0-2.5.4-2.5 1 0 .5.9 1 2 1s2 .5 2 1.1-1.4.9-3.2.7c-2.8-.2-3.4-.8-3.6-3.1-.6-4.9 3-7.3 6.2-4.1zm10.4-.3c1.8 1.2 1.6 7.7-.3 7.7-1 0-1.5-1-1.5-3.1 0-3.8-2.4-3.5-2.8.4-.5 4.4-2.2 3.1-2.2-1.7 0-4.1.1-4.4 2.8-4.2 1.5.1 3.3.5 4 .9zm11.2-.9c0 2.1-2.3 5.6-3.7 5.7-1.2.1-.9.3.7.8 3.5 1 3.3 4.3-.3 5.5-2.2.8-3.1.6-4.5-.8-1.1-1.2-1.3-2-.6-2.3.6-.2.9-1.9.7-4-.2-2.3.1-3.9.9-4.4 1.3-.9 6.8-1.2 6.8-.5zm7.4.2c1.1.4 1.6 1.9 1.6 4.4 0 3.8 0 3.8-3.7 3.7-3.1-.2-3.8-.6-3.8-2.2 0-1.3.8-2.1 2.3-2.3 1.2-.2 2.2-.8 2.2-1.4 0-.5-.7-.8-1.5-.5-.8.4-1.7.2-2-.3-.3-.4.1-1.1.7-1.3 1.9-.8 2.4-.8 4.2-.1zm11.6-.2c0 2.1-2.3 5.6-3.7 5.7-1.2.1-.9.3.7.8 3.2.9 3.7 3.6 1 5.1-3.9 2.1-5.7.5-5.6-4.8.1-2.6.5-5.3.9-6 .7-1.1 6.7-1.8 6.7-.8zm4.8 4.4c.2 3.3 0 4.2-1.2 4.2s-1.6-1.1-1.6-4.6c0-5.9 2.4-5.5 2.8.4zm10-.1c.3 4.6-1.5 6.1-2 1.6-.4-3.9-2.8-4.2-2.8-.4 0 2.1-.5 3.1-1.5 3.1-1.1 0-1.5-1.2-1.5-4.4v-4.3l3.8.1c3.6.1 3.7.2 4 4.3zm10.5-4.1c1 1.1-1.3 4.4-3.6 5.4-2.1.8-2.1.9.4.9 4.3.1 4.7 3.9.5 5.4-3.9 1.5-5.3 0-5.1-5.1.1-2.7.5-5.4.9-6 .8-1.3 5.8-1.7 6.9-.6zm322.7 3.6c0 1.2-.8 5.2-2.5 12.5-.3 1.4-1.3 2.3-2.4 2.3-1.8 0-1.8-.3-.4-6.8 1.9-9 2-9.2 3.8-9.2.8 0 1.5.6 1.5 1.2zm7 .3c0 .8-.9 1.5-2 1.5-2 0-2.6-1.1-1.3-2.3 1.2-1.3 3.3-.7 3.3.8zm33.9 1.2c0 1.6-.6 5-1.2 7.8-1.1 4.7-1.4 5-4.7 5.3-4.1.4-6.2-1.8-5.4-5.7.7-3.1 4-6.2 5.8-5.5.8.3 1.6-.5 2-2 .9-3.6 3.6-3.4 3.5.1zm-120.1 2.5c3.2 3.2-.4 11.9-4.3 10.4-1.1-.4-1.7.2-2.2 2.4-.4 2.1-1.1 3-2.5 3s-1.8-.5-1.4-1.8c.3-.9 1-4.5 1.7-7.9 1-5.5 1.4-6.2 3.8-6.6 1.4-.2 2.8-.5 3.2-.6.3 0 1 .4 1.7 1.1zm12.6.1c2.6 1.9 1.3 5.2-2.7 6.5l-3.2 1 2.8.1c3.9.1 3 2.5-1.1 2.9-2.2.2-3.4-.2-4.1-1.6-1.5-2.7.1-7.5 3-8.9 3-1.6 3.1-1.6 5.3 0zm11.6.6c0 1-.9 2.1-1.9 2.4-1.3.3-2.2 1.7-2.6 4.1-.5 2.6-1.2 3.6-2.6 3.6-2.2 0-2.2.4-.8-6 .9-4.2 1.4-5.1 2.9-4.7 1 .2 2.4.1 3.1-.4 1.9-1.2 1.9-1.2 1.9 1zm7.4-1.3c2.3.9 2 2.4-.6 2.4-2 0-2 .1-.5 1.8 3.5 3.9 1.7 7.2-3.9 7.2-3.5 0-3.2-3 .4-3.1h2.7l-2.2-1.6c-2.7-1.8-3-4.8-.5-6.2 2-1.2 2.5-1.3 4.6-.5zm11.7.4c2.6 1.4 2.6 7.1 0 9.4-2.8 2.5-7.5 1.8-7.9-1.3-.6-3.7.6-6.7 3-7.9 2.9-1.4 2.6-1.4 4.9-.2zm14.9 3.4c0 4.9-1.1 7.6-3 7.6-1.5 0-1.7-.7-1.2-4.6.6-5.8-1.3-5.3-2.3.6-.5 3-1.1 4-2.6 4-2.2 0-2.2.4-.8-6 .9-4.2 1.4-5.1 2.9-4.7 1 .2 2.4.1 3-.3 2.3-1.4 4 .1 4 3.4zm11.4-3.3c1.6-.2 1.8.2 1.2 3.6-1.3 6.9-1.4 7.1-5.6 7.1-4.4.1-5.6-1.6-4.4-6.2.7-3 4.2-5.9 5.8-4.8.6.3 1.9.5 3 .3zm36 .2c2.6 1.9 1.3 5.2-2.7 6.5l-3.2 1 2.8.1c3.9.1 3 2.5-1.1 2.9-2.2.2-3.4-.2-4.1-1.6-1.5-2.7.1-7.5 3-8.9 3-1.6 3.1-1.6 5.3 0zm-20.4.2c0 .2-.5 2.7-1.1 5.5-.8 4-1.5 5-3.1 5-1.4 0-1.8-.5-1.4-1.8.3-.9.8-3.4 1.2-5.5.4-2.7 1.1-3.7 2.5-3.7 1.1 0 1.9.2 1.9.5zm10 1.2c-.5 1-1.7 2.8-2.6 4-1.5 2.1-1.5 2.3 0 2.3.9 0 1.6.7 1.6 1.5 0 1.1-1.2 1.5-4.5 1.5-2.5 0-4.5-.3-4.5-.7 0-.3 1.1-2.1 2.5-3.9 2.9-3.8 3-4.4.9-4.4-.8 0-1.2-.5-.9-1 .3-.6 2.4-1 4.6-1 3.5 0 3.9.2 2.9 1.7zm-356 12.1v5.9l-3.5.1c-3 .1-3.6-.2-4.1-2.5-.8-3.1.7-5.9 3-5.7 1 .1 1.6-.6 1.6-1.7s.7-1.9 1.5-1.9c1.2 0 1.5 1.3 1.5 5.8zm41-4.8c0 .5-.7 1-1.6 1-.8 0-1.2-.5-.9-1 .3-.6 1-1 1.6-1 .5 0 .9.4.9 1zm-138 3c1.8 4.4 3 4.6 2.3.5-.4-2.8-.2-3.5 1.1-3.5s1.6 1.1 1.6 5.5c0 4.8-.2 5.5-2 5.5-1.2 0-2.7-1.3-3.9-3.8l-2-3.7-.1 3.7c0 2.1-.4 3.8-1 3.8-.5 0-1-2.5-1-5.5 0-4.7.3-5.5 1.9-5.5 1.1 0 2.3 1.2 3.1 3zm72.9-.6c.8 1 .9 1.6.1 2.1-1.3.8-1.3 4.5 0 4.5.6 0 1 .5 1 1.1s-1 .9-2.2.7c-3.5-.5-4.8-9.8-1.3-9.8.7 0 1.8.6 2.4 1.4zm59.7 0c1.8 1.4 1.8 1.5.2 2.1-2.2.9-2.3 3.4-.3 4.1 1.9.8.9 2.4-1.4 2.4-1.4 0-2-.9-2.3-3.8-.8-6.1.2-7.4 3.8-4.8zm-118.8.8c2 2 1.4 3.8-1.3 3.8-1.4 0-2.5.4-2.5 1 0 .5 1.2 1 2.6 1s2.3.4 1.9 1c-.9 1.4-4.8 1.3-6.3-.2-1.8-1.8-1.5-5.5.6-6.7 2.3-1.4 3.6-1.3 5 .1zm6 1.5l1 2.8 1.1-2.8c1-2.6 3.1-3.8 3.1-1.7 0 2.5-3 8-4.4 8-.8 0-2.1-1.9-2.9-4.5-1.3-3.7-1.3-4.5-.2-4.5.7 0 1.8 1.2 2.3 2.7zm12.6-2.1c2.4.9 2 4.4-.4 4.4-1.1 0-2 .4-2 1 0 .5.9 1 2 1s2 .4 2 1c0 1.9-5.9 1.1-7-.9-1.4-2.7-1.3-3.7.6-5.5 1.7-1.8 2.4-1.9 4.8-1zm9.6 1c0 .7-.7 1.4-1.5 1.8-.8.3-1.5 1.7-1.5 3.1 0 1.6-.6 2.5-1.5 2.5-1.1 0-1.5-1.1-1.5-3.8 0-2.1.2-4.1.4-4.3 1-.9 5.6-.3 5.6.7zm13.3.5c1.5 2.4 0 6.9-2.3 6.9-1.3 0-2 .7-2 2 0 1.1-.7 2-1.5 2-1.2 0-1.5-1.4-1.5-6.4v-6.4l3.2.2c1.7.1 3.6.9 4.1 1.7zm5.5 1.7c.2 1.8.7 3.2 1.2 3.2s1-1.4 1.2-3.2c.5-5.1 2.8-4.7 2.8.5v4.5l-3.7-.1c-3.7-.2-3.8-.3-4.1-4.6-.2-3.2 0-4.2 1-3.9.7.3 1.4 1.9 1.6 3.6zm24.6-3.2c2.4.9 2 4.4-.4 4.4-1.1 0-2 .4-2 1 0 .5.9 1 2 1s2 .4 2 1c0 1.9-5.9 1.1-7-.9-1.4-2.7-1.3-3.7.6-5.5 1.7-1.8 2.4-1.9 4.8-1zm16.8 2.6c.4 4.3 2.2 4.2 2.6 0 .5-4.6 2.6-3.5 3 1.5l.3 4.1h-3.8c-4.2 0-5.3-1-5.3-4.9 0-4.9 2.7-5.4 3.2-.7zm13.8-1.8c0 .7-.9 1.6-2 1.9s-2 1-2 1.7.9 1.4 2 1.7c3 .8 2.4 2.5-.7 2.1-2.2-.2-2.9-.9-3.1-3.1-.2-1.6.2-3.5.9-4.3 1.5-1.8 4.9-1.8 4.9 0zm8.8-.2c.7.7 1.2 2.6 1.2 4.4 0 3.1-.2 3.2-3.7 3.1-3.1-.2-3.8-.6-3.8-2.2 0-1.3.8-2.1 2.3-2.3 1.2-.2 2.2-.8 2.2-1.4 0-.5-.7-.8-1.5-.5-1.5.7-2.9-.6-1.8-1.7 1-1 3.8-.7 5.1.6zm13.2 3.3c0 3.3-.4 4.5-1.5 4.5s-1.5-1.1-1.5-3.8c0-2.1.3-4.2.7-4.5 1.6-1.6 2.3-.4 2.3 3.8zm8.9-3.1c.7.8 1.1 2.7.9 4.3-.6 5.1-7.8 4-7.8-1.3 0-3.7 4.7-5.7 6.9-3zm10.9-.2c1.8 1.5 1.6 7.8-.3 7.8-1 0-1.5-1-1.5-3s-.5-3-1.5-3-1.5 1-1.5 3-.5 3-1.5 3c-1.1 0-1.5-1.1-1.5-3.8 0-2.1.2-4.1.4-4.3.9-.9 6.2-.7 7.4.3zm-196 7.7c-.7 1.9-12.8 14.1-14 14.1-1.6 0-7.8-6.1-7.8-7.7 0-2.1 2.2-1.5 5.2 1.4l2.9 2.7 5.7-5.7c5-5 9-7.4 8-4.8zm438 11.2l.3 7.6h-4.3c-5.5.1-6.8-1-6.8-5.8 0-4.4 3-7 5.6-4.8 1.2.9 1.4.6 1.4-2.1 0-2.5.4-3.1 1.8-2.8s1.7 1.6 2 7.9zm40.2-6.6c0 .8-.9 1.5-2 1.5-2 0-2.6-1.1-1.3-2.3 1.2-1.3 3.3-.7 3.3.8zm-79.9 3.5c1.5.8 1.9 2.1 1.9 6v4.9l-4.7-.2c-4.6-.2-4.8-.3-4.8-3.2 0-2.5.4-3 2.8-3.3 1.5-.2 2.7-.8 2.7-1.3 0-.6-1-.9-2.2-.7-2.6.4-3.6-1.8-1.1-2.5 3-.8 3.3-.7 5.4.3zm13.1 0c.5 0 .8.6.6 1.2-.3.7-1.3 1.3-2.4 1.3-1.4 0-2 .8-2.2 2.9-.3 2.6-.1 2.8 2.3 2.4 2-.4 2.5-.2 2.3 1.1-.4 2-5.4 2.7-7.4 1-2.3-1.9-1.8-7.5.8-9.4 1.3-.8 2.9-1.3 3.6-1 .8.3 1.8.5 2.4.5zm10.9 0c1.5.8 1.9 2.1 1.9 6v4.9l-4.7-.2c-4.6-.2-4.8-.3-4.8-3.2 0-2.5.4-3 2.8-3.3 1.5-.2 2.7-.8 2.7-1.3 0-.6-1-.9-2.2-.7-2.6.4-3.6-1.8-1.1-2.5 3-.8 3.3-.7 5.4.3zm26.7.6c1.2.8 2.2 2.4 2.2 3.5 0 1.5-.7 1.9-3.5 1.9-1.9 0-3.5.4-3.5 1 0 .5 1.4 1 3 1 2 0 3 .5 3 1.5 0 2.1-6.4 2-8.4-.1-3.3-3.3-.7-10.4 3.9-10.4.6 0 2.1.7 3.3 1.6zm16.9-.5c1.1-.6 2.4-.6 3.5 0 2.4 1.3 2.6 10.9.3 10.9-.9 0-1.5-.9-1.5-2.3 0-1.2-.3-3.2-.6-4.5-.9-3.3-3.4-.9-3.4 3.4 0 2.7-.4 3.4-2 3.4-1.7 0-2-.7-2-4.1 0-5.2-2.4-4.8-2.8.4-.3 2.9-.7 3.7-2.3 3.7s-1.9-.7-1.9-5.6c0-5.4.1-5.6 2.4-5.2 1.4.3 3 .1 3.7-.3s2.1-.3 3.1.2c1.2.6 2.4.6 3.5 0zm24.2.5c.8.7-1.2 2.5-2.4 2-1.8-.6-3.9 2-3.1 3.9.3.8 1.7 1.5 3.2 1.5 3.6 0 2.6 2.4-1.3 2.8-3.5.4-5.5-1.6-5.5-5.5 0-4.5 5.8-7.6 9.1-4.7zm9.2-.6c.5 0 .9.4.9 1 0 .5-1 1-2.2 1-2.2 0-2.2.1.6 2.3 2.5 2 2.7 2.6 1.7 4.5-1.4 2.7-8.1 3.2-8.1.7 0-1 1-1.5 2.8-1.5l2.7-.1-2.7-1.5c-1.6-.8-2.8-2.3-2.8-3.4 0-2.1 2.8-4.2 4.8-3.5.8.3 1.8.5 2.3.5zm-21.1 5.5c0 4.8-.2 5.5-2 5.5s-2-.7-2-5.5.2-5.5 2-5.5 2 .7 2 5.5zm-428-1.6c0 1.1.6 1.8 1.6 1.7 2.3-.2 3.8 2.6 3 5.7-.5 2.3-1.1 2.6-4.1 2.5l-3.5-.1v-5.9c0-4.5.3-5.8 1.5-5.8.8 0 1.5.8 1.5 1.9zm19 .2c0 1.5.4 1.9 1.6 1.5 2.5-1 4.4 1.2 4.4 5 0 2.4-.5 3.4-1.5 3.4s-1.5-1-1.5-3c0-1.7-.5-3-1-3-.6 0-1.3 1.3-1.6 3-1.1 5.1-2.4 3.3-2.4-3 0-3.3.4-6 1-6s1 .9 1 2.1zm11-1.1c0 .5-.7 1-1.5 1s-1.5-.5-1.5-1c0-.6.7-1 1.5-1s1.5.4 1.5 1zm21 5v5.9l-3.7-.2c-3.7-.2-3.8-.3-3.8-4.2 0-3.5.3-4 2.3-3.9 1.5 0 2.2-.5 2.2-1.8 0-1 .7-1.8 1.5-1.8 1.2 0 1.5 1.3 1.5 6zm76 0c0 4.7-.3 6-1.5 6s-1.5-1.3-1.5-6 .3-6 1.5-6 1.5 1.3 1.5 6zm5 0c0 4.7-.3 6-1.5 6s-1.5-1.3-1.5-6 .3-6 1.5-6 1.5 1.3 1.5 6zm-118.2-1.8c2 2 1.4 3.8-1.3 3.8-1.4 0-2.5.4-2.5 1 0 .5.9 1 2 1s2 .4 2 1c0 1.4-4.3 1.3-5.8-.2-2.6-2.6-.7-7.8 2.8-7.8.9 0 2.1.5 2.8 1.2zm16.2 3.3c0 3.3-.4 4.5-1.5 4.5s-1.5-1.2-1.5-4.5.4-4.5 1.5-4.5 1.5 1.2 1.5 4.5zm9.8-3.3c1.8 1.5 1.6 7.8-.3 7.8-1 0-1.5-1-1.5-3s-.5-3-1.5-3-1.5 1-1.5 3-.5 3-1.5 3c-1.1 0-1.5-1.1-1.5-3.8 0-2.1.2-4.1.4-4.3.9-.9 6.2-.7 7.4.3zm22.6-.6c1.1.4 1.6 1.9 1.6 4.4 0 3.5-.2 3.7-3.2 3.8-1.8 0-3.6-.4-3.9-1-1.1-1.7.1-3.8 2.2-3.8 1 0 1.9-.5 1.9-1.1s-.7-.9-1.5-.5c-1.5.5-2-.5-.8-1.7.8-.9 1.7-.9 3.7-.1zm15.9 1.5c1.5 2.4 0 6.9-2.3 6.9-1.3 0-2 .7-2 2 0 1.1-.7 2-1.5 2-1.2 0-1.5-1.4-1.5-6.4v-6.4l3.2.2c1.7.1 3.6.9 4.1 1.7zm8.1-1.5c1.1.4 1.6 1.9 1.6 4.4 0 3.5-.2 3.7-3.2 3.8-1.8 0-3.6-.4-3.9-1-1.1-1.7.1-3.8 2.2-3.8 1 0 1.9-.5 1.9-1.1s-.7-.9-1.5-.5c-1.5.5-2-.5-.8-1.7.8-.9 1.7-.9 3.7-.1zm6.7 2.1l1.1 2.8 1-2.8c.5-1.5 1.6-2.7 2.5-2.7.8 0 1.2.6.9 1.2-.2.7-1 3-1.7 5-1.4 4.4-4.2 7.3-6 6.2-.9-.5-.8-1 .5-2 1.6-1.1 1.6-1.5.2-4.9-1.9-4.4-2-5.5-.6-5.5.6 0 1.5 1.2 2.1 2.7zm9.6 0l.7 2.8.6-2.5c.7-3.2 4-4 4-1.1 0 1.2.5 2.1 1 2.1.6 0 1-.9 1-2s.7-2 1.6-2c1 0 1.4.6 1 1.7-.3 1-.8 3-1.2 4.5-.8 3.8-4.4 3.9-4.4.2 0-1.4-.4-2.3-1-1.9-.5.3-1 1.5-1 2.6 0 1-.7 1.9-1.5 1.9-1.6 0-3.5-3.8-3.5-7.1 0-2.9 1.9-2.3 2.7.8zm18.1-1.5c.7.7 1.2 2.6 1.2 4.4 0 3.1-.2 3.2-3.7 3.1-3.1-.2-3.8-.6-3.8-2.2 0-1.3.8-2.1 2.3-2.3 1.2-.2 2.2-.8 2.2-1.4 0-.5-.7-.8-1.5-.5-1.5.7-2.9-.6-1.8-1.7 1-1 3.8-.7 5.1.6zm335.2 3.4c0 1.4-2.1 1.9-3.3.7-.9-.9 1.3-3.4 2.4-2.7.5.3.9 1.2.9 2zM257 328c0 .5-.7 1-1.5 1s-1.5-.5-1.5-1c0-.6.7-1 1.5-1s1.5.4 1.5 1zm15 5c0 4.7-.3 6-1.5 6s-1.5-1.3-1.5-6 .3-6 1.5-6 1.5 1.3 1.5 6zm-162.1-1.3l2 3.8.1-3.8c0-2.6.4-3.7 1.5-3.7 1.2 0 1.5 1.3 1.5 5.5 0 5.1-.2 5.5-2.3 5.5-1.6 0-2.8-1-4-3.3l-1.6-3.2v3.2c-.1 2.2-.6 3.3-1.6 3.3-1.2 0-1.5-1.3-1.5-5.5 0-4.8.2-5.5 2-5.5 1.2 0 2.7 1.3 3.9 3.7zm86.5-2.1c1.7.7 2.2 3.4.6 3.4-.5 0-1 .9-1 2s.5 2 1 2c.6 0 1 .5 1 1.1s-1 .9-2.2.7c-1.6-.2-2.4-1.2-2.9-3.8-.5-2-.3-4 .3-4.7 1.2-1.5 1.1-1.5 3.2-.7zm-73 2c2.3 2.2 2 3.4-.9 3.4-1.4 0-2.5.4-2.5 1 0 .5.9 1 2 1s2 .5 2 1.1-1.4.9-3.2.7c-2.8-.2-3.4-.8-3.6-3.1-.6-4.9 3-7.3 6.2-4.1zm5.7 1.1l1.1 2.8 1-2.8c.5-1.5 1.7-2.7 2.5-2.7 1 0 1.3.5.8 1.7-.4 1-1.2 3-1.7 4.5-1.4 3.8-3.5 3.5-5.3-.8s-1.9-5.4-.5-5.4c.6 0 1.5 1.2 2.1 2.7zm13.7-1.5c2 2 1.4 3.8-1.3 3.8-1.4 0-2.5.4-2.5 1 0 .5.9 1 2 1s2 .4 2 1c0 1.4-4.3 1.3-5.8-.2-2.6-2.6-.7-7.8 2.8-7.8.9 0 2.1.5 2.8 1.2zm9.2.5c0 .7-.7 1.3-1.5 1.3-1 0-1.5 1-1.5 3s-.5 3-1.5 3c-1.1 0-1.5-1.1-1.5-4.3 0-4.2.1-4.4 3-4.4 1.8 0 3 .6 3 1.4zm11.8.1c.3.9-.3 1.2-1.4 1-1.3-.2-1.9.3-1.9 1.7 0 1.3.6 2 1.8 1.9.9-.1 1.7.4 1.7 1.2 0 1.7-4.1 1.9-5.8.2-.7-.7-1.2-2.2-1.2-3.5 0-3.6 5.7-5.7 6.8-2.5zm8.2-.1c0 .7-.7 1.3-1.5 1.3-1 0-1.5 1-1.5 3s-.5 3-1.5 3c-1.1 0-1.5-1.1-1.5-4.3 0-4.2.1-4.4 3-4.4 1.8 0 3 .6 3 1.4zm7.8-.5c2 2 1.4 3.8-1.3 3.8-1.4 0-2.5.4-2.5 1 0 .5.9 1 2 1s2 .4 2 1c0 1.4-4.3 1.3-5.8-.2-2.6-2.6-.7-7.8 2.8-7.8.9 0 2.1.5 2.8 1.2zm8.6-.6c1.1.4 1.6 1.9 1.6 4.4 0 3.5-.2 3.7-3.2 3.8-1.8 0-3.6-.4-3.9-1-1.1-1.7.1-3.8 2.2-3.8 1 0 1.9-.5 1.9-1.1s-.7-.9-1.5-.5c-1.5.5-2-.5-.8-1.7.8-.9 1.7-.9 3.7-.1zm18 1c2.3 2.2 2 3.4-.9 3.4-1.4 0-2.5.4-2.5 1 0 .5.9 1 2 1s2 .5 2 1.1-1.4.9-3.2.7c-2.8-.2-3.4-.8-3.6-3.1-.6-4.9 3-7.3 6.2-4.1zm13-1c1.1.4 1.6 1.9 1.6 4.4 0 3.8 0 3.8-3.7 3.7-3.1-.2-3.8-.6-3.8-2.2 0-1.3.8-2.1 2.3-2.3 1.2-.2 2.2-.8 2.2-1.4 0-.5-.7-.8-1.5-.5-.8.4-1.7.2-2-.3-.3-.4.1-1.1.7-1.3 1.9-.8 2.4-.8 4.2-.1zm13 0c2.1.8 1 2.5-1.2 1.8-1.1-.4-.9.1.7 1.4 3.2 2.6 2.2 5.2-1.9 5.2-1.6 0-3-.5-3-1 0-.6 1-1 2.3-1h2.2l-2.5-1.9c-2-1.6-2.2-2.1-1.1-3.5 1.5-1.8 2.1-1.9 4.5-1zm9.7.4c1 .6 1.9 2.1 1.9 3.4 0 5.3-7.2 6.4-7.8 1.3-.3-2.8 1.2-5.7 3-5.7.5 0 1.8.5 2.9 1zm9.7.7c.2.8-.5 1.3-1.8 1.3-1.5 0-2 .5-1.8 1.7.2 1 1.1 1.7 2.1 1.7.9-.1 1.7.4 1.7 1.2 0 1.7-4.1 1.9-5.8.2s-1.5-4.4.4-6.3c1.8-1.8 4.5-1.7 5.2.2zm5.2 2.8c0 3.3-.4 4.5-1.5 4.5s-1.5-1.2-1.5-4.5.4-4.5 1.5-4.5 1.5 1.2 1.5 4.5zm8.8-3.3c.7.7 1.2 2.6 1.2 4.4 0 3.1-.2 3.2-3.7 3.1-3.1-.2-3.8-.6-3.8-2.2 0-1.3.8-2.1 2.3-2.3 1.2-.2 2.2-.8 2.2-1.4 0-.5-.7-.8-1.5-.5-1.5.7-2.9-.6-1.8-1.7 1-1 3.8-.7 5.1.6zM73.5 338c.7 1.1-12.2 15-13.9 15-1.5 0-8.6-7.2-8.6-8.7 0-1.9.9-1.6 4.7 1.8l3.5 3 6.3-6c6.7-6.5 7-6.7 8-5.1zm280.5 1.5c0 .8-.6 1.5-1.4 1.5-2.4 0-3 2.1-.7 2.7 2.7.7 2.8 3.3.1 3.3-1.8 0-2 .7-2 5.5s-.2 5.5-2 5.5-2-.7-2-5.4c0-3-.5-5.6-1-5.8-.6-.2-.2-2 1-4.6 1.7-3.5 2.5-4.2 5-4.2 2 0 3 .5 3 1.5zm51 8.5c0 10.2-.7 11.9-3.8 8.8-.9-.9-1.5-.9-2.4 0-3.2 3.2-6.8-.2-6.8-6.3 0-5.1 2.9-8.2 6.1-6.5 2.7 1.5 2.9 1.3 2.9-2.5 0-2.8.4-3.5 2-3.5 1.9 0 2 .7 2 10zm134-8.9c0 .6-.9 1.3-2 1.6-2.3.6-2.7 3.3-.5 3.3a1.54 1.54 0 0 1 1.5 1.5 1.54 1.54 0 0 1-1.5 1.5c-1.2 0-1.5 1.3-1.5 5.5 0 4.8-.2 5.5-2 5.5s-2-.7-2-5.5c0-3-.4-5.5-1-5.5-.5 0-1-.7-1-1.5s.5-1.5 1-1.5c.6 0 1-.8 1-1.8s.5-2.3 1.2-3c1.5-1.5 6.8-1.6 6.8-.1zm18 8.9c0 9.3-.1 10-2 10s-2-.7-2-10 .1-10 2-10 2 .7 2 10zm72 0c0 9.3-.1 10-2 10s-2-.7-2-10 .1-10 2-10 2 .7 2 10zm-102.3-7.6l-3.3 9.1c-2.4 6.8-4.5 9.7-6 8.3-.2-.3 1-4.6 2.8-9.6 2.5-7.2 3.7-9.2 5.1-9.2 1.3 0 1.7.5 1.4 1.4zm19.9 7.8c-2.1 5.9-4 9.4-5 9.6-2.1.5-2.1.1 1.5-10 2.4-6.7 3.6-8.8 5-8.8 1.6 0 1.5.9-1.5 9.2zm125.8-5.7c.3.8 1.2 1.5 2.1 1.5a1.54 1.54 0 0 1 1.5 1.5c0 .8-.9 1.5-2 1.5-1.4 0-2 .7-2 2.4 0 3.5 1 5.6 2.7 5.6 2.4 0 .9 2.5-1.7 2.8-3.1.5-5-2.2-5-6.9 0-2.1-.6-4-1.2-4.3-1-.3-.8-.9.5-1.9.9-.8 1.7-1.9 1.7-2.6 0-1.6 2.7-1.3 3.4.4zM325 344.8c.3.3 0 .7-.7.9s-1 1-.7 1.8c.7 1.8-3.1 5.5-5.6 5.5-1.1 0-2 .4-2 1 0 .5 1.3 1 2.9 1s3.6.3 4.5.6c2.3.9 1.9 5-.6 6.8-2.7 1.9-8.9 2.1-10.6.4s-1.5-4.5.4-5.2c1.3-.5 1.4-.9.5-2-.9-1-.9-1.6-.1-2.1s.8-1.1 0-2c-1.8-2.1-.8-5.8 1.9-7.1 2.2-1.1 8.9-.8 10.1.4zm15.8 2.3c3.6 7-5.3 14.4-10.8 8.9-2-2-2.7-7.4-1.2-9.7 2.4-3.7 9.9-3.2 12 .8zM386 345c1.5 1.5 2 3.3 2 7.5 0 5.2-.1 5.5-2.5 5.5s-2.5-.3-2.5-5.5c0-4.7-.3-5.5-1.9-5.5-2 0-3.1 2.6-3.1 7.7 0 2.6-.4 3.3-2 3.3-1.8 0-2-.7-2-7.1v-7.2l2.8.6c1.5.3 3.4.2 4.2-.4 2.1-1.3 2.8-1.1 5 1.1zm36.5-.7c1.1 0 2.7-.3 3.5-.7 3.1-1.4 5.3 1.8 5.8 8.3.4 6 .4 6.1-2.2 6.1-2.5 0-2.6-.2-2.6-5.5 0-4.7-.3-5.5-1.9-5.5-2 0-3.1 2.6-3.1 7.7 0 2.6-.4 3.3-2 3.3-1.8 0-2-.7-2-5.5 0-4.7-.3-5.5-1.9-5.5-2 0-3.1 2.6-3.1 7.7 0 2.6-.4 3.3-2 3.3-1.8 0-2-.7-2-7.1v-7.2l2.8.6c1.5.3 3.4.2 4.2-.4.8-.5 2.2-.6 3-.2.8.3 2.4.6 3.5.6zm24.8 1.9c.9 1.1 1.7 2.9 1.7 3.9 0 1.6-.8 1.9-4.6 1.9-3.2 0-4.4.4-4.1 1.2.2.7 2 1.3 4 1.3 4.3 0 5.1 2.1 1.2 3.1-6.3 1.6-11.5-3.1-9.9-8.9 1.7-5.6 7.8-7 11.7-2.5zm22.9-2.2c2.2 0-.1 2.5-2.8 3-2.1.4-3 1.2-3.2 2.8-.5 3.2 1.5 5.3 4.4 4.6 1.8-.5 2.4-.2 2.4 1 0 2.3-4.8 3.2-7.9 1.5-2.7-1.5-3.7-5.2-2.7-9.4.6-2.4 5-4.7 7.4-3.9.8.2 1.8.4 2.4.4zm16.6 3.1c3.6 7-5.3 14.4-10.8 8.9-2-2-2.7-7.4-1.2-9.7 2.4-3.7 9.9-3.2 12 .8zm15.5-3c1.8.8 3 .8 4.6-.1 1.8-.9 2.7-.8 4.7.5 2.1 1.3 2.4 2.3 2.4 7.5 0 5.3-.2 6-2 6-1.7 0-2-.7-2-3.9 0-5.2-.8-7.1-3.1-7.1-1.6 0-1.9.8-1.9 5.5 0 5.2-.1 5.5-2.5 5.5s-2.5-.3-2.5-5.5c0-4.8-.2-5.5-2-5.5s-2 .7-2 5.5c0 5.2-.1 5.5-2.5 5.5s-2.5-.2-2.5-7.1v-7.2l2.8.6c1.5.3 3.4.2 4.2-.4 1.8-1.1 1.5-1.1 4.3.2zm70.5 1.7c.6.9 1.2 2.6 1.2 3.9 0 2.1-.5 2.3-4.6 2.3s-4.5.2-3.3 1.6c.8 1 2.3 1.4 4.1 1.2 2.2-.4 2.8-.1 2.6 1.1-.5 2.4-8.7 2-10.5-.4-1.4-2-1.7-7.3-.5-9.2 2.1-3.3 8.5-3.6 11-.5zm16-.6c1.8 1.5 1.6 12.8-.2 12.8-.8 0-1.6-.5-1.8-1-.2-.7-1.4-.6-3.5.2-3.8 1.4-6.3-.1-6.3-3.8 0-2.6 2.6-4.4 6.5-4.4 1.7 0 2.5-.5 2.2-1.3-.2-.6-1.8-1.1-3.6-1.1-2 .1-3.1-.3-3.1-1.1 0-2.5 6.8-2.6 9.8-.3zm15.2-.3c0 1.2-.9 2.1-2.5 2.5-2.2.6-2.5 1.1-2.5 5.6 0 4.7-.2 5-2.5 5-2.4 0-2.5-.2-2.5-7 0-6.3.2-7 2-7 1.1 0 2 .5 2 1.1 0 .5 1 .3 2.2-.5 2.9-2.1 3.8-2 3.8.3zm14.1-.9c1.6.9 1.9 2.2 1.9 7.5 0 5.8-.2 6.5-2 6.5s-2-.7-2-5.5c0-4.7-.3-5.5-1.9-5.5-2.3 0-3.1 1.9-3.1 7.1 0 3.2-.3 3.9-2 3.9-1.8 0-2-.7-2-7.1 0-6.9.1-7.1 2.3-6.6 1.2.3 3.1.1 4.2-.3 2.7-1.1 2.4-1.1 4.6 0zm27.7 3.1c3.6 7-5.3 14.4-10.8 8.9-2-2-2.7-7.4-1.2-9.7 2.4-3.7 9.9-3.2 12 .8zm17 0c3.6 7-5.3 14.4-10.8 8.9-2-2-2.7-7.4-1.2-9.7 2.4-3.7 9.9-3.2 12 .8zM361 348.9c0 2.8.5 5.3 1.2 5.7 1.7 1.1 3.8-2.6 3.8-6.8 0-3.1.4-3.8 2-3.8 1.8 0 2 .7 2 7 0 5.4-.3 7-1.4 7-.8 0-1.7-.4-2-.9-.4-.5-1.9-.4-3.7.2-2.8 1.1-3.3 1-5-1.2-1.3-1.6-1.9-3.9-1.9-7.2 0-4.6.2-4.9 2.5-4.9s2.5.3 2.5 4.9zm-208 2.2c0 1.1.4 1.8.9 1.5.5-.4 1.6-.3 2.5 0 2.2.8 2.3 8.4.1 8.4-1 0-1.5-1-1.5-3 0-1.7-.4-3-1-3-.5 0-1 1.3-1 3 0 2-.5 3-1.5 3-1.2 0-1.5-1.3-1.5-6s.3-6 1.5-6c.8 0 1.5.9 1.5 2.1zm10-1.1c0 .5-.7 1-1.6 1-.8 0-1.2-.5-.9-1 .3-.6 1-1 1.6-1 .5 0 .9.4.9 1zm48 .8c0 1.3.7 1.8 2.3 1.8 1.9-.1 2.2.5 2.5 4.1.3 4.6-1.5 6.1-2 1.6-.4-3.9-2.8-4.2-2.8-.4 0 2.1-.5 3.1-1.5 3.1-1.2 0-1.5-1.3-1.5-6s.3-6 1.5-6c.8 0 1.5.8 1.5 1.8zm-48 5.7c0 3.3-.4 4.5-1.5 4.5s-1.5-1.1-1.5-3.8c0-2.1.3-4.2.7-4.5 1.6-1.6 2.3-.4 2.3 3.8zm8.8-3.3c2 2 1.4 3.8-1.3 3.8-1.4 0-2.5.4-2.5 1 0 .5 1.2 1 2.6 1s2.3.4 1.9 1c-.9 1.4-4.8 1.3-6.3-.2-1.8-1.8-1.5-5.5.6-6.7 2.3-1.4 3.6-1.3 5 .1zm9.2.5c0 .7-.7 1.3-1.5 1.3-1 0-1.5 1-1.5 3s-.5 3-1.5 3c-1.1 0-1.5-1.1-1.5-4.3 0-4.2.1-4.4 3-4.4 1.8 0 3 .6 3 1.4zm7.4-1.1c1.1.4 1.6 1.9 1.6 4.4 0 3.8 0 3.8-3.7 3.7-3.1-.2-3.8-.6-3.8-2.2 0-1.3.8-2.1 2.3-2.3 1.2-.2 2.2-.8 2.2-1.4 0-.5-.7-.8-1.5-.5-.8.4-1.7.2-2-.3-.3-.4.1-1.1.7-1.3 1.9-.8 2.4-.8 4.2-.1zm9.6 1c0 .7-.7 1.4-1.5 1.8-.8.3-1.5 1.7-1.5 3.1 0 1.6-.6 2.5-1.5 2.5-1.1 0-1.5-1.1-1.5-3.8 0-2.1.2-4.1.4-4.3 1-.9 5.6-.3 5.6.7zm7.8.1c.2.8-.5 1.3-1.8 1.3-1.5 0-2 .5-1.8 1.7.2 1 1.1 1.7 2.1 1.7.9-.1 1.7.4 1.7 1.2 0 1.7-4.1 1.9-5.8.2s-1.5-4.4.4-6.3c1.8-1.8 4.5-1.7 5.2.2zm15.3 1l1.1 2.8 1-2.8c.5-1.5 1.6-2.7 2.5-2.7.8 0 1.2.6.9 1.2-.2.7-1 3-1.7 5-1.4 4.4-4.2 7.3-6 6.2-.9-.5-.8-1 .5-2 1.6-1.1 1.6-1.5.2-4.9-1.9-4.4-2-5.5-.6-5.5.6 0 1.5 1.2 2.1 2.7zm234.9 1.4c0 1.4-.5 1.9-1.7 1.7-2.6-.5-2.9-3.8-.4-3.8 1.5 0 2.1.6 2.1 2.1zM527 62c0 4.4 1.6 5.2 4.4 2.4 2.8-2.7 1.2-6.4-2.6-6.4-1.4 0-1.8.8-1.8 4z"/><path d="M484 117.6c0 3.2.2 3.5 2.6 3.2 5.6-.6 5.3-6.8-.2-6.8-2.1 0-2.4.5-2.4 3.6zm52.1 0l-1.7 6.6c-.4 1.5.1 1.8 3.1 1.8 3.6 0 3.6-.1 3-3.2-.4-1.8-1.3-4.8-2-6.7l-1.2-3.5-1.2 5zm49.1 50.6c.2 1.2 1 2.3 1.8 2.3 2.2 0 1.9-3.9-.3-4.3-1.5-.3-1.8.1-1.5 2zm-168.5-4.5c-1.2 1.2-.7 4.3.7 4.3.9 0 1.2-.8.8-2.5-.5-2.7-.6-2.8-1.5-1.8z"/><use xlink:href="#B"/><use xlink:href="#C"/><use xlink:href="#B" x="54"/><path d="M599 166c0 .5.7 1 1.6 1 .8 0 1.2-.5.9-1-.3-.6-1-1-1.6-1-.5 0-.9.4-.9 1zm-43 30.5c0 1.6.6 2.5 1.5 2.5s1.5-.9 1.5-2.5-.6-2.5-1.5-2.5-1.5.9-1.5 2.5z"/><use xlink:href="#D"/><use xlink:href="#E"/><use xlink:href="#D" x="35"/><use xlink:href="#C" x="-33" y="57"/><path d="M581.2 225.2c.2 1.2 1 2.3 1.8 2.3 2.2 0 1.9-3.9-.3-4.3-1.5-.3-1.8.1-1.5 2z"/><use xlink:href="#E" x="-85" y="25"/><use xlink:href="#C" x="3" y="57"/><use xlink:href="#B" x="64" y="57"/><path d="M537.7 223.7c-.4.3-.7 1.5-.7 2.5 0 2.6 2.4 1.7 2.8-1 .3-2.1-.8-2.9-2.1-1.5z"/><use xlink:href="#D" x="87" y="29"/><path d="M607.5 224c-.8 2.7 1 4.9 2.6 3.3 1.3-1.3.8-4.5-.8-5-.6-.2-1.4.6-1.8 1.7z"/><use xlink:href="#F"/><use xlink:href="#G"/><use xlink:href="#H"/><use xlink:href="#H" x="19"/><use xlink:href="#H" x="28" y="3"/><use xlink:href="#H" x="71"/><use xlink:href="#D" x="-301" y="64"/><use xlink:href="#G" x="137"/><path d="M428 252.5c0 .8.5 1.5 1 1.5.6 0 1-.7 1-1.5s-.4-1.5-1-1.5c-.5 0-1 .7-1 1.5zm-1 8.4c0 .6.4 1.2.9 1.5 1.3.8 4.2-.4 3.5-1.5-.7-1.2-4.4-1.2-4.4 0z"/><use xlink:href="#E" x="-80" y="58"/><path d="M474.5 252c-.3.5.3 1 1.5 1s1.8-.5 1.5-1c-.3-.6-1-1-1.5-1s-1.2.4-1.5 1z"/><use xlink:href="#H" x="380" y="5"/><path d="M553.5 252c-.3.5.3 1 1.5 1s1.8-.5 1.5-1c-.3-.6-1-1-1.5-1s-1.2.4-1.5 1zm12.5 4c0 .5.4 1 .9 1 .6 0 1.3-.5 1.6-1 .3-.6-.1-1-.9-1-.9 0-1.6.4-1.6 1z"/><use xlink:href="#D" x="96" y="58"/><use xlink:href="#H" x="19" y="22"/><path d="M175.1 273.6c0 1.1.3 1.4.6.6.3-.7.2-1.6-.1-1.9-.3-.4-.6.2-.5 1.3z"/><use xlink:href="#D" x="-334" y="86"/><use xlink:href="#H" x="48" y="25"/><use xlink:href="#H" x="58" y="22"/><use xlink:href="#D" x="-315" y="86"/><use xlink:href="#H" x="83" y="22"/><path d="M218.5 280c-.3.5.3 1 1.4 1 1.2 0 2.1-.5 2.1-1 0-.6-.6-1-1.4-1s-1.8.4-2.1 1zm362 3.1c-.8 2.3-.1 3.4 1.4 2.4 1.3-.8 1.5-4.5.2-4.5-.5 0-1.3.9-1.6 2.1zm-117.1-1.8c-.3.9-.4 2.4-.2 3.4.3 1.6.5 1.5 1.7-.6.9-1.6 1-2.6.2-3.4-.7-.7-1.2-.6-1.7.6z"/><use xlink:href="#H" x="340" y="30"/><use xlink:href="#B" x="59" y="115"/><path d="M532.7 281.7c-.4.3-.7 1.5-.7 2.5 0 2.6 2.4 1.7 2.8-1 .3-2.1-.8-2.9-2.1-1.5z"/><use xlink:href="#H" x="433" y="30"/><path d="M202 294c0 1.3.5 2 1.3 1.7.6-.2 1.2-1 1.2-1.7s-.6-1.5-1.2-1.8c-.8-.2-1.3.5-1.3 1.8z"/><use xlink:href="#H" x="-16" y="41"/><path d="M140 292c0 .5.5 1 1.1 1 .5 0 .7-.5.4-1-.3-.6-.8-1-1.1-1-.2 0-.4.4-.4 1z"/><use xlink:href="#F" x="-112" y="41"/><path d="M193 292c0 .5.5 1 1.1 1 .5 0 .7-.5.4-1-.3-.6-.8-1-1.1-1-.2 0-.4.4-.4 1z"/><use xlink:href="#H" x="95" y="44"/><path d="M253.7 291.6c-1 1.1-.8 4.4.2 4.4.6 0 1.3-.4 1.6-1 .8-1.2-.9-4.3-1.8-3.4zM503 311.5c0 1.6.6 2.5 1.5 2.5s1.5-.9 1.5-2.5-.6-2.5-1.5-2.5-1.5.9-1.5 2.5z"/><use xlink:href="#H" x="330" y="62"/><use xlink:href="#H" x="354" y="62"/><use xlink:href="#D" x="8" y="115"/><use xlink:href="#F" x="-151" y="63"/><path d="M167.5 315c-.7 1.2.2 3 1.6 3 .5 0 .9-.9.9-2 0-2.1-1.5-2.7-2.5-1z"/><use xlink:href="#H" x="-4" y="63"/><use xlink:href="#G" x="66" y="63"/><use xlink:href="#F" x="-77" y="63"/><use xlink:href="#G" x="90" y="63"/><use xlink:href="#H" x="103" y="66"/><use xlink:href="#H" x="-16" y="82"/><use xlink:href="#H" x="3" y="82"/><use xlink:href="#H" x="40" y="82"/><use xlink:href="#G" x="70" y="82"/><use xlink:href="#H" x="67" y="82"/><use xlink:href="#H" x="80" y="85"/><path d="M238.6 333.6c-.7 1.8 0 3.4 1.5 3.4 1.2 0 1.2-3.7 0-4.4-.5-.3-1.2.1-1.5 1z"/><use xlink:href="#H" x="126" y="85"/><path d="M396.7 347.6c-1.2 1.3-.8 6.2.6 6.7 2.3.9 3.9-.9 3.5-3.9-.3-2.7-2.6-4.3-4.1-2.8zm-80.3-1.3c-.7 2 .1 4.7 1.5 4.7 1.7 0 2.2-3.3.7-4.9-1.4-1.3-1.6-1.3-2.2.2zm-1.7 12.4c-1.2 1.1-.8 2.1 1.2 2.8 2.4.7 5.1-.4 5.1-2.1 0-1.4-5.1-2-6.3-.7z"/><use xlink:href="#I"/><path d="M440.7 346.6c-1.4 1.4-.6 2.4 1.9 2.4 1.6 0 2.4-.5 2.2-1.3-.5-1.4-3.1-2.1-4.1-1.1z"/><use xlink:href="#I" x="146"/><path d="M565.7 347.5c-.5 1.1 0 1.5 1.9 1.5 1.6 0 2.4-.5 2.2-1.3-.7-1.8-3.5-2-4.1-.2zm15.7 4.6c-.9 1.5 1.2 3.3 3 2.6.9-.4 1.6-1.3 1.6-2.2 0-1.7-3.5-2.1-4.6-.4z"/><use xlink:href="#I" x="305"/><use xlink:href="#I" x="322"/><use xlink:href="#H" x="32" y="104"/><use xlink:href="#H" x="49" y="107"/><path d="M36 48.2c0 1.6 8.9 28.7 10.3 31.3.5 1.1 1.2 3.2 1.3 4.7.4 2.7.2 2.8-4.6 2.8h-5v26.9c0 14.9.4 27.2.9 27.5s18.5.3 40-.1l39.1-.6v-26.4V88h12.5c9.2 0 12.5-.3 12.5-1.2 0-.7-3.7-9.9-8.1-20.5L126.7 47H81.4c-35.3 0-45.4.3-45.4 1.2zm59.5 21c-.9 5.1-2.4 8.5-2.5 5.3 0-3.9 1.3-9.5 2.2-9.5.6 0 .7 1.7.3 4.2zM59.9 71c1.3 6.1 1.3 6 .2 6-.5 0-1.2-1.7-1.5-3.8-.4-2-.9-4.5-1.2-5.5-.3-.9-.1-1.7.4-1.7.6 0 1.5 2.3 2.1 5zm18 4.7l-.2 7.8-.9-6.3c-.9-5.8-.7-9.2.7-9.2.3 0 .4 3.5.4 7.7zm33.2 3c-3.8 7.2-4.1 4.6-.4-3.3 1.6-3.5 2.9-5.2 3.1-4.2.2.9-1 4.3-2.7 7.5zM286 90.5V102h3 3V90.5 79h-3-3v11.5zm-87 1V102h7.5c7.3 0 7.5-.1 7.5-2.5 0-2.3-.4-2.5-4-2.5h-4v-8-8h-3.5-3.5v10.5zm134.2-5.7c-1.5 2.2-2 3.8-1.3 4 .6.2 1.1 1.9 1.1 3.7 0 7.2 2.9 10.3 8.4 8.9 3.3-.8 3.8-5.4.6-5.4-1.6 0-2-.7-2-3.5s.4-3.5 2-3.5c1.4 0 2-.7 2-2.1 0-1.2-.8-2.3-2-2.6-1.1-.3-2-1.2-2-1.9 0-2.9-4.5-1.4-6.8 2.4zm-114.2.5c-3.4 1.7-5 7.9-2.9 11.5 2 3.6 6.2 5.5 10.5 4.8 2.7-.6 3.4-1.2 3.4-3.1 0-2.1-.3-2.3-3.4-1.8-1.9.3-3.6.1-4-.6-.5-.7.7-1.1 3.8-1.1 5.4 0 6.1-.9 4.6-5.6-1.7-5-6.8-6.8-12-4.1zm5.7 4.3c-.3.3-1.2.4-1.9.1-.8-.3-.5-.6.6-.6 1.1-.1 1.7.2 1.3.5zm12.1-4.9c-1.9.5-2.2 1.2-1.2 3.7.4 1.1 1.5 1.4 3.7 1 2.9-.4 2.9-.3-.8 1.1-2.1.8-4.3 2.1-4.7 2.8-2.7 4.2 2 10 6.5 8 1.2-.6 3.7-.8 5.5-.6l3.2.5v-6.6c0-5.3-.4-7-2-8.6-1.9-1.9-6-2.4-10.2-1.3zm6.2 10.2c0 1.4-1.8 2.3-3 1.6-.6-.4-.8-1.1-.5-1.6.8-1.2 3.5-1.2 3.5 0zm9.7-10.2c-.4.3-.7 4.2-.7 8.5v7.8h3.4 3.5l.3-5.3c.3-4.4.6-5.2 2.4-5.5 1.4-.2 2.4-1.2 2.7-2.8.6-3.1-1.2-4-4.4-2.3-1.7.9-2.4.9-2.7 0-.4-1.2-3.5-1.5-4.5-.4zm13.3 7.8v8.5h3c2.8 0 3-.2 3-4.1 0-4.5 1.6-8.3 3.1-7.4.5.4.9 3.1.9 6.1v5.4h3.5 3.5v-5.4c0-3-.4-6.6-1-8-1.1-3-5.1-4.3-8.6-2.7-1.5.6-2.4.7-2.4.1s-1.1-1-2.5-1c-2.5 0-2.5.1-2.5 8.5zm31.7-6.5c-5.1 4-4.2 12 1.6 14.8S311 100.6 311 94c0-7.7-7.5-11.6-13.3-7zm7.1 6.1c.3 2.9-1.2 5.4-2.7 4.5-1.2-.8-1.5-5.9-.4-7 1.2-1.2 2.8 0 3.1 2.5zm12.6-6.9c-4.2 2-5.6 8.6-2.8 12.6 4.8 6.9 15.4 3.6 15.4-4.8 0-6.7-6.6-10.8-12.6-7.8zm6 5.4c.8 2.2-.4 6.6-1.8 6.1-1.8-.6-2-7.7-.3-7.7.8 0 1.8.7 2.1 1.6z"/><defs ><path id="B" d="M448.6 165.7c-.9 1-.7 5.3.3 5.3 1.1 0 2.1-4.9 1.1-5.5-.4-.2-1-.2-1.4.2z"/><path id="C" d="M480.7 166.7c-1 1-.8 4.3.2 4.3.9 0 2.1-2.4 2.1-4.1 0-1.1-1.4-1.2-2.3-.2z"/><path id="D" d="M508 194c0 .5.7 1 1.5 1s1.5-.5 1.5-1c0-.6-.7-1-1.5-1s-1.5.4-1.5 1z"/><path id="E" d="M520.5 198c-.3.5.1 1 .9 1 .9 0 1.6-.5 1.6-1 0-.6-.4-1-.9-1-.6 0-1.3.4-1.6 1z"/><path id="F" d="M273 253c0 1.1.5 2 1 2 .6 0 1-.9 1-2s-.4-2-1-2c-.5 0-1 .9-1 2z"/><path id="G" d="M115.5 254c-.3.5-.2 1 .4 1 .5 0 1.3-.5 1.6-1 .3-.6.2-1-.4-1-.5 0-1.3.4-1.6 1z"/><path id="H" d="M136 251a1.08 1.08 0 0 0 1 1c.6 0 1-.5 1-1a.94.94 0 0 0-1-1c-.5 0-1 .4-1 1z"/><path id="I" d="M333.1 347.3c-2.4 2.4-.6 8.5 2.3 7.4 1-.4 1.6-1.8 1.6-4.1 0-3.6-1.9-5.3-3.9-3.3z"/></defs></svg>