<?xml version="1.0" standalone="no"?>
<!DOCTYPE svg PUBLIC "-//W3C//DTD SVG 20010904//EN"
 "http://www.w3.org/TR/2001/REC-SVG-20010904/DTD/svg10.dtd">
<svg version="1.0" xmlns="http://www.w3.org/2000/svg"
 width="720.000000pt" height="405.000000pt" viewBox="0 0 720.000000 405.000000"
 preserveAspectRatio="xMidYMid meet">

<g transform="translate(0.000000,405.000000) scale(0.100000,-0.100000)"
fill="#000000" stroke="none">
<path d="M3600 3100 l0 -950 -1800 0 -1800 0 0 -1075 0 -1075 3600 0 3600 0 0
2025 0 2025 -1800 0 -1800 0 0 -950z m2388 420 c29 0 45 -16 38 -38 -6 -19
-13 -20 -57 -15 -45 5 -49 4 -49 -15 0 -15 13 -28 48 -45 58 -29 76 -61 61
-106 -18 -52 -96 -77 -163 -51 -20 7 -26 16 -26 40 0 26 3 29 18 22 33 -18 79
-21 97 -8 24 17 13 31 -44 61 -51 26 -61 39 -61 86 0 44 63 86 108 73 8 -2 21
-4 30 -4z m-1478 -50 l0 -50 50 0 50 0 0 50 0 50 35 0 35 0 0 -140 0 -140 -35
0 -35 0 0 60 0 60 -50 0 -50 0 0 -60 0 -60 -35 0 -35 0 0 140 0 140 35 0 35 0
0 -50z m400 25 c0 -23 -3 -25 -51 -25 -49 0 -50 -1 -47 -27 3 -25 7 -28 46
-31 37 -3 42 -6 42 -28 0 -22 -4 -24 -45 -24 -43 0 -45 -1 -45 -30 0 -29 1
-30 50 -30 49 0 50 -1 50 -30 l0 -30 -80 0 -80 0 0 140 0 140 80 0 c79 0 80 0
80 -25z m120 -85 l0 -110 55 0 c54 0 55 0 55 -30 l0 -30 -85 0 -85 0 0 140 0
140 30 0 30 0 0 -110z m328 94 c33 -23 45 -60 32 -100 -14 -42 -44 -64 -87
-64 -33 0 -33 0 -33 -50 l0 -50 -35 0 -35 0 0 140 0 140 68 0 c46 0 75 -5 90
-16z m262 -75 c0 -104 9 -129 48 -129 46 0 52 15 52 122 l0 98 36 0 36 0 -4
-110 c-3 -103 -5 -111 -30 -136 -19 -20 -39 -28 -75 -31 -98 -8 -133 40 -133
185 l0 92 35 0 35 0 0 -91z m430 -234 c0 -13 -98 -15 -820 -15 -722 0 -820 2
-820 15 0 13 98 15 820 15 722 0 820 -2 820 -15z m-1335 -247 c2 -2 2 -14 -2
-26 -5 -20 -10 -22 -53 -16 -42 6 -49 4 -64 -17 -22 -32 -21 -112 1 -134 12
-13 28 -16 65 -13 47 5 48 5 48 -23 0 -24 -5 -29 -35 -35 -70 -13 -137 15
-156 64 -15 40 -13 116 4 149 20 39 40 54 80 62 29 7 102 -1 112 -11z m218 1
c50 -22 56 -80 15 -126 l-20 -21 41 -61 42 -61 -40 0 c-37 0 -41 3 -70 55 -17
30 -38 55 -46 55 -11 0 -15 -13 -15 -55 0 -54 0 -55 -30 -55 l-30 0 0 140 0
140 65 0 c35 0 75 -5 88 -11z m277 -14 c0 -23 -3 -25 -51 -25 -49 0 -50 -1
-47 -27 3 -25 7 -28 46 -31 37 -3 42 -6 42 -28 0 -22 -4 -24 -45 -24 -43 0
-45 -1 -45 -30 0 -29 1 -30 50 -30 49 0 50 -1 50 -30 l0 -30 -80 0 -80 0 0
140 0 140 80 0 c79 0 80 0 80 -25z m254 -97 c21 -68 41 -131 43 -140 4 -15 -1
-18 -31 -18 -33 0 -37 3 -42 30 -6 28 -9 30 -56 30 -46 0 -50 -2 -59 -30 -9
-25 -16 -30 -45 -30 -19 0 -34 3 -34 6 0 3 19 66 42 140 l42 134 51 0 51 0 38
-122z m276 97 c0 -22 -4 -25 -35 -25 l-35 0 0 -115 0 -115 -35 0 -35 0 0 115
0 115 -35 0 c-31 0 -35 3 -35 25 l0 25 105 0 105 0 0 -25z m210 0 c0 -23 -4
-25 -46 -25 -44 0 -45 -1 -42 -27 3 -25 7 -28 46 -31 37 -3 42 -6 42 -28 0
-22 -4 -24 -45 -24 -43 0 -45 -1 -45 -30 0 -29 2 -30 45 -30 43 0 45 -1 45
-30 l0 -30 -80 0 -80 0 0 140 0 140 80 0 c79 0 80 0 80 -25z m20 -300 c0 -13
-89 -15 -740 -15 -651 0 -740 2 -740 15 0 13 89 15 740 15 651 0 740 -2 740
-15z m-780 -180 c0 -8 -5 -15 -11 -15 -6 0 -8 -7 -5 -16 3 -8 -1 -22 -8 -30
-8 -8 -18 -35 -22 -60 -7 -50 -25 -74 -55 -74 -22 0 -26 25 -5 33 16 6 38 89
30 111 -3 9 -1 16 5 16 6 0 11 6 11 13 0 19 21 37 42 37 10 0 18 -7 18 -15z
m60 0 c0 -8 -9 -15 -20 -15 -20 0 -26 11 -13 23 12 13 33 7 33 -8z m670 -63
l0 -79 -45 -1 c-48 0 -65 15 -65 57 0 27 35 62 55 55 10 -4 15 0 15 13 0 23 8
33 27 33 10 0 13 -20 13 -78z m-1702 0 c12 -38 22 -71 22 -75 0 -14 -38 -7
-44 8 -3 8 -15 15 -26 15 -11 0 -23 -7 -26 -15 -6 -15 -44 -22 -44 -8 0 4 10
37 22 75 20 61 25 68 48 68 23 0 28 -7 48 -68z m1102 38 c11 -11 20 -22 20
-24 0 -2 -9 -6 -20 -9 -14 -3 -20 -14 -20 -31 0 -14 5 -26 10 -26 6 0 10 -7
10 -16 0 -11 -8 -14 -27 -12 -25 3 -28 7 -29 40 0 21 -3 41 -7 44 -5 5 31 53
41 54 1 0 11 -9 22 -20z m314 -2 c13 -14 15 -23 8 -26 -19 -6 -15 -62 4 -62 9
0 14 -6 12 -12 -3 -7 -18 -13 -34 -13 -26 0 -29 4 -32 35 -2 19 -7 39 -12 44
-8 8 18 55 30 56 3 0 14 -10 24 -22z m626 7 c0 -8 7 -15 15 -15 8 0 15 -4 15
-9 0 -5 -7 -11 -15 -15 -8 -3 -15 -17 -15 -31 0 -16 6 -25 15 -25 8 0 15 -7
15 -15 0 -18 -43 -20 -58 -2 -18 22 -20 89 -3 109 19 22 31 23 31 3z m-1849
-29 c5 -50 -9 -96 -30 -96 -17 0 -18 5 -10 37 4 21 6 39 4 41 -9 10 -23 -11
-29 -43 -5 -26 -12 -35 -27 -35 -15 0 -19 5 -15 18 3 9 8 34 12 55 5 30 10 38
24 34 10 -2 24 -1 30 3 16 10 40 2 41 -14z m110 14 c26 -14 26 -71 0 -94 -28
-25 -75 -18 -79 13 -6 37 6 67 30 79 29 14 26 14 49 2z m139 -5 c8 -10 10 -30
6 -60 -6 -35 -11 -45 -26 -45 -18 0 -19 5 -14 48 5 37 4 45 -6 35 -7 -6 -15
-26 -19 -45 -4 -21 -14 -34 -25 -36 -16 -4 -18 1 -12 35 12 67 17 75 37 70 10
-3 22 -1 25 4 8 13 20 11 34 -6z m205 -15 c3 -10 -1 -35 -10 -55 -12 -31 -19
-37 -39 -33 -20 4 -25 0 -30 -24 -4 -19 -12 -28 -25 -28 -18 0 -18 2 -2 77 15
74 18 78 46 84 38 7 53 2 60 -21z m105 11 c0 -10 -9 -21 -19 -24 -13 -3 -22
-17 -26 -41 -5 -26 -12 -36 -26 -36 -22 0 -22 -4 -8 60 9 42 14 51 29 47 10
-2 24 -1 31 4 19 12 19 12 19 -10z m91 9 c26 -14 26 -71 0 -94 -28 -25 -75
-18 -79 13 -6 37 6 67 30 79 29 14 26 14 49 2z m485 0 c7 0 11 -6 8 -14 -3 -8
-14 -12 -27 -9 -19 4 -18 2 8 -20 25 -21 28 -29 19 -44 -14 -23 -84 -31 -84
-9 0 8 12 16 28 19 26 4 26 5 5 12 -31 10 -40 45 -17 62 10 7 25 11 32 8 8 -3
20 -5 28 -5z m478 0 c19 -7 26 -17 26 -35 0 -21 -5 -25 -30 -25 -16 0 -30 -4
-30 -10 0 -5 14 -10 31 -10 20 0 29 -4 27 -12 -3 -8 -21 -13 -44 -13 -30 0
-41 5 -50 23 -21 41 -5 75 43 91 1 1 13 -3 27 -9z m150 -6 c10 -9 16 -33 16
-60 0 -37 -3 -44 -19 -44 -16 0 -20 8 -23 43 -2 23 -7 42 -13 42 -5 0 -11 -19
-13 -42 -3 -35 -7 -43 -23 -43 -17 0 -19 7 -19 56 0 50 2 56 19 51 10 -2 25
-1 32 4 19 12 25 11 43 -7z m-934 1 c0 -2 -5 -27 -11 -55 -8 -40 -15 -50 -31
-50 -14 0 -18 5 -14 18 3 9 8 34 12 55 4 27 11 37 25 37 11 0 19 -2 19 -5z
m470 -22 c0 -16 4 -34 9 -42 14 -22 31 -3 31 35 0 27 4 34 20 34 18 0 20 -7
20 -54 l0 -54 -52 2 -53 1 -3 53 c-2 42 0 52 12 52 11 0 16 -9 16 -27z m-966
-28 c-4 -8 -17 -15 -30 -15 -15 0 -24 6 -24 15 0 10 10 15 30 15 22 0 28 -4
24 -15z m1616 0 c0 -10 -10 -15 -30 -15 -20 0 -30 5 -30 15 0 10 10 15 30 15
20 0 30 -5 30 -15z m-970 -29 c0 -16 -21 -56 -30 -56 -11 0 -14 43 -3 53 7 8
33 10 33 3z m238 -227 l3 -76 -43 0 c-55 -1 -68 10 -68 58 0 44 30 70 56 48
12 -9 14 -6 14 21 0 25 4 31 18 28 14 -3 17 -16 20 -79z m-288 46 c0 -8 7 -15
15 -15 8 0 15 -4 15 -9 0 -5 -7 -11 -15 -15 -8 -3 -15 -17 -15 -31 0 -16 6
-25 15 -25 8 0 15 -7 15 -15 0 -18 -43 -20 -58 -2 -18 22 -20 89 -3 109 19 22
31 23 31 3z m-428 -15 c5 0 8 -6 6 -12 -3 -7 -13 -13 -24 -13 -14 0 -20 -8
-22 -29 -3 -26 -1 -28 23 -24 20 4 25 2 23 -11 -4 -20 -54 -27 -74 -10 -23 19
-18 75 8 94 13 8 29 13 36 10 8 -3 18 -5 24 -5z m108 -9 c0 -10 -9 -21 -20
-24 -15 -4 -20 -14 -20 -41 0 -29 -4 -36 -20 -36 -18 0 -20 7 -20 56 0 54 1
56 24 52 14 -3 31 -1 38 3 18 12 18 12 18 -10z m118 -9 c22 -28 14 -42 -23
-42 -19 0 -35 -4 -35 -10 0 -5 14 -10 31 -10 38 0 35 -24 -4 -28 -43 -5 -67
14 -67 53 0 58 62 82 98 37z m113 18 c15 -8 19 -21 19 -59 l0 -49 -46 2 c-32
1 -50 6 -57 18 -14 22 7 48 39 48 13 0 24 5 24 11 0 7 -10 9 -25 5 -18 -5 -25
-2 -25 8 0 13 14 21 43 25 5 0 17 -4 28 -9z m227 -6 c12 -8 22 -24 22 -35 0
-15 -7 -19 -35 -19 -19 0 -35 -4 -35 -10 0 -5 14 -10 30 -10 20 0 30 -5 30
-15 0 -21 -64 -20 -84 1 -33 33 -7 104 39 104 6 0 21 -7 33 -16z m-4453 -116
c3 -13 13 -61 24 -108 20 -94 21 -94 48 35 l20 90 34 0 34 0 21 -98 c21 -93
34 -130 34 -94 0 8 9 56 21 106 20 89 21 91 50 91 36 0 36 -1 -2 -155 l-31
-125 -43 0 -42 0 -18 95 c-11 52 -22 92 -26 88 -3 -5 -14 -47 -24 -95 l-18
-88 -42 0 -42 0 -32 133 c-17 72 -31 135 -31 140 0 4 13 7 30 7 23 0 31 -5 35
-22z m525 -3 c0 -23 -4 -25 -46 -25 -44 0 -45 -1 -42 -27 3 -25 7 -28 46 -31
37 -3 42 -6 42 -28 0 -22 -4 -24 -45 -24 -43 0 -45 -1 -45 -30 0 -29 2 -30 45
-30 43 0 45 -1 45 -30 l0 -30 -80 0 -80 0 0 140 0 140 80 0 c79 0 80 0 80 -25z
m215 3 c3 -13 13 -61 24 -108 20 -94 21 -94 48 35 l20 90 34 0 34 0 21 -98
c21 -93 34 -130 34 -94 0 8 9 56 21 106 20 89 21 91 50 91 36 0 36 -1 -2 -155
l-31 -125 -43 0 -42 0 -18 95 c-11 52 -22 92 -26 88 -3 -5 -14 -47 -24 -95
l-18 -88 -42 0 -42 0 -32 133 c-17 72 -31 135 -31 140 0 4 13 7 30 7 23 0 31
-5 35 -22z m435 -118 l0 -140 -35 0 -35 0 0 140 0 140 35 0 35 0 0 -140z m140
30 l0 -110 55 0 c54 0 55 0 55 -30 l0 -30 -90 0 -90 0 0 140 0 140 35 0 35 0
0 -110z m230 0 l0 -110 55 0 c54 0 55 0 55 -30 l0 -30 -85 0 -85 0 0 140 0
140 30 0 30 0 0 -110z m1977 -52 c-3 -13 -10 -49 -17 -80 l-11 -57 -42 2 c-32
2 -43 6 -45 20 -9 48 26 102 59 92 14 -5 19 -1 19 13 0 22 8 32 28 32 10 0 13
-7 9 -22z m523 7 c0 -8 -9 -15 -20 -15 -20 0 -26 11 -13 23 12 13 33 7 33 -8z
m447 -7 c-3 -13 -11 -49 -17 -80 -9 -47 -15 -58 -31 -58 -15 0 -19 5 -15 18 3
9 8 35 12 57 10 61 22 85 40 85 12 0 15 -6 11 -22z m231 5 c2 -8 -5 -13 -17
-13 -12 0 -21 6 -21 16 0 18 31 15 38 -3z m132 -61 l0 -79 -45 -1 c-48 0 -65
15 -65 57 0 27 35 62 55 55 10 -4 15 0 15 13 0 23 8 33 27 33 10 0 13 -20 13
-78z m-900 38 c11 -11 20 -22 20 -24 0 -2 -9 -6 -20 -9 -14 -3 -20 -14 -20
-31 0 -14 5 -26 10 -26 6 0 10 -7 10 -16 0 -11 -8 -14 -27 -12 -25 3 -28 7
-29 40 0 21 -3 41 -7 44 -5 5 31 53 41 54 1 0 11 -9 22 -20z m-570 -36 c0 -17
-9 -28 -32 -38 l-33 -14 28 -1 c41 -1 28 -26 -13 -26 -41 0 -58 23 -44 62 18
52 94 66 94 17z m367 12 c-2 -6 -11 -10 -20 -8 -18 3 -41 -33 -32 -48 3 -6 13
-10 21 -10 8 0 14 -7 14 -15 0 -23 -57 -20 -69 3 -14 27 1 75 28 88 26 13 64
7 58 -10z m77 15 c3 -5 15 -7 26 -4 23 6 23 8 9 -56 l-10 -50 -42 2 c-32 2
-43 6 -45 20 -10 51 41 122 62 88z m307 -1 c26 -14 26 -71 0 -94 -28 -25 -75
-18 -79 13 -6 37 6 67 30 79 29 14 26 14 49 2z m139 -5 c8 -10 10 -30 6 -60
-6 -35 -11 -45 -26 -45 -18 0 -19 5 -14 48 5 37 4 45 -6 35 -7 -6 -15 -26 -19
-45 -4 -21 -14 -34 -25 -36 -16 -4 -18 1 -12 35 12 67 17 75 37 70 10 -3 22
-1 25 4 8 13 20 11 34 -6z m124 4 c16 2 18 -2 12 -36 -13 -69 -14 -71 -56 -71
-44 -1 -56 16 -44 62 7 30 42 59 58 48 6 -3 19 -5 30 -3z m584 -17 c22 -28 14
-42 -23 -42 -19 0 -35 -4 -35 -10 0 -5 14 -10 31 -10 38 0 35 -24 -4 -28 -43
-5 -67 14 -67 53 0 58 62 82 98 37z m130 0 c30 -38 -2 -95 -51 -90 -36 3 -57
34 -49 74 8 43 70 53 100 16z m-1539 -19 c-4 -21 -6 -39 -4 -41 9 -10 23 11
29 43 5 26 12 35 27 35 15 0 19 -5 15 -17 -3 -10 -8 -35 -11 -55 -7 -36 -8
-37 -48 -35 -38 2 -42 5 -45 31 -5 44 6 76 27 76 17 0 18 -5 10 -37z m457 0
c-11 -62 -17 -73 -36 -73 -16 0 -17 5 -9 43 14 61 17 67 35 67 13 0 15 -7 10
-37z m560 20 c15 -46 17 -48 27 -15 7 21 16 32 29 32 15 0 18 -5 12 -22 -32
-107 -61 -117 -91 -33 -20 54 -20 55 -2 55 11 0 22 -8 25 -17z m134 -38 c0
-48 -2 -55 -20 -55 -18 0 -20 7 -20 55 0 48 2 55 20 55 18 0 20 -7 20 -55z
m-3050 -80 c0 -13 -104 -15 -875 -15 -771 0 -875 2 -875 15 0 13 104 15 875
15 771 0 875 -2 875 -15z m2320 -135 c0 -26 3 -29 18 -21 33 17 52 -5 52 -59
0 -38 -4 -50 -15 -50 -10 0 -15 10 -15 29 0 16 -3 37 -6 45 -10 27 -34 -1 -34
-40 0 -27 -4 -34 -20 -34 -18 0 -20 7 -20 73 0 76 4 87 27 87 8 0 13 -12 13
-30z m880 0 c0 -26 3 -29 18 -21 33 17 52 -5 52 -59 0 -38 -4 -50 -15 -50 -10
0 -15 10 -15 29 0 16 -3 37 -6 45 -10 27 -34 -1 -34 -40 0 -27 -4 -34 -20 -34
-18 0 -20 7 -20 73 0 76 4 87 27 87 8 0 13 -12 13 -30z m-4650 -10 c0 -32 14
-40 24 -15 3 8 12 15 21 15 18 0 19 -4 3 -30 -10 -15 -10 -22 0 -32 6 -6 12
-16 12 -20 0 -14 -23 -8 -36 10 -12 16 -13 16 -19 0 -14 -36 -25 -17 -25 42 0
33 4 60 10 60 6 0 10 -13 10 -30z m250 -30 c0 -47 -3 -60 -15 -60 -12 0 -15
13 -15 60 0 47 3 60 15 60 12 0 15 -13 15 -60z m420 50 c0 -5 -7 -10 -15 -10
-8 0 -15 5 -15 10 0 6 7 10 15 10 8 0 15 -4 15 -10z m320 0 c0 -5 -5 -10 -11
-10 -8 0 -8 -4 0 -14 8 -10 9 -16 1 -21 -5 -3 -10 -19 -10 -36 0 -44 -27 -37
-32 9 -7 49 6 82 32 82 11 0 20 -4 20 -10z m540 -49 l0 -58 -37 1 c-34 1 -38
4 -41 29 -4 32 15 60 35 53 8 -3 13 2 13 14 0 11 7 20 15 20 12 0 15 -13 15
-59z m-1749 12 l12 -38 12 35 c8 23 19 36 33 38 20 3 22 -1 22 -52 0 -43 -3
-56 -15 -56 -10 0 -15 11 -16 38 l-1 37 -10 -38 c-12 -44 -38 -47 -49 -7 l-7
25 -1 -27 c-1 -18 -7 -28 -16 -28 -12 0 -15 13 -15 55 0 48 3 55 19 55 14 0
23 -11 32 -37z m3899 22 c0 -8 7 -15 15 -15 8 0 15 -4 15 -9 0 -5 -7 -11 -15
-15 -8 -3 -15 -17 -15 -31 0 -16 6 -25 15 -25 8 0 15 -7 15 -15 0 -18 -43 -20
-58 -2 -18 22 -20 89 -3 109 19 22 31 23 31 3z m374 -7 c13 -14 15 -23 8 -26
-19 -6 -15 -62 4 -62 9 0 14 -6 12 -12 -3 -7 -18 -13 -34 -13 -26 0 -29 4 -32
35 -2 19 -7 39 -12 44 -8 8 18 55 30 56 3 0 14 -10 24 -22z m147 1 c20 -20 20
-23 5 -31 -20 -12 -22 -58 -1 -58 8 0 15 -7 15 -16 0 -11 -8 -14 -27 -12 -24
3 -30 10 -39 48 -9 36 -8 49 4 68 18 27 17 27 43 1z m-4267 -5 c11 -4 16 -19
16 -44 0 -35 -2 -37 -32 -38 -18 0 -36 4 -39 10 -11 17 1 38 22 38 10 0 19 5
19 11 0 6 -7 9 -15 5 -15 -5 -20 5 -8 17 8 9 17 9 37 1z m214 -6 c20 -20 14
-38 -13 -38 -14 0 -25 -4 -25 -10 0 -5 9 -10 20 -10 11 0 20 -4 20 -10 0 -14
-43 -13 -58 2 -26 26 -7 78 28 78 9 0 21 -5 28 -12z m186 -4 c23 -22 20 -34
-9 -34 -14 0 -25 -4 -25 -10 0 -5 9 -10 20 -10 11 0 20 -5 20 -11 0 -6 -14 -9
-32 -7 -28 2 -34 8 -36 31 -6 49 30 73 62 41z m90 10 c11 -4 16 -19 16 -44 0
-38 0 -38 -37 -37 -31 2 -38 6 -38 22 0 13 8 21 23 23 12 2 22 8 22 14 0 5 -7
8 -15 5 -8 -4 -17 -2 -20 3 -3 4 1 11 7 13 19 8 24 8 42 1z m96 -10 c0 -7 -7
-14 -15 -18 -8 -3 -15 -17 -15 -31 0 -16 -6 -25 -15 -25 -11 0 -15 11 -15 38
0 21 2 41 4 43 10 9 56 3 56 -7z m88 3 c18 -12 16 -77 -3 -77 -10 0 -15 10
-15 31 0 38 -24 35 -28 -4 -5 -44 -22 -31 -22 17 0 41 1 44 28 42 15 -1 33 -5
40 -9z m62 -32 c0 -33 -4 -45 -15 -45 -11 0 -15 12 -15 45 0 33 4 45 15 45 11
0 15 -12 15 -45z m98 33 c18 -15 16 -78 -3 -78 -10 0 -15 10 -15 30 0 20 -5
30 -15 30 -10 0 -15 -10 -15 -30 0 -20 -5 -30 -15 -30 -11 0 -15 11 -15 38 0
21 2 41 4 43 9 9 62 7 74 -3z m112 8 c0 -25 -23 -56 -42 -57 -18 -1 -17 -3 7
-8 16 -3 31 -14 33 -23 4 -22 -33 -41 -65 -33 -22 5 -24 10 -18 33 4 15 7 38
6 51 0 14 5 28 11 33 14 8 68 11 68 4z m148 -34 c2 -18 7 -32 12 -32 5 0 10
14 12 32 5 51 28 47 28 -5 l0 -45 -37 1 c-37 2 -38 3 -41 46 -2 32 0 42 10 39
7 -3 14 -19 16 -36z m150 26 c18 -15 16 -78 -3 -78 -10 0 -15 10 -15 30 0 20
-5 30 -15 30 -10 0 -15 -10 -15 -30 0 -20 -5 -30 -15 -30 -11 0 -15 11 -15 38
0 21 2 41 4 43 9 9 62 7 74 -3z m126 6 c11 -4 16 -19 16 -44 0 -35 -2 -37 -32
-38 -18 0 -36 4 -39 10 -11 17 1 38 22 38 10 0 19 5 19 11 0 6 -7 9 -15 5 -15
-5 -20 5 -8 17 8 9 17 9 37 1z m114 -7 c18 -12 16 -77 -3 -77 -10 0 -15 10
-15 31 0 38 -24 35 -28 -4 -5 -44 -22 -31 -22 17 0 41 1 44 28 42 15 -1 33 -5
40 -9z m1680 -3 c2 -1 -2 -15 -10 -31 -8 -17 -23 -29 -38 -32 -23 -3 -22 -4
10 -15 39 -12 49 -36 25 -60 -34 -33 -126 -8 -97 27 14 17 18 49 9 65 -12 18
1 50 21 55 16 4 73 -2 80 -9z m103 6 c15 -8 19 -21 19 -59 l0 -49 -46 2 c-32
1 -50 6 -57 18 -14 22 7 48 39 48 13 0 24 5 24 11 0 7 -10 9 -25 5 -18 -5 -25
-2 -25 8 0 13 14 21 43 25 5 0 17 -4 28 -9z m154 -2 c6 0 17 3 26 6 27 11 49
-20 49 -70 0 -37 -3 -44 -19 -44 -16 0 -20 8 -23 43 -2 23 -7 42 -13 42 -5 0
-11 -19 -13 -42 -3 -34 -7 -43 -22 -43 -15 0 -19 9 -22 43 -2 23 -7 42 -13 42
-5 0 -11 -19 -13 -42 -3 -35 -7 -43 -23 -43 -17 0 -19 7 -19 56 0 50 2 56 19
51 10 -2 25 -1 32 4 8 5 21 6 29 3 8 -4 20 -6 25 -6z m183 -4 c12 -8 22 -24
22 -35 0 -15 -7 -19 -35 -19 -19 0 -35 -4 -35 -10 0 -5 14 -10 30 -10 20 0 30
-5 30 -15 0 -10 -11 -15 -35 -15 -80 0 -84 110 -5 119 3 1 16 -6 28 -15z m413
6 c15 -8 19 -21 19 -60 l0 -49 -47 2 c-46 2 -48 3 -48 32 0 25 4 30 28 33 15
2 27 8 27 13 0 6 -10 9 -22 7 -26 -4 -36 18 -11 25 30 8 33 7 54 -3z m377 -6
c12 -8 22 -24 22 -35 0 -15 -7 -19 -35 -19 -19 0 -35 -4 -35 -10 0 -5 14 -10
30 -10 20 0 30 -5 30 -15 0 -10 -11 -15 -35 -15 -80 0 -84 110 -5 119 3 1 16
-6 28 -15z m126 3 c11 -8 20 -31 23 -59 l5 -46 -53 2 c-49 1 -54 3 -57 25 -4
27 12 41 46 41 14 0 20 4 17 10 -4 6 -16 10 -27 8 -26 -4 -36 19 -11 25 31 8
39 7 57 -6z m120 7 c25 -9 19 -34 -6 -31 -18 2 -23 -3 -23 -23 0 -18 6 -26 23
-28 12 -2 22 -10 22 -18 0 -20 -54 -18 -75 2 -24 25 -16 76 15 91 30 15 25 14
44 7z m264 -10 c12 -8 22 -24 22 -35 0 -15 -7 -19 -35 -19 -19 0 -35 -4 -35
-10 0 -5 14 -10 30 -10 20 0 30 -5 30 -15 0 -21 -64 -20 -84 1 -33 33 -7 104
39 104 6 0 21 -7 33 -16z m118 6 c7 0 11 -6 8 -14 -3 -8 -14 -12 -27 -9 -19 4
-18 2 8 -20 25 -21 28 -29 19 -44 -14 -23 -84 -31 -84 -9 0 8 12 16 28 19 26
4 26 5 5 12 -31 10 -40 45 -17 62 10 7 25 11 32 8 8 -3 20 -5 28 -5z m-5488
-59 c-7 -19 -128 -141 -140 -141 -16 0 -78 61 -78 77 0 21 22 15 52 -14 l29
-27 57 57 c50 50 90 74 80 48z m1322 -131 c0 -5 -7 -10 -15 -10 -8 0 -15 5
-15 10 0 6 7 10 15 10 8 0 15 -4 15 -10z m-456 -36 c23 -22 20 -34 -9 -34 -14
0 -25 -4 -25 -10 0 -5 9 -10 20 -10 11 0 20 -5 20 -11 0 -6 -14 -9 -32 -7 -28
2 -34 8 -36 31 -6 49 30 73 62 41z m104 3 c18 -12 16 -77 -3 -77 -10 0 -15 10
-15 31 0 38 -24 35 -28 -4 -5 -44 -22 -31 -22 17 0 41 1 44 28 42 15 -1 33 -5
40 -9z m112 9 c0 -21 -23 -56 -37 -57 -12 -1 -9 -3 7 -8 35 -10 33 -43 -3 -55
-22 -8 -31 -6 -45 8 -11 12 -13 20 -6 23 6 2 9 19 7 40 -2 23 1 39 9 44 13 9
68 12 68 5z m74 -2 c11 -4 16 -19 16 -44 0 -38 0 -38 -37 -37 -31 2 -38 6 -38
22 0 13 8 21 23 23 12 2 22 8 22 14 0 5 -7 8 -15 5 -8 -4 -17 -2 -20 3 -3 4 1
11 7 13 19 8 24 8 42 1z m116 2 c0 -21 -23 -56 -37 -57 -12 -1 -9 -3 7 -8 32
-9 37 -36 10 -51 -39 -21 -57 -5 -56 48 1 26 5 53 9 60 7 11 67 18 67 8z m48
-44 c2 -33 0 -42 -12 -42 -12 0 -16 11 -16 46 0 59 24 55 28 -4z m100 1 c3
-46 -15 -61 -20 -16 -4 39 -28 42 -28 4 0 -21 -5 -31 -15 -31 -11 0 -15 12
-15 44 l0 43 38 -1 c36 -1 37 -2 40 -43z m105 41 c10 -11 -13 -44 -36 -54 -21
-8 -21 -9 4 -9 43 -1 47 -39 5 -54 -39 -15 -53 0 -51 51 1 27 5 54 9 60 8 13
58 17 69 6z m3227 -36 c0 -12 -8 -52 -25 -125 -3 -14 -13 -23 -24 -23 -18 0
-18 3 -4 68 19 90 20 92 38 92 8 0 15 -6 15 -12z m70 -3 c0 -8 -9 -15 -20 -15
-20 0 -26 11 -13 23 12 13 33 7 33 -8z m339 -12 c0 -16 -6 -50 -12 -78 -11
-47 -14 -50 -47 -53 -41 -4 -62 18 -54 57 7 31 40 62 58 55 8 -3 16 5 20 20 9
36 36 34 35 -1z m-1201 -25 c32 -32 -4 -119 -43 -104 -11 4 -17 -2 -22 -24 -4
-21 -11 -30 -25 -30 -14 0 -18 5 -14 18 3 9 10 45 17 79 10 55 14 62 38 66 14
2 28 5 32 6 3 0 10 -4 17 -11z m126 -1 c26 -19 13 -52 -27 -65 l-32 -10 28 -1
c39 -1 30 -25 -11 -29 -22 -2 -34 2 -41 16 -15 27 1 75 30 89 30 16 31 16 53
0z m116 -6 c0 -10 -9 -21 -19 -24 -13 -3 -22 -17 -26 -41 -5 -26 -12 -36 -26
-36 -22 0 -22 -4 -8 60 9 42 14 51 29 47 10 -2 24 -1 31 4 19 12 19 12 19 -10z
m74 13 c23 -9 20 -24 -6 -24 -20 0 -20 -1 -5 -18 35 -39 17 -72 -39 -72 -35 0
-32 30 4 31 l27 0 -22 16 c-27 18 -30 48 -5 62 20 12 25 13 46 5z m117 -4 c26
-14 26 -71 0 -94 -28 -25 -75 -18 -79 13 -6 37 6 67 30 79 29 14 26 14 49 2z
m149 -34 c0 -49 -11 -76 -30 -76 -15 0 -17 7 -12 46 6 58 -13 53 -23 -6 -5
-30 -11 -40 -26 -40 -22 0 -22 -4 -8 60 9 42 14 51 29 47 10 -2 24 -1 30 3 23
14 40 -1 40 -34z m114 33 c16 2 18 -2 12 -36 -13 -69 -14 -71 -56 -71 -44 -1
-56 16 -44 62 7 30 42 59 58 48 6 -3 19 -5 30 -3z m360 -2 c26 -19 13 -52 -27
-65 l-32 -10 28 -1 c39 -1 30 -25 -11 -29 -22 -2 -34 2 -41 16 -15 27 1 75 30
89 30 16 31 16 53 0z m-204 -2 c0 -2 -5 -27 -11 -55 -8 -40 -15 -50 -31 -50
-14 0 -18 5 -14 18 3 9 8 34 12 55 4 27 11 37 25 37 11 0 19 -2 19 -5z m100
-12 c-5 -10 -17 -28 -26 -40 -15 -21 -15 -23 0 -23 9 0 16 -7 16 -15 0 -11
-12 -15 -45 -15 -25 0 -45 3 -45 7 0 3 11 21 25 39 29 38 30 44 9 44 -8 0 -12
5 -9 10 3 6 24 10 46 10 35 0 39 -2 29 -17z m-3560 -121 l0 -59 -35 -1 c-30
-1 -36 2 -41 25 -8 31 7 59 30 57 10 -1 16 6 16 17 0 11 7 19 15 19 12 0 15
-13 15 -58z m410 48 c0 -5 -7 -10 -16 -10 -8 0 -12 5 -9 10 3 6 10 10 16 10 5
0 9 -4 9 -10z m-1380 -30 c18 -44 30 -46 23 -5 -4 28 -2 35 11 35 13 0 16 -11
16 -55 0 -48 -2 -55 -20 -55 -12 0 -27 13 -39 38 l-20 37 -1 -37 c0 -21 -4
-38 -10 -38 -5 0 -10 25 -10 55 0 47 3 55 19 55 11 0 23 -12 31 -30z m729 6
c8 -10 9 -16 1 -21 -13 -8 -13 -45 0 -45 6 0 10 -5 10 -11 0 -6 -10 -9 -22 -7
-35 5 -48 98 -13 98 7 0 18 -6 24 -14z m597 0 c18 -14 18 -15 2 -21 -22 -9
-23 -34 -3 -41 19 -8 9 -24 -14 -24 -14 0 -20 9 -23 38 -8 61 2 74 38 48z
m-1188 -8 c20 -20 14 -38 -13 -38 -14 0 -25 -4 -25 -10 0 -5 12 -10 26 -10 14
0 23 -4 19 -10 -9 -14 -48 -13 -63 2 -18 18 -15 55 6 67 23 14 36 13 50 -1z
m60 -15 l10 -28 11 28 c10 26 31 38 31 17 0 -25 -30 -80 -44 -80 -8 0 -21 19
-29 45 -13 37 -13 45 -2 45 7 0 18 -12 23 -27z m126 21 c24 -9 20 -44 -4 -44
-11 0 -20 -4 -20 -10 0 -5 9 -10 20 -10 11 0 20 -4 20 -10 0 -19 -59 -11 -70
9 -14 27 -13 37 6 55 17 18 24 19 48 10z m96 -10 c0 -7 -7 -14 -15 -18 -8 -3
-15 -17 -15 -31 0 -16 -6 -25 -15 -25 -11 0 -15 11 -15 38 0 21 2 41 4 43 10
9 56 3 56 -7z m133 -5 c15 -24 0 -69 -23 -69 -13 0 -20 -7 -20 -20 0 -11 -7
-20 -15 -20 -12 0 -15 14 -15 64 l0 64 32 -2 c17 -1 36 -9 41 -17z m55 -17 c2
-18 7 -32 12 -32 5 0 10 14 12 32 5 51 28 47 28 -5 l0 -45 -37 1 c-37 2 -38 3
-41 46 -2 32 0 42 10 39 7 -3 14 -19 16 -36z m246 32 c24 -9 20 -44 -4 -44
-11 0 -20 -4 -20 -10 0 -5 9 -10 20 -10 11 0 20 -4 20 -10 0 -19 -59 -11 -70
9 -14 27 -13 37 6 55 17 18 24 19 48 10z m168 -26 c4 -43 22 -42 26 0 5 46 26
35 30 -15 l3 -41 -38 0 c-42 0 -53 10 -53 49 0 49 27 54 32 7z m138 18 c0 -7
-9 -16 -20 -19 -11 -3 -20 -10 -20 -17 0 -7 9 -14 20 -17 30 -8 24 -25 -7 -21
-22 2 -29 9 -31 31 -2 16 2 35 9 43 15 18 49 18 49 0z m88 2 c7 -7 12 -26 12
-44 0 -31 -2 -32 -37 -31 -31 2 -38 6 -38 22 0 13 8 21 23 23 12 2 22 8 22 14
0 5 -7 8 -15 5 -15 -7 -29 6 -18 17 10 10 38 7 51 -6z m132 -33 c0 -33 -4 -45
-15 -45 -11 0 -15 11 -15 38 0 21 3 42 7 45 16 16 23 4 23 -38z m89 31 c7 -8
11 -27 9 -43 -6 -51 -78 -40 -78 13 0 37 47 57 69 30z m109 2 c18 -15 16 -78
-3 -78 -10 0 -15 10 -15 30 0 20 -5 30 -15 30 -10 0 -15 -10 -15 -30 0 -20 -5
-30 -15 -30 -11 0 -15 11 -15 38 0 21 2 41 4 43 9 9 62 7 74 -3z m-1960 -77
c-7 -19 -128 -141 -140 -141 -16 0 -78 61 -78 77 0 21 22 15 52 -14 l29 -27
57 57 c50 50 90 74 80 48z m4380 -112 l3 -76 -43 0 c-55 -1 -68 10 -68 58 0
44 30 70 56 48 12 -9 14 -6 14 21 0 25 4 31 18 28 14 -3 17 -16 20 -79z m402
66 c0 -8 -9 -15 -20 -15 -20 0 -26 11 -13 23 12 13 33 7 33 -8z m-799 -35 c15
-8 19 -21 19 -60 l0 -49 -47 2 c-46 2 -48 3 -48 32 0 25 4 30 28 33 15 2 27 8
27 13 0 6 -10 9 -22 7 -26 -4 -36 18 -11 25 30 8 33 7 54 -3z m131 0 c5 0 8
-6 6 -12 -3 -7 -13 -13 -24 -13 -14 0 -20 -8 -22 -29 -3 -26 -1 -28 23 -24 20
4 25 2 23 -11 -4 -20 -54 -27 -74 -10 -23 19 -18 75 8 94 13 8 29 13 36 10 8
-3 18 -5 24 -5z m109 0 c15 -8 19 -21 19 -60 l0 -49 -47 2 c-46 2 -48 3 -48
32 0 25 4 30 28 33 15 2 27 8 27 13 0 6 -10 9 -22 7 -26 -4 -36 18 -11 25 30
8 33 7 54 -3z m267 -6 c12 -8 22 -24 22 -35 0 -15 -7 -19 -35 -19 -19 0 -35
-4 -35 -10 0 -5 14 -10 30 -10 20 0 30 -5 30 -15 0 -21 -64 -20 -84 1 -33 33
-7 104 39 104 6 0 21 -7 33 -16z m169 5 c11 6 24 6 35 0 24 -13 26 -109 3
-109 -9 0 -15 9 -15 23 0 12 -3 32 -6 45 -9 33 -34 9 -34 -34 0 -27 -4 -34
-20 -34 -17 0 -20 7 -20 41 0 52 -24 48 -28 -4 -3 -29 -7 -37 -23 -37 -16 0
-19 7 -19 56 0 54 1 56 24 52 14 -3 30 -1 37 3 7 4 21 3 31 -2 12 -6 24 -6 35
0z m242 -5 c8 -7 -12 -25 -24 -20 -18 6 -39 -20 -31 -39 3 -8 17 -15 32 -15
36 0 26 -24 -13 -28 -35 -4 -55 16 -55 55 0 45 58 76 91 47z m92 6 c5 0 9 -4
9 -10 0 -5 -10 -10 -22 -10 -22 0 -22 -1 6 -23 25 -20 27 -26 17 -45 -14 -27
-81 -32 -81 -7 0 10 10 15 28 15 l27 1 -27 15 c-16 8 -28 23 -28 34 0 21 28
42 48 35 8 -3 18 -5 23 -5z m-211 -55 c0 -48 -2 -55 -20 -55 -18 0 -20 7 -20
55 0 48 2 55 20 55 18 0 20 -7 20 -55z m-4280 16 c0 -11 6 -18 16 -17 23 2 38
-26 30 -57 -5 -23 -11 -26 -41 -25 l-35 1 0 59 c0 45 3 58 15 58 8 0 15 -8 15
-19z m190 -2 c0 -15 4 -19 16 -15 25 10 44 -12 44 -50 0 -24 -5 -34 -15 -34
-10 0 -15 10 -15 30 0 17 -5 30 -10 30 -6 0 -13 -13 -16 -30 -11 -51 -24 -33
-24 30 0 33 4 60 10 60 6 0 10 -9 10 -21z m110 11 c0 -5 -7 -10 -15 -10 -8 0
-15 5 -15 10 0 6 7 10 15 10 8 0 15 -4 15 -10z m210 -50 l0 -59 -37 2 c-37 2
-38 3 -38 42 0 35 3 40 23 39 15 0 22 5 22 18 0 10 7 18 15 18 12 0 15 -13 15
-60z m760 0 c0 -47 -3 -60 -15 -60 -12 0 -15 13 -15 60 0 47 3 60 15 60 12 0
15 -13 15 -60z m50 0 c0 -47 -3 -60 -15 -60 -12 0 -15 13 -15 60 0 47 3 60 15
60 12 0 15 -13 15 -60z m-1182 18 c20 -20 14 -38 -13 -38 -14 0 -25 -4 -25
-10 0 -5 9 -10 20 -10 11 0 20 -4 20 -10 0 -14 -43 -13 -58 2 -26 26 -7 78 28
78 9 0 21 -5 28 -12z m162 -33 c0 -33 -4 -45 -15 -45 -11 0 -15 12 -15 45 0
33 4 45 15 45 11 0 15 -12 15 -45z m98 33 c18 -15 16 -78 -3 -78 -10 0 -15 10
-15 30 0 20 -5 30 -15 30 -10 0 -15 -10 -15 -30 0 -20 -5 -30 -15 -30 -11 0
-15 11 -15 38 0 21 2 41 4 43 9 9 62 7 74 -3z m226 6 c11 -4 16 -19 16 -44 0
-35 -2 -37 -32 -38 -18 0 -36 4 -39 10 -11 17 1 38 22 38 10 0 19 5 19 11 0 6
-7 9 -15 5 -15 -5 -20 5 -8 17 8 9 17 9 37 1z m159 -15 c15 -24 0 -69 -23 -69
-13 0 -20 -7 -20 -20 0 -11 -7 -20 -15 -20 -12 0 -15 14 -15 64 l0 64 32 -2
c17 -1 36 -9 41 -17z m81 15 c11 -4 16 -19 16 -44 0 -35 -2 -37 -32 -38 -18 0
-36 4 -39 10 -11 17 1 38 22 38 10 0 19 5 19 11 0 6 -7 9 -15 5 -15 -5 -20 5
-8 17 8 9 17 9 37 1z m67 -21 l11 -28 10 28 c5 15 16 27 25 27 8 0 12 -6 9
-12 -2 -7 -10 -30 -17 -50 -14 -44 -42 -73 -60 -62 -9 5 -8 10 5 20 16 11 16
15 2 49 -19 44 -20 55 -6 55 6 0 15 -12 21 -27z m96 0 l7 -28 6 25 c7 32 40
40 40 11 0 -12 5 -21 10 -21 6 0 10 9 10 20 0 11 7 20 16 20 10 0 14 -6 10
-17 -3 -10 -8 -30 -12 -45 -8 -38 -44 -39 -44 -2 0 14 -4 23 -10 19 -5 -3 -10
-15 -10 -26 0 -10 -7 -19 -15 -19 -16 0 -35 38 -35 71 0 29 19 23 27 -8z m181
15 c7 -7 12 -26 12 -44 0 -31 -2 -32 -37 -31 -31 2 -38 6 -38 22 0 13 8 21 23
23 12 2 22 8 22 14 0 5 -7 8 -15 5 -15 -7 -29 6 -18 17 10 10 38 7 51 -6z
m3352 -34 c0 -14 -21 -19 -33 -7 -9 9 13 34 24 27 5 -3 9 -12 9 -20z m-3210
-124 c0 -5 -7 -10 -15 -10 -8 0 -15 5 -15 10 0 6 7 10 15 10 8 0 15 -4 15 -10z
m150 -50 c0 -47 -3 -60 -15 -60 -12 0 -15 13 -15 60 0 47 3 60 15 60 12 0 15
-13 15 -60z m-1621 13 l20 -38 1 38 c0 26 4 37 15 37 12 0 15 -13 15 -55 0
-51 -2 -55 -23 -55 -16 0 -28 10 -40 33 l-16 32 0 -32 c-1 -22 -6 -33 -16 -33
-12 0 -15 13 -15 55 0 48 2 55 20 55 12 0 27 -13 39 -37z m865 21 c17 -7 22
-34 6 -34 -5 0 -10 -9 -10 -20 0 -11 5 -20 10 -20 6 0 10 -5 10 -11 0 -6 -10
-9 -22 -7 -16 2 -24 12 -29 38 -5 20 -3 40 3 47 12 15 11 15 32 7z m-730 -20
c23 -22 20 -34 -9 -34 -14 0 -25 -4 -25 -10 0 -5 9 -10 20 -10 11 0 20 -5 20
-11 0 -6 -14 -9 -32 -7 -28 2 -34 8 -36 31 -6 49 30 73 62 41z m57 -11 l11
-28 10 28 c5 15 17 27 25 27 10 0 13 -5 8 -17 -4 -10 -12 -30 -17 -45 -14 -38
-35 -35 -53 8 -18 43 -19 54 -5 54 6 0 15 -12 21 -27z m137 15 c20 -20 14 -38
-13 -38 -14 0 -25 -4 -25 -10 0 -5 9 -10 20 -10 11 0 20 -4 20 -10 0 -14 -43
-13 -58 2 -26 26 -7 78 28 78 9 0 21 -5 28 -12z m92 -5 c0 -7 -7 -13 -15 -13
-10 0 -15 -10 -15 -30 0 -20 -5 -30 -15 -30 -11 0 -15 11 -15 43 0 42 1 44 30
44 18 0 30 -6 30 -14z m118 -1 c3 -9 -3 -12 -14 -10 -13 2 -19 -3 -19 -17 0
-13 6 -20 18 -19 9 1 17 -4 17 -12 0 -17 -41 -19 -58 -2 -7 7 -12 22 -12 35 0
36 57 57 68 25z m82 1 c0 -7 -7 -13 -15 -13 -10 0 -15 -10 -15 -30 0 -20 -5
-30 -15 -30 -11 0 -15 11 -15 43 0 42 1 44 30 44 18 0 30 -6 30 -14z m78 5
c20 -20 14 -38 -13 -38 -14 0 -25 -4 -25 -10 0 -5 9 -10 20 -10 11 0 20 -4 20
-10 0 -14 -43 -13 -58 2 -26 26 -7 78 28 78 9 0 21 -5 28 -12z m86 6 c11 -4
16 -19 16 -44 0 -35 -2 -37 -32 -38 -18 0 -36 4 -39 10 -11 17 1 38 22 38 10
0 19 5 19 11 0 6 -7 9 -15 5 -15 -5 -20 5 -8 17 8 9 17 9 37 1z m180 -10 c23
-22 20 -34 -9 -34 -14 0 -25 -4 -25 -10 0 -5 9 -10 20 -10 11 0 20 -5 20 -11
0 -6 -14 -9 -32 -7 -28 2 -34 8 -36 31 -6 49 30 73 62 41z m130 10 c11 -4 16
-19 16 -44 0 -38 0 -38 -37 -37 -31 2 -38 6 -38 22 0 13 8 21 23 23 12 2 22 8
22 14 0 5 -7 8 -15 5 -8 -4 -17 -2 -20 3 -3 4 1 11 7 13 19 8 24 8 42 1z m130
0 c21 -8 10 -25 -12 -18 -11 4 -9 -1 7 -14 32 -26 22 -52 -19 -52 -16 0 -30 5
-30 10 0 6 10 10 23 10 l22 0 -25 19 c-20 16 -22 21 -11 35 15 18 21 19 45 10z
m97 -4 c10 -6 19 -21 19 -34 0 -53 -72 -64 -78 -13 -3 28 12 57 30 57 5 0 18
-5 29 -10z m97 -7 c2 -8 -5 -13 -18 -13 -15 0 -20 -5 -18 -17 2 -10 11 -17 21
-17 9 1 17 -4 17 -12 0 -17 -41 -19 -58 -2 -17 17 -15 44 4 63 18 18 45 17 52
-2z m52 -28 c0 -33 -4 -45 -15 -45 -11 0 -15 12 -15 45 0 33 4 45 15 45 11 0
15 -12 15 -45z m88 33 c7 -7 12 -26 12 -44 0 -31 -2 -32 -37 -31 -31 2 -38 6
-38 22 0 13 8 21 23 23 12 2 22 8 22 14 0 5 -7 8 -15 5 -15 -7 -29 6 -18 17
10 10 38 7 51 -6z m-1923 -68 c7 -11 -122 -150 -139 -150 -15 0 -86 72 -86 87
0 19 9 16 47 -18 l35 -30 63 60 c67 65 70 67 80 51z m2805 -15 c0 -8 -6 -15
-14 -15 -24 0 -30 -21 -7 -27 27 -7 28 -33 1 -33 -18 0 -20 -7 -20 -55 0 -48
-2 -55 -20 -55 -18 0 -20 7 -20 54 0 30 -5 56 -10 58 -6 2 -2 20 10 46 17 35
25 42 50 42 20 0 30 -5 30 -15z m510 -85 c0 -102 -7 -119 -38 -88 -9 9 -15 9
-24 0 -32 -32 -68 2 -68 63 0 51 29 82 61 65 27 -15 29 -13 29 25 0 28 4 35
20 35 19 0 20 -7 20 -100z m1340 89 c0 -6 -9 -13 -20 -16 -23 -6 -27 -33 -5
-33 8 0 15 -7 15 -15 0 -8 -7 -15 -15 -15 -12 0 -15 -13 -15 -55 0 -48 -2 -55
-20 -55 -18 0 -20 7 -20 55 0 30 -4 55 -10 55 -5 0 -10 7 -10 15 0 8 5 15 10
15 6 0 10 8 10 18 0 10 5 23 12 30 15 15 68 16 68 1z m180 -89 c0 -93 -1 -100
-20 -100 -19 0 -20 7 -20 100 0 93 1 100 20 100 19 0 20 -7 20 -100z m720 0
c0 -93 -1 -100 -20 -100 -19 0 -20 7 -20 100 0 93 1 100 20 100 19 0 20 -7 20
-100z m-1023 76 c-3 -8 -18 -49 -33 -91 -24 -68 -45 -97 -60 -83 -2 3 10 46
28 96 25 72 37 92 51 92 13 0 17 -5 14 -14z m199 -78 c-21 -59 -40 -94 -50
-96 -21 -5 -21 -1 15 100 24 67 36 88 50 88 16 0 15 -9 -15 -92z m1258 57 c3
-8 12 -15 21 -15 8 0 15 -7 15 -15 0 -8 -9 -15 -20 -15 -14 0 -20 -7 -20 -24
0 -35 10 -56 27 -56 24 0 9 -25 -17 -28 -31 -5 -50 22 -50 69 0 21 -6 40 -12
43 -10 3 -8 9 5 19 9 8 17 19 17 26 0 16 27 13 34 -4z m-3474 -23 c3 -3 0 -7
-7 -9 -7 -2 -10 -10 -7 -18 7 -18 -31 -55 -56 -55 -11 0 -20 -4 -20 -10 0 -5
13 -10 29 -10 16 0 36 -3 45 -6 23 -9 19 -50 -6 -68 -27 -19 -89 -21 -106 -4
-17 17 -15 45 4 52 13 5 14 9 5 20 -9 10 -9 16 -1 21 8 5 8 11 0 20 -18 21 -8
58 19 71 22 11 89 8 101 -4z m158 -23 c36 -70 -53 -144 -108 -89 -20 20 -27
74 -12 97 24 37 99 32 120 -8z m452 21 c15 -15 20 -33 20 -75 0 -52 -1 -55
-25 -55 -24 0 -25 3 -25 55 0 47 -3 55 -19 55 -20 0 -31 -26 -31 -77 0 -26 -4
-33 -20 -33 -18 0 -20 7 -20 71 l0 72 28 -6 c15 -3 34 -2 42 4 21 13 28 11 50
-11z m365 7 c11 0 27 3 35 7 31 14 53 -18 58 -83 4 -60 4 -61 -22 -61 -25 0
-26 2 -26 55 0 47 -3 55 -19 55 -20 0 -31 -26 -31 -77 0 -26 -4 -33 -20 -33
-18 0 -20 7 -20 55 0 47 -3 55 -19 55 -20 0 -31 -26 -31 -77 0 -26 -4 -33 -20
-33 -18 0 -20 7 -20 71 l0 72 28 -6 c15 -3 34 -2 42 4 8 5 22 6 30 2 8 -3 24
-6 35 -6z m248 -19 c9 -11 17 -29 17 -39 0 -16 -8 -19 -46 -19 -32 0 -44 -4
-41 -12 2 -7 20 -13 40 -13 43 0 51 -21 12 -31 -63 -16 -115 31 -99 89 17 56
78 70 117 25z m229 22 c22 0 -1 -25 -28 -30 -21 -4 -30 -12 -32 -28 -5 -32 15
-53 44 -46 18 5 24 2 24 -10 0 -23 -48 -32 -79 -15 -27 15 -37 52 -27 94 6 24
50 47 74 39 8 -2 18 -4 24 -4z m166 -31 c36 -70 -53 -144 -108 -89 -20 20 -27
74 -12 97 24 37 99 32 120 -8z m155 30 c18 -8 30 -8 46 1 18 9 27 8 47 -5 21
-13 24 -23 24 -75 0 -53 -2 -60 -20 -60 -17 0 -20 7 -20 39 0 52 -8 71 -31 71
-16 0 -19 -8 -19 -55 0 -52 -1 -55 -25 -55 -24 0 -25 3 -25 55 0 48 -2 55 -20
55 -18 0 -20 -7 -20 -55 0 -52 -1 -55 -25 -55 -24 0 -25 2 -25 71 l0 72 28 -6
c15 -3 34 -2 42 4 18 11 15 11 43 -2z m705 -17 c6 -9 12 -26 12 -39 0 -21 -5
-23 -46 -23 -41 0 -45 -2 -33 -16 8 -10 23 -14 41 -12 22 4 28 1 26 -11 -5
-24 -87 -20 -105 4 -14 20 -17 73 -5 92 21 33 85 36 110 5z m160 6 c18 -15 16
-128 -2 -128 -8 0 -16 5 -18 10 -2 7 -14 6 -35 -2 -38 -14 -63 1 -63 38 0 26
26 44 65 44 17 0 25 5 22 13 -2 6 -18 11 -36 11 -20 -1 -31 3 -31 11 0 25 68
26 98 3z m152 3 c0 -12 -9 -21 -25 -25 -22 -6 -25 -11 -25 -56 0 -47 -2 -50
-25 -50 -24 0 -25 2 -25 70 0 63 2 70 20 70 11 0 20 -5 20 -11 0 -5 10 -3 22
5 29 21 38 20 38 -3z m141 9 c16 -9 19 -22 19 -75 0 -58 -2 -65 -20 -65 -18 0
-20 7 -20 55 0 47 -3 55 -19 55 -23 0 -31 -19 -31 -71 0 -32 -3 -39 -20 -39
-18 0 -20 7 -20 71 0 69 1 71 23 66 12 -3 31 -1 42 3 27 11 24 11 46 0z m277
-31 c36 -70 -53 -144 -108 -89 -20 20 -27 74 -12 97 24 37 99 32 120 -8z m170
0 c36 -70 -53 -144 -108 -89 -20 20 -27 74 -12 97 24 37 99 32 120 -8z m-3018
-18 c0 -28 5 -53 12 -57 17 -11 38 26 38 68 0 31 4 38 20 38 18 0 20 -7 20
-70 0 -54 -3 -70 -14 -70 -8 0 -17 4 -20 9 -4 5 -19 4 -37 -2 -28 -11 -33 -10
-50 12 -13 16 -19 39 -19 72 0 46 2 49 25 49 23 0 25 -3 25 -49z m-2080 -22
c0 -11 4 -18 9 -15 5 4 16 3 25 0 22 -8 23 -84 1 -84 -10 0 -15 10 -15 30 0
17 -4 30 -10 30 -5 0 -10 -13 -10 -30 0 -20 -5 -30 -15 -30 -12 0 -15 13 -15
60 0 47 3 60 15 60 8 0 15 -9 15 -21z m100 11 c0 -5 -7 -10 -16 -10 -8 0 -12
5 -9 10 3 6 10 10 16 10 5 0 9 -4 9 -10z m480 -8 c0 -13 7 -18 23 -18 19 1 22
-5 25 -41 3 -46 -15 -61 -20 -16 -4 39 -28 42 -28 4 0 -21 -5 -31 -15 -31 -12
0 -15 13 -15 60 0 47 3 60 15 60 8 0 15 -8 15 -18z m-480 -57 c0 -33 -4 -45
-15 -45 -11 0 -15 11 -15 38 0 21 3 42 7 45 16 16 23 4 23 -38z m88 33 c20
-20 14 -38 -13 -38 -14 0 -25 -4 -25 -10 0 -5 12 -10 26 -10 14 0 23 -4 19
-10 -9 -14 -48 -13 -63 2 -18 18 -15 55 6 67 23 14 36 13 50 -1z m92 -5 c0 -7
-7 -13 -15 -13 -10 0 -15 -10 -15 -30 0 -20 -5 -30 -15 -30 -11 0 -15 11 -15
43 0 42 1 44 30 44 18 0 30 -6 30 -14z m74 11 c11 -4 16 -19 16 -44 0 -38 0
-38 -37 -37 -31 2 -38 6 -38 22 0 13 8 21 23 23 12 2 22 8 22 14 0 5 -7 8 -15
5 -8 -4 -17 -2 -20 3 -3 4 1 11 7 13 19 8 24 8 42 1z m96 -10 c0 -7 -7 -14
-15 -18 -8 -3 -15 -17 -15 -31 0 -16 -6 -25 -15 -25 -11 0 -15 11 -15 38 0 21
2 41 4 43 10 9 56 3 56 -7z m78 -1 c2 -8 -5 -13 -18 -13 -15 0 -20 -5 -18 -17
2 -10 11 -17 21 -17 9 1 17 -4 17 -12 0 -17 -41 -19 -58 -2 -17 17 -15 44 4
63 18 18 45 17 52 -2z m153 -10 l11 -28 10 28 c5 15 16 27 25 27 8 0 12 -6 9
-12 -2 -7 -10 -30 -17 -50 -14 -44 -42 -73 -60 -62 -9 5 -8 10 5 20 16 11 16
15 2 49 -19 44 -20 55 -6 55 6 0 15 -12 21 -27z m2349 -14 c0 -14 -5 -19 -17
-17 -26 5 -29 38 -4 38 15 0 21 -6 21 -21z"/>
<path d="M5270 3430 c0 -44 16 -52 44 -24 28 27 12 64 -26 64 -14 0 -18 -8
-18 -40z"/>
<path d="M4840 2874 c0 -32 2 -35 26 -32 56 6 53 68 -2 68 -21 0 -24 -5 -24
-36z"/>
<path d="M5361 2874 c-6 -27 -14 -57 -17 -66 -4 -15 1 -18 31 -18 36 0 36 1
30 32 -4 18 -13 48 -20 67 l-12 35 -12 -50z"/>
<path d="M5852 2368 c2 -12 10 -23 18 -23 22 0 19 39 -3 43 -15 3 -18 -1 -15
-20z"/>
<path d="M4167 2413 c-12 -12 -7 -43 7 -43 9 0 12 8 8 25 -5 27 -6 28 -15 18z"/>
<path d="M4486 2393 c-9 -10 -7 -53 3 -53 11 0 21 49 11 55 -4 2 -10 2 -14 -2z"/>
<path d="M4807 2383 c-10 -10 -8 -43 2 -43 9 0 21 24 21 41 0 11 -14 12 -23 2z"/>
<path d="M5026 2393 c-9 -10 -7 -53 3 -53 11 0 21 49 11 55 -4 2 -10 2 -14 -2z"/>
<path d="M5990 2390 c0 -5 7 -10 16 -10 8 0 12 5 9 10 -3 6 -10 10 -16 10 -5
0 -9 -4 -9 -10z"/>
<path d="M5560 2085 c0 -16 6 -25 15 -25 9 0 15 9 15 25 0 16 -6 25 -15 25 -9
0 -15 -9 -15 -25z"/>
<path d="M5080 2110 c0 -5 7 -10 15 -10 8 0 15 5 15 10 0 6 -7 10 -15 10 -8 0
-15 -4 -15 -10z"/>
<path d="M5205 2070 c-3 -5 1 -10 9 -10 9 0 16 5 16 10 0 6 -4 10 -9 10 -6 0
-13 -4 -16 -10z"/>
<path d="M5430 2110 c0 -5 7 -10 15 -10 8 0 15 5 15 10 0 6 -7 10 -15 10 -8 0
-15 -4 -15 -10z"/>
<path d="M4477 1813 c-10 -10 -8 -43 2 -43 9 0 21 24 21 41 0 11 -14 12 -23 2z"/>
<path d="M5812 1798 c2 -12 10 -23 18 -23 22 0 19 39 -3 43 -15 3 -18 -1 -15
-20z"/>
<path d="M4355 1820 c-3 -5 1 -10 9 -10 9 0 16 5 16 10 0 6 -4 10 -9 10 -6 0
-13 -4 -16 -10z"/>
<path d="M4837 1813 c-10 -10 -8 -43 2 -43 9 0 21 24 21 41 0 11 -14 12 -23 2z"/>
<path d="M5126 1823 c-9 -10 -7 -53 3 -53 11 0 21 49 11 55 -4 2 -10 2 -14 -2z"/>
<path d="M5377 1813 c-4 -3 -7 -15 -7 -25 0 -26 24 -17 28 10 3 21 -8 29 -21
15z"/>
<path d="M5950 1820 c0 -5 7 -10 15 -10 8 0 15 5 15 10 0 6 -7 10 -15 10 -8 0
-15 -4 -15 -10z"/>
<path d="M6075 1810 c-8 -27 10 -49 26 -33 13 13 8 45 -8 50 -6 2 -14 -6 -18
-17z"/>
<path d="M2730 1520 c0 -11 5 -20 10 -20 6 0 10 9 10 20 0 11 -4 20 -10 20 -5
0 -10 -9 -10 -20z"/>
<path d="M1155 1510 c-3 -5 -2 -10 4 -10 5 0 13 5 16 10 3 6 2 10 -4 10 -5 0
-13 -4 -16 -10z"/>
<path d="M1360 1540 c0 -5 5 -10 10 -10 6 0 10 5 10 10 0 6 -4 10 -10 10 -5 0
-10 -4 -10 -10z"/>
<path d="M1550 1540 c0 -5 5 -10 10 -10 6 0 10 5 10 10 0 6 -4 10 -10 10 -5 0
-10 -4 -10 -10z"/>
<path d="M1640 1510 c0 -5 5 -10 10 -10 6 0 10 5 10 10 0 6 -4 10 -10 10 -5 0
-10 -4 -10 -10z"/>
<path d="M2070 1540 c0 -5 5 -10 10 -10 6 0 10 5 10 10 0 6 -4 10 -10 10 -5 0
-10 -4 -10 -10z"/>
<path d="M2070 1470 c0 -5 7 -10 15 -10 8 0 15 5 15 10 0 6 -7 10 -15 10 -8 0
-15 -4 -15 -10z"/>
<path d="M2525 1510 c-3 -5 -2 -10 4 -10 5 0 13 5 16 10 3 6 2 10 -4 10 -5 0
-13 -4 -16 -10z"/>
<path d="M4280 1525 c0 -8 5 -15 10 -15 6 0 10 7 10 15 0 8 -4 15 -10 15 -5 0
-10 -7 -10 -15z"/>
<path d="M4270 1441 c0 -6 4 -12 9 -15 13 -8 42 4 35 15 -7 12 -44 12 -44 0z"/>
<path d="M4405 1490 c-3 -5 1 -10 9 -10 9 0 16 5 16 10 0 6 -4 10 -9 10 -6 0
-13 -4 -16 -10z"/>
<path d="M4745 1530 c-3 -5 3 -10 15 -10 12 0 18 5 15 10 -3 6 -10 10 -15 10
-5 0 -12 -4 -15 -10z"/>
<path d="M5160 1490 c0 -5 5 -10 10 -10 6 0 10 5 10 10 0 6 -4 10 -10 10 -5 0
-10 -4 -10 -10z"/>
<path d="M5535 1530 c-3 -5 3 -10 15 -10 12 0 18 5 15 10 -3 6 -10 10 -15 10
-5 0 -12 -4 -15 -10z"/>
<path d="M5660 1490 c0 -5 4 -10 9 -10 6 0 13 5 16 10 3 6 -1 10 -9 10 -9 0
-16 -4 -16 -10z"/>
<path d="M6040 1530 c0 -5 7 -10 15 -10 8 0 15 5 15 10 0 6 -7 10 -15 10 -8 0
-15 -4 -15 -10z"/>
<path d="M1550 1320 c0 -5 5 -10 10 -10 6 0 10 5 10 10 0 6 -4 10 -10 10 -5 0
-10 -4 -10 -10z"/>
<path d="M1751 1314 c0 -11 3 -14 6 -6 3 7 2 16 -1 19 -3 4 -6 -2 -5 -13z"/>
<path d="M1740 1250 c0 -5 7 -10 15 -10 8 0 15 5 15 10 0 6 -7 10 -15 10 -8 0
-15 -4 -15 -10z"/>
<path d="M1840 1290 c0 -5 5 -10 10 -10 6 0 10 5 10 10 0 6 -4 10 -10 10 -5 0
-10 -4 -10 -10z"/>
<path d="M1940 1320 c0 -5 5 -10 10 -10 6 0 10 5 10 10 0 6 -4 10 -10 10 -5 0
-10 -4 -10 -10z"/>
<path d="M1930 1250 c0 -5 7 -10 15 -10 8 0 15 5 15 10 0 6 -7 10 -15 10 -8 0
-15 -4 -15 -10z"/>
<path d="M2190 1320 c0 -5 5 -10 10 -10 6 0 10 5 10 10 0 6 -4 10 -10 10 -5 0
-10 -4 -10 -10z"/>
<path d="M2185 1250 c-3 -5 3 -10 14 -10 12 0 21 5 21 10 0 6 -6 10 -14 10 -8
0 -18 -4 -21 -10z"/>
<path d="M5805 1219 c-8 -23 -1 -34 14 -24 13 8 15 45 2 45 -5 0 -13 -9 -16
-21z"/>
<path d="M4634 1237 c-3 -9 -4 -24 -2 -34 3 -16 5 -15 17 6 9 16 10 26 2 34
-7 7 -12 6 -17 -6z"/>
<path d="M4760 1240 c0 -5 5 -10 10 -10 6 0 10 5 10 10 0 6 -4 10 -10 10 -5 0
-10 -4 -10 -10z"/>
<path d="M5076 1243 c-9 -10 -7 -53 3 -53 11 0 21 49 11 55 -4 2 -10 2 -14 -2z"/>
<path d="M5327 1233 c-4 -3 -7 -15 -7 -25 0 -26 24 -17 28 10 3 21 -8 29 -21
15z"/>
<path d="M5690 1240 c0 -5 5 -10 10 -10 6 0 10 5 10 10 0 6 -4 10 -10 10 -5 0
-10 -4 -10 -10z"/>
<path d="M2020 1110 c0 -13 5 -20 13 -17 6 2 12 10 12 17 0 7 -6 15 -12 18 -8
2 -13 -5 -13 -18z"/>
<path d="M1200 1130 c0 -5 5 -10 10 -10 6 0 10 5 10 10 0 6 -4 10 -10 10 -5 0
-10 -4 -10 -10z"/>
<path d="M1400 1130 c0 -5 5 -10 11 -10 5 0 7 5 4 10 -3 6 -8 10 -11 10 -2 0
-4 -4 -4 -10z"/>
<path d="M1610 1110 c0 -11 5 -20 10 -20 6 0 10 9 10 20 0 11 -4 20 -10 20 -5
0 -10 -9 -10 -20z"/>
<path d="M1930 1130 c0 -5 5 -10 11 -10 5 0 7 5 4 10 -3 6 -8 10 -11 10 -2 0
-4 -4 -4 -10z"/>
<path d="M2310 1100 c0 -5 5 -10 10 -10 6 0 10 5 10 10 0 6 -4 10 -10 10 -5 0
-10 -4 -10 -10z"/>
<path d="M2537 1134 c-10 -11 -8 -44 2 -44 6 0 13 4 16 10 8 12 -9 43 -18 34z"/>
<path d="M5030 935 c0 -16 6 -25 15 -25 9 0 15 9 15 25 0 16 -6 25 -15 25 -9
0 -15 -9 -15 -25z"/>
<path d="M4660 920 c0 -5 5 -10 10 -10 6 0 10 5 10 10 0 6 -4 10 -10 10 -5 0
-10 -4 -10 -10z"/>
<path d="M4900 920 c0 -5 5 -10 10 -10 6 0 10 5 10 10 0 6 -4 10 -10 10 -5 0
-10 -4 -10 -10z"/>
<path d="M5160 960 c0 -5 7 -10 15 -10 8 0 15 5 15 10 0 6 -7 10 -15 10 -8 0
-15 -4 -15 -10z"/>
<path d="M1220 890 c0 -11 5 -20 10 -20 6 0 10 9 10 20 0 11 -4 20 -10 20 -5
0 -10 -9 -10 -20z"/>
<path d="M1675 900 c-7 -12 2 -30 16 -30 5 0 9 9 9 20 0 21 -15 27 -25 10z"/>
<path d="M1320 910 c0 -5 5 -10 10 -10 6 0 10 5 10 10 0 6 -4 10 -10 10 -5 0
-10 -4 -10 -10z"/>
<path d="M1815 880 c-3 -5 -2 -10 4 -10 5 0 13 5 16 10 3 6 2 10 -4 10 -5 0
-13 -4 -16 -10z"/>
<path d="M1960 890 c0 -11 5 -20 10 -20 6 0 10 9 10 20 0 11 -4 20 -10 20 -5
0 -10 -9 -10 -20z"/>
<path d="M2055 880 c-3 -5 -2 -10 4 -10 5 0 13 5 16 10 3 6 2 10 -4 10 -5 0
-13 -4 -16 -10z"/>
<path d="M2390 880 c0 -5 5 -10 10 -10 6 0 10 5 10 10 0 6 -4 10 -10 10 -5 0
-10 -4 -10 -10z"/>
<path d="M1200 720 c0 -5 5 -10 10 -10 6 0 10 5 10 10 0 6 -4 10 -10 10 -5 0
-10 -4 -10 -10z"/>
<path d="M1390 720 c0 -5 5 -10 10 -10 6 0 10 5 10 10 0 6 -4 10 -10 10 -5 0
-10 -4 -10 -10z"/>
<path d="M1760 720 c0 -5 5 -10 10 -10 6 0 10 5 10 10 0 6 -4 10 -10 10 -5 0
-10 -4 -10 -10z"/>
<path d="M1855 690 c-3 -5 -2 -10 4 -10 5 0 13 5 16 10 3 6 2 10 -4 10 -5 0
-13 -4 -16 -10z"/>
<path d="M2030 720 c0 -5 5 -10 10 -10 6 0 10 5 10 10 0 6 -4 10 -10 10 -5 0
-10 -4 -10 -10z"/>
<path d="M2160 690 c0 -5 5 -10 10 -10 6 0 10 5 10 10 0 6 -4 10 -10 10 -5 0
-10 -4 -10 -10z"/>
<path d="M2386 714 c-7 -18 0 -34 15 -34 12 0 12 37 0 44 -5 3 -12 -1 -15 -10z"/>
<path d="M2620 690 c0 -5 5 -10 10 -10 6 0 10 5 10 10 0 6 -4 10 -10 10 -5 0
-10 -4 -10 -10z"/>
<path d="M3967 574 c-12 -13 -8 -62 6 -67 23 -9 39 9 35 39 -3 27 -26 43 -41
28z"/>
<path d="M3164 587 c-7 -20 1 -47 15 -47 17 0 22 33 7 49 -14 13 -16 13 -22
-2z"/>
<path d="M3147 463 c-12 -11 -8 -21 12 -28 24 -7 51 4 51 21 0 14 -51 20 -63
7z"/>
<path d="M3331 577 c-24 -24 -6 -85 23 -74 10 4 16 18 16 41 0 36 -19 53 -39
33z"/>
<path d="M4407 584 c-14 -14 -6 -24 19 -24 16 0 24 5 22 13 -5 14 -31 21 -41
11z"/>
<path d="M4791 577 c-24 -24 -6 -85 23 -74 10 4 16 18 16 41 0 36 -19 53 -39
33z"/>
<path d="M5657 575 c-5 -11 0 -15 19 -15 16 0 24 5 22 13 -7 18 -35 20 -41 2z"/>
<path d="M5814 529 c-9 -15 12 -33 30 -26 9 4 16 13 16 22 0 17 -35 21 -46 4z"/>
<path d="M6381 577 c-24 -24 -6 -85 23 -74 10 4 16 18 16 41 0 36 -19 53 -39
33z"/>
<path d="M6551 577 c-24 -24 -6 -85 23 -74 10 4 16 18 16 41 0 36 -19 53 -39
33z"/>
<path d="M1680 500 c0 -5 5 -10 10 -10 6 0 10 5 10 10 0 6 -4 10 -10 10 -5 0
-10 -4 -10 -10z"/>
<path d="M1850 470 c0 -5 5 -10 10 -10 6 0 10 5 10 10 0 6 -4 10 -10 10 -5 0
-10 -4 -10 -10z"/>
<path d="M360 3568 c0 -16 89 -287 103 -313 5 -11 12 -32 13 -47 4 -27 2 -28
-46 -28 l-50 0 0 -269 c0 -149 4 -272 9 -275 5 -3 185 -3 400 1 l391 6 0 264
0 263 125 0 c92 0 125 3 125 12 0 7 -37 99 -81 205 l-82 193 -453 0 c-353 0
-454 -3 -454 -12z m595 -210 c-9 -51 -24 -85 -25 -53 0 39 13 95 22 95 6 0 7
-17 3 -42z m-356 -18 c13 -61 13 -60 2 -60 -5 0 -12 17 -15 38 -4 20 -9 45
-12 55 -3 9 -1 17 4 17 6 0 15 -23 21 -50z m180 -47 l-2 -78 -9 63 c-9 58 -7
92 7 92 3 0 4 -35 4 -77z m332 -30 c-38 -72 -41 -46 -4 33 16 35 29 52 31 42
2 -9 -10 -43 -27 -75z"/>
<path d="M2860 3145 l0 -115 30 0 30 0 0 115 0 115 -30 0 -30 0 0 -115z"/>
<path d="M1990 3135 l0 -105 75 0 c73 0 75 1 75 25 0 23 -4 25 -40 25 l-40 0
0 80 0 80 -35 0 -35 0 0 -105z"/>
<path d="M3332 3192 c-15 -22 -20 -38 -13 -40 6 -2 11 -19 11 -37 0 -72 29
-103 84 -89 33 8 38 54 6 54 -16 0 -20 7 -20 35 0 28 4 35 20 35 14 0 20 7 20
21 0 12 -8 23 -20 26 -11 3 -20 12 -20 19 0 29 -45 14 -68 -24z"/>
<path d="M2190 3187 c-34 -17 -50 -79 -29 -115 20 -36 62 -55 105 -48 27 6 34
12 34 31 0 21 -3 23 -34 18 -19 -3 -36 -1 -40 6 -5 7 7 11 38 11 54 0 61 9 46
56 -17 50 -68 68 -120 41z m57 -43 c-3 -3 -12 -4 -19 -1 -8 3 -5 6 6 6 11 1
17 -2 13 -5z"/>
<path d="M2368 3193 c-19 -5 -22 -12 -12 -37 4 -11 15 -14 37 -10 29 4 29 3
-8 -11 -21 -8 -43 -21 -47 -28 -27 -42 20 -100 65 -80 12 6 37 8 55 6 l32 -5
0 66 c0 53 -4 70 -20 86 -19 19 -60 24 -102 13z m62 -102 c0 -14 -18 -23 -30
-16 -6 4 -8 11 -5 16 8 12 35 12 35 0z"/>
<path d="M2527 3193 c-4 -3 -7 -42 -7 -85 l0 -78 34 0 35 0 3 53 c3 44 6 52
24 55 14 2 24 12 27 28 6 31 -12 40 -44 23 -17 -9 -24 -9 -27 0 -4 12 -35 15
-45 4z"/>
<path d="M2660 3115 l0 -85 30 0 c28 0 30 2 30 41 0 45 16 83 31 74 5 -4 9
-31 9 -61 l0 -54 35 0 35 0 0 54 c0 30 -4 66 -10 80 -11 30 -51 43 -86 27 -15
-6 -24 -7 -24 -1 0 6 -11 10 -25 10 -25 0 -25 -1 -25 -85z"/>
<path d="M2977 3180 c-51 -40 -42 -120 16 -148 58 -28 117 12 117 78 0 77 -75
116 -133 70z m71 -61 c3 -29 -12 -54 -27 -45 -12 8 -15 59 -4 70 12 12 28 0
31 -25z"/>
<path d="M3174 3188 c-42 -20 -56 -86 -28 -126 48 -69 154 -36 154 48 0 67
-66 108 -126 78z m60 -54 c8 -22 -4 -66 -18 -61 -18 6 -20 77 -3 77 8 0 18 -7
21 -16z"/>
</g>
</svg>
