<?xml version="1.0" standalone="no"?>
<!DOCTYPE svg PUBLIC "-//W3C//DTD SVG 20010904//EN"
 "http://www.w3.org/TR/2001/REC-SVG-20010904/DTD/svg10.dtd">
<svg version="1.0" xmlns="http://www.w3.org/2000/svg"
 width="720.000000pt" height="405.000000pt" viewBox="0 0 720.000000 405.000000"
 preserveAspectRatio="xMidYMid meet">

<g transform="translate(0.000000,405.000000) scale(0.100000,-0.100000)"
fill="#000000" stroke="none">
<path d="M3600 3100 l0 -950 -1800 0 -1800 0 0 -1075 0 -1075 3600 0 3600 0 0
2025 0 2025 -1800 0 -1800 0 0 -950z m2393 419 c37 -10 42 -16 32 -41 -4 -11
-19 -13 -55 -10 -49 4 -50 3 -50 -24 0 -15 3 -25 6 -21 3 3 27 -7 52 -22 33
-20 47 -34 46 -49 0 -12 3 -19 8 -16 12 7 10 -14 -4 -39 -23 -44 -39 -52 -97
-50 -90 2 -91 3 -91 39 l0 32 43 -12 c91 -26 118 11 37 51 -25 12 -51 30 -57
40 -17 22 -16 73 0 95 10 13 53 31 87 37 3 1 22 -4 43 -10z m-1483 -43 c-1
-23 -1 -45 -1 -51 1 -5 24 -10 51 -10 l50 0 0 53 0 52 35 0 35 0 0 -140 0
-140 -35 0 -35 0 0 60 0 59 -35 7 c-57 10 -65 2 -65 -66 l0 -60 -32 0 -33 0 3
139 3 140 30 -1 c29 -1 30 -3 29 -42z m400 19 c0 -23 -4 -25 -43 -25 -48 0
-67 -13 -60 -40 4 -14 14 -18 46 -17 39 1 42 0 45 -27 3 -28 3 -28 -42 -25
l-45 4 1 -32 c1 -33 2 -33 50 -33 47 0 48 -1 48 -30 l0 -30 -85 0 -85 0 0 96
c0 61 4 93 10 89 6 -4 10 10 10 34 0 23 -5 41 -11 41 -5 0 -7 5 -4 10 3 6 42
10 86 10 78 0 79 0 79 -25z m120 -89 l0 -114 55 5 55 5 0 -31 0 -31 -67 0
c-116 0 -113 -2 -113 105 0 65 4 95 13 99 10 5 10 7 0 12 -18 8 -16 44 2 44 8
0 15 5 15 10 0 6 9 10 20 10 19 0 20 -7 20 -114z m314 108 c9 -3 16 -16 16
-28 0 -17 2 -18 10 -6 7 11 11 8 20 -15 23 -60 -22 -125 -85 -125 l-35 0 0
-50 0 -50 -35 0 -35 0 0 140 0 140 64 0 c35 0 71 -3 80 -6z m276 -81 c0 -120
5 -133 44 -133 50 0 56 13 56 122 l0 98 36 0 36 0 -4 -111 c-3 -106 -4 -112
-30 -134 -38 -32 -100 -41 -143 -20 -49 23 -65 67 -65 176 l0 89 35 0 35 0 0
-87z m-873 25 c-3 -7 -5 -2 -5 12 0 14 2 19 5 13 2 -7 2 -19 0 -25z m1301
-260 c-4 -10 -175 -14 -821 -16 -717 -2 -817 0 -817 13 0 13 102 15 821 15
655 0 820 -2 817 -12z m-1338 -249 c8 -5 10 -9 3 -9 -6 0 -9 -9 -6 -21 5 -19
3 -20 -44 -13 -45 6 -52 4 -67 -17 -20 -28 -21 -108 -3 -134 11 -14 23 -17 65
-13 51 5 52 5 52 -22 0 -20 -6 -29 -22 -34 -102 -27 -182 29 -178 124 0 19 1
43 1 54 0 10 7 29 16 43 12 18 18 21 24 11 6 -9 9 -6 9 9 0 17 8 25 33 32 33
9 91 5 117 -10z m242 -21 c32 -35 32 -66 -1 -103 -16 -17 -27 -65 -13 -50 3 3
15 -10 28 -28 16 -23 19 -36 12 -45 -8 -9 -7 -11 6 -6 9 3 16 1 16 -5 0 -8
-12 -11 -32 -9 -27 3 -40 14 -66 53 -19 28 -39 50 -45 50 -7 0 -13 -21 -15
-53 l-3 -53 -32 3 -32 3 -3 138 -3 137 77 0 c72 0 77 -1 106 -32z m258 7 c0
-23 -4 -25 -44 -25 -31 0 -46 -5 -50 -16 -14 -36 -7 -44 39 -44 42 0 45 -2 45
-26 0 -25 -2 -26 -45 -22 -45 3 -45 3 -45 -29 0 -33 0 -33 50 -33 49 0 50 -1
50 -30 l0 -30 -85 0 -85 0 0 134 c0 98 3 136 13 139 6 3 45 6 85 6 70 1 72 0
72 -24z m244 -67 c15 -51 36 -115 47 -141 l18 -48 -42 3 c-29 2 -42 8 -42 18
-1 30 -17 40 -66 40 -45 0 -49 -2 -49 -24 0 -26 -16 -36 -59 -36 l-28 0 42
123 c58 170 50 157 104 157 l46 0 29 -92z m286 68 c0 -21 -5 -25 -36 -28 l-37
-3 2 -112 2 -113 -36 0 -36 0 3 115 3 115 -36 0 c-32 0 -36 3 -36 25 l0 25
103 0 c104 0 104 0 104 -24z m206 -1 c-1 -23 -5 -25 -43 -25 -41 0 -43 -1 -43
-30 0 -29 1 -30 43 -27 39 2 42 0 45 -25 3 -26 1 -27 -40 -25 -43 2 -43 2 -43
-33 l0 -34 45 2 c44 3 45 3 45 -28 l0 -31 -80 3 -80 3 2 135 c2 74 3 136 3
138 0 1 33 2 74 2 73 0 74 0 72 -25z m21 -300 c0 -13 -90 -15 -744 -15 -654 0
-743 2 -743 15 0 13 89 15 743 15 654 0 744 -2 744 -15z m-772 -175 c3 -6 -1
-13 -10 -16 -9 -4 -14 -13 -11 -21 3 -8 -1 -21 -8 -29 -8 -8 -18 -35 -22 -60
-3 -25 -13 -52 -21 -59 -19 -19 -53 -19 -53 0 0 8 6 15 14 15 20 0 42 100 24
111 -9 6 -8 10 5 15 9 3 17 12 17 18 0 29 51 49 65 26z m55 -5 c0 -8 -9 -15
-20 -15 -20 0 -26 11 -13 23 12 13 33 7 33 -8z m670 -63 l0 -79 -46 -1 c-39 0
-46 3 -55 25 -5 13 -9 31 -9 39 0 21 38 54 55 48 10 -4 15 0 15 13 0 23 8 33
27 33 10 0 13 -20 13 -78z m-1702 0 c27 -83 27 -82 2 -82 -11 0 -20 7 -20 15
0 9 -9 15 -25 15 -14 0 -28 -7 -31 -15 -6 -15 -44 -22 -44 -8 0 4 10 37 22 75
20 61 25 68 48 68 23 0 28 -7 48 -68z m1102 38 c11 -11 20 -22 20 -24 0 -2 -9
-6 -20 -9 -14 -3 -20 -14 -20 -31 0 -14 5 -26 10 -26 6 0 10 -7 10 -16 0 -11
-8 -14 -27 -12 -25 3 -28 7 -29 40 0 21 -3 41 -7 44 -5 5 31 53 41 54 1 0 11
-9 22 -20z m314 -1 c13 -15 15 -24 7 -32 -17 -17 -13 -57 5 -57 9 0 14 -6 12
-12 -3 -7 -18 -13 -34 -13 -26 0 -29 4 -32 35 -2 19 -7 39 -12 44 -8 8 18 55
30 56 3 0 14 -10 24 -21z m637 0 c20 -20 20 -23 5 -31 -20 -12 -22 -58 -1 -58
8 0 15 -7 15 -15 0 -10 -10 -15 -30 -15 -31 0 -32 2 -43 74 -3 17 2 36 11 47
20 23 18 23 43 -2z m-1861 -49 c0 -51 -8 -70 -30 -70 -15 0 -17 5 -9 37 4 21
6 39 4 41 -9 10 -23 -11 -29 -43 -5 -26 -12 -35 -27 -35 -15 0 -19 5 -15 18 3
9 8 34 12 55 5 30 10 38 24 34 10 -2 24 -1 30 3 24 15 40 -1 40 -40z m111 40
c26 -14 26 -71 0 -94 -28 -25 -75 -18 -79 13 -6 37 6 67 30 79 29 14 26 14 49
2z m145 -64 c-6 -36 -11 -46 -26 -46 -17 0 -19 5 -14 48 5 44 4 46 -10 28 -9
-11 -16 -32 -16 -48 0 -22 -5 -28 -21 -28 -19 0 -20 4 -13 48 8 59 12 65 34
59 10 -2 24 -1 31 4 26 16 42 -15 35 -65z m196 45 c5 -60 -14 -95 -48 -88 -18
3 -23 -2 -28 -25 -4 -19 -12 -28 -25 -28 -18 0 -18 2 -2 77 15 74 18 78 46 84
38 7 55 1 57 -20z m108 10 c0 -10 -9 -21 -19 -24 -13 -3 -22 -17 -26 -41 -5
-26 -12 -36 -26 -36 -22 0 -22 -4 -8 60 9 43 14 51 30 47 10 -3 22 -1 25 4 9
16 24 10 24 -10z m110 -35 c0 -41 -28 -69 -67 -64 -21 2 -29 9 -31 27 -6 40 7
69 35 79 40 14 63 -2 63 -42z m474 29 c-3 -7 -15 -11 -27 -8 -19 4 -18 2 8
-20 25 -21 28 -29 19 -44 -15 -24 -84 -31 -84 -9 0 11 9 16 28 16 l27 1 -27
15 c-34 18 -37 51 -6 63 29 11 68 2 62 -14z m470 15 c19 -7 26 -17 26 -35 0
-22 -4 -25 -36 -25 -30 0 -34 -3 -25 -14 6 -8 22 -11 37 -8 20 4 25 1 22 -9
-3 -9 -19 -14 -44 -14 -30 0 -41 5 -50 24 -15 29 -1 78 24 84 9 3 18 5 19 6 1
0 13 -3 27 -9z m150 -6 c10 -9 16 -33 16 -60 0 -37 -3 -44 -19 -44 -16 0 -20
8 -23 43 -4 52 -20 51 -31 -2 -5 -25 -14 -41 -23 -41 -10 0 -14 14 -14 56 0
50 2 56 19 51 10 -2 25 -1 32 4 19 12 25 11 43 -7z m-934 1 c0 -2 -5 -27 -11
-55 -8 -40 -15 -50 -31 -50 -14 0 -18 5 -14 18 3 9 8 34 12 55 4 27 11 37 25
37 11 0 19 -2 19 -5z m473 -22 c-4 -33 10 -59 26 -49 6 4 11 23 11 42 0 27 4
34 20 34 18 0 20 -7 20 -54 l0 -54 -52 2 -53 1 -3 53 c-3 45 -1 52 16 52 14 0
18 -6 15 -27z m-973 -28 c0 -9 -9 -15 -25 -15 -16 0 -25 6 -25 15 0 9 9 15 25
15 16 0 25 -6 25 -15z m1620 0 c0 -10 -10 -15 -30 -15 -20 0 -30 5 -30 15 0
10 10 15 30 15 20 0 30 -5 30 -15z m-970 -36 c0 -17 -20 -49 -30 -49 -11 0
-14 43 -3 53 10 11 33 8 33 -4z m238 -221 l3 -77 -43 1 c-55 0 -68 12 -68 59
0 41 24 65 54 53 12 -5 16 0 16 21 0 20 4 26 18 23 14 -3 17 -16 20 -80z
m-278 42 c24 -24 25 -30 5 -30 -10 0 -15 -10 -15 -30 0 -20 5 -30 15 -30 8 0
15 -7 15 -15 0 -18 -43 -20 -58 -2 -18 22 -20 89 -3 109 19 22 17 22 41 -2z
m-441 -9 c17 -11 5 -32 -17 -29 -12 2 -18 -5 -20 -26 -3 -26 -1 -28 23 -24 20
4 25 2 23 -11 -4 -21 -61 -27 -77 -7 -21 25 -10 79 19 93 30 15 31 15 49 4z
m111 -10 c0 -10 -9 -21 -20 -24 -15 -4 -20 -14 -20 -41 0 -29 -4 -36 -20 -36
-18 0 -20 7 -20 56 0 54 1 56 24 52 14 -3 31 -1 38 3 18 12 18 12 18 -10z
m118 -9 c22 -28 14 -42 -23 -42 -19 0 -35 -4 -35 -10 0 -5 14 -10 30 -10 20 0
30 -5 30 -15 0 -10 -10 -15 -31 -15 -49 0 -69 16 -69 55 0 58 62 82 98 37z
m106 18 c23 -8 26 -15 26 -58 l0 -49 -45 -1 c-52 0 -72 16 -55 47 6 13 21 21
35 21 14 0 25 5 25 10 0 6 -11 10 -25 10 -29 0 -34 16 -7 23 9 3 18 5 19 6 1
0 13 -3 27 -9z m236 -10 c31 -31 26 -50 -15 -50 -19 0 -35 -4 -35 -10 0 -5 14
-10 30 -10 20 0 30 -5 30 -15 0 -21 -64 -20 -85 1 -24 25 -16 76 15 91 33 17
37 16 60 -7z m-4456 -107 c3 -10 12 -57 22 -105 9 -49 20 -88 23 -88 4 0 15
39 24 88 10 48 19 94 21 102 2 10 15 15 37 15 31 0 34 -3 42 -40 5 -22 10 -57
10 -77 1 -24 4 -33 9 -25 6 8 8 3 7 -13 -1 -14 2 -34 7 -45 6 -15 12 0 26 65
29 142 29 140 67 140 l28 0 -35 -140 -34 -140 -43 0 -43 0 -12 73 c-18 110
-20 117 -30 117 -6 0 -10 -14 -10 -31 0 -20 -4 -28 -12 -23 -7 5 -8 3 -3 -5 4
-7 1 -39 -6 -72 l-13 -59 -41 0 -41 0 -18 70 c-10 38 -16 77 -12 85 3 9 2 14
-3 11 -10 -7 -23 48 -15 68 3 8 1 17 -5 21 -20 12 -11 25 18 25 20 0 31 -6 35
-17z m522 -8 c-1 -22 -5 -25 -42 -25 -36 0 -42 -3 -46 -24 -6 -28 7 -36 58
-36 29 0 34 -3 34 -24 0 -22 -4 -24 -42 -23 -43 1 -43 1 -43 -33 0 -35 0 -35
43 -32 41 3 42 3 42 -27 l0 -31 -80 0 -80 0 0 133 c0 74 3 137 7 140 3 4 39 7
79 7 70 0 72 -1 70 -25z m217 -2 c31 -151 40 -181 52 -170 7 7 11 15 9 19 -4
7 20 131 32 161 5 13 15 17 37 15 34 -3 31 4 62 -141 14 -67 19 -76 31 -66 11
9 12 14 3 19 -8 6 -9 17 -1 41 6 19 16 60 22 92 11 56 12 57 46 57 26 0 33 -3
27 -12 -4 -7 -8 -15 -8 -18 -1 -3 -4 -27 -9 -53 -7 -45 -9 -47 -22 -30 -14 17
-14 16 -4 -5 9 -18 9 -36 -1 -75 -18 -79 -24 -87 -68 -87 l-39 0 -18 95 c-10
52 -21 95 -26 95 -4 0 -8 -9 -8 -20 0 -11 -7 -53 -17 -95 l-16 -75 -42 0 -42
0 -16 69 c-10 38 -14 76 -11 85 3 9 2 16 -4 16 -9 0 -32 72 -32 99 0 6 13 11
29 11 23 0 30 -5 34 -27z m437 -113 l0 -140 -35 0 -35 0 0 140 0 140 35 0 35
0 0 -140z m142 28 l3 -113 50 -1 c46 -1 50 -2 53 -27 l3 -27 -90 0 -91 0 0
133 c0 74 3 137 7 140 3 4 19 7 34 7 l28 0 3 -112z m230 11 c2 -55 -1 -104 -6
-110 -6 -5 13 -9 52 -9 l62 0 0 -30 0 -30 -88 0 -89 0 -2 124 c-1 84 2 127 10
132 8 4 7 9 -2 15 -9 6 -2 9 23 9 l37 0 3 -101z m1975 -61 c-3 -13 -10 -48
-17 -79 l-11 -57 -39 0 c-34 -1 -41 3 -46 24 -7 28 12 80 32 88 8 3 21 3 29 0
10 -4 15 0 15 13 0 23 8 33 28 33 10 0 13 -7 9 -22z m523 7 c0 -8 -9 -15 -20
-15 -20 0 -26 11 -13 23 12 13 33 7 33 -8z m447 -7 c-3 -13 -11 -49 -17 -80
-9 -48 -15 -58 -32 -58 -12 0 -18 5 -16 13 3 6 11 42 18 80 11 55 17 67 33 67
15 0 18 -5 14 -22z m231 5 c2 -8 -5 -13 -17 -13 -12 0 -21 6 -21 16 0 18 31
15 38 -3z m132 -61 l0 -79 -46 -1 c-39 0 -46 3 -55 25 -5 13 -9 31 -9 39 0 21
38 54 55 48 11 -5 15 1 15 20 0 19 5 26 20 26 18 0 20 -7 20 -78z m-900 38
c25 -25 25 -26 1 -33 -22 -5 -35 -57 -15 -57 8 0 14 -7 14 -16 0 -11 -8 -14
-27 -12 -25 3 -29 8 -33 48 -4 36 -1 50 15 67 24 27 21 27 45 3z m-570 -36 c0
-17 -9 -28 -32 -38 l-33 -14 28 -1 c37 -1 31 -25 -7 -29 -71 -9 -77 88 -6 110
28 9 50 -4 50 -28z m248 -31 l-10 -52 -42 2 c-37 2 -41 5 -44 31 -5 44 6 76
27 76 17 0 18 -5 10 -37 -4 -21 -6 -39 -4 -41 9 -9 24 11 30 41 8 33 25 52 37
39 3 -4 2 -30 -4 -59z m119 43 c-2 -6 -11 -10 -20 -8 -18 3 -41 -33 -32 -48 3
-6 13 -10 21 -10 8 0 14 -7 14 -16 0 -11 -8 -14 -32 -12 -32 3 -33 5 -33 48 0
37 4 46 23 56 27 13 65 7 59 -10z m77 15 c3 -5 15 -7 26 -4 23 6 23 8 9 -56
l-10 -50 -42 2 -42 2 1 44 c1 30 7 48 19 58 22 15 32 16 39 4z m307 -1 c26
-14 26 -71 0 -94 -28 -25 -75 -18 -79 13 -6 37 6 67 30 79 29 14 26 14 49 2z
m138 -4 c8 -10 10 -30 6 -60 -6 -36 -11 -46 -26 -46 -17 0 -18 5 -13 40 8 52
-11 54 -23 3 -5 -23 -15 -39 -26 -41 -20 -4 -22 15 -6 71 8 31 14 38 30 34 10
-3 22 -1 25 4 8 13 20 11 33 -5z m136 -35 c-11 -67 -13 -69 -55 -69 -44 -1
-56 16 -44 62 9 35 37 54 75 48 29 -4 30 -6 24 -41z m565 29 c31 -31 26 -50
-15 -50 -19 0 -35 -4 -35 -10 0 -5 14 -10 31 -10 20 0 29 -4 27 -12 -6 -17
-52 -22 -78 -8 -29 15 -28 73 2 94 30 21 44 20 68 -4z m113 11 c54 -21 37
-111 -21 -111 -36 0 -52 17 -52 55 0 34 8 49 30 58 8 3 16 6 17 6 1 1 13 -3
26 -8z m-1057 -38 c-11 -62 -17 -73 -36 -73 -16 0 -17 4 -8 43 15 65 16 67 34
67 13 0 15 -7 10 -37z m567 -3 l10 -35 10 38 c6 27 14 37 29 37 15 0 18 -4 12
-22 -31 -103 -60 -116 -87 -40 -21 58 -21 64 0 60 9 -2 21 -18 26 -38z m127
-15 c0 -48 -2 -55 -20 -55 -18 0 -20 7 -20 55 0 48 2 55 20 55 18 0 20 -7 20
-55z m-3055 -75 c0 -13 -105 -15 -872 -18 -754 -2 -873 0 -873 12 0 9 12 16
28 18 15 2 407 3 872 3 744 0 845 -2 845 -15z m2325 -140 c0 -28 2 -30 22 -19
18 10 24 8 40 -12 12 -13 17 -31 14 -43 -3 -12 -6 -29 -6 -38 0 -36 -29 -19
-32 20 -4 52 -32 51 -36 -1 -3 -30 -7 -37 -20 -35 -13 3 -18 17 -20 67 -3 73
1 91 23 91 10 0 15 -10 15 -30z m880 0 c0 -27 2 -29 19 -18 31 19 51 -5 51
-63 0 -36 -4 -49 -14 -49 -10 0 -16 13 -18 38 -4 52 -32 51 -36 -1 -3 -30 -7
-37 -20 -35 -13 3 -18 17 -20 67 -3 73 1 91 23 91 10 0 15 -10 15 -30z m-4646
5 c3 -8 3 -22 0 -30 -4 -8 -3 -15 1 -15 3 0 13 7 21 15 23 22 37 19 24 -6 -9
-16 -8 -26 5 -45 14 -23 14 -24 -4 -24 -10 0 -22 8 -26 18 -6 16 -7 16 -16 0
-19 -33 -29 -18 -29 42 0 57 11 78 24 45z m246 -45 c0 -47 -3 -60 -15 -60 -12
0 -15 13 -15 60 0 47 3 60 15 60 12 0 15 -13 15 -60z m420 50 c0 -5 -7 -10
-15 -10 -8 0 -15 5 -15 10 0 6 7 10 15 10 8 0 15 -4 15 -10z m320 0 c0 -5 -5
-10 -11 -10 -8 0 -8 -4 0 -14 8 -10 9 -16 1 -21 -5 -3 -10 -19 -10 -36 0 -44
-27 -37 -32 9 -7 49 6 82 32 82 11 0 20 -4 20 -10z m540 -50 l0 -59 -37 2
c-35 2 -38 4 -41 36 -4 35 12 55 36 46 7 -2 12 4 12 15 0 11 7 20 15 20 12 0
15 -13 15 -60z m-1749 13 l12 -38 12 35 c8 23 19 36 33 38 20 3 22 -1 22 -52
0 -43 -3 -56 -15 -56 -10 0 -15 11 -16 33 l-1 32 -11 -33 c-12 -39 -38 -40
-48 -2 l-7 25 -1 -27 c-1 -18 -7 -28 -16 -28 -12 0 -15 13 -15 55 0 48 3 55
19 55 14 0 23 -11 32 -37z m3899 22 c0 -8 7 -15 15 -15 8 0 15 -4 15 -10 0 -5
-7 -10 -15 -10 -10 0 -15 -10 -15 -30 0 -20 5 -30 15 -30 8 0 15 -7 15 -15 0
-18 -43 -20 -58 -2 -15 18 -17 79 -4 105 14 25 32 29 32 7z m374 -7 c13 -14
15 -23 8 -26 -19 -6 -15 -62 4 -62 9 0 14 -6 12 -12 -3 -7 -18 -13 -34 -13
-26 0 -29 4 -32 35 -2 19 -7 39 -12 44 -8 8 18 55 30 56 3 0 14 -10 24 -22z
m147 1 c20 -20 20 -23 5 -31 -20 -11 -21 -47 -1 -54 27 -11 17 -36 -12 -32
-24 3 -28 8 -31 38 -2 19 -7 39 -12 44 -8 7 15 56 26 56 2 0 14 -10 25 -21z
m-4263 -8 c8 -5 15 -23 15 -42 2 -31 0 -34 -32 -36 -19 -2 -38 2 -42 9 -11 17
1 38 22 38 10 0 19 5 19 11 0 6 -7 9 -15 5 -15 -5 -20 5 -8 17 9 9 25 8 41 -2z
m203 -1 c28 -15 24 -40 -6 -40 -14 0 -25 -4 -25 -10 0 -5 9 -10 20 -10 11 0
20 -4 20 -10 0 -14 -43 -13 -58 2 -23 23 -8 78 21 78 4 0 17 -5 28 -10z m193
-6 c23 -22 20 -34 -9 -34 -14 0 -25 -4 -25 -10 0 -5 9 -10 20 -10 11 0 20 -4
20 -10 0 -11 -30 -13 -54 -4 -19 7 -21 55 -4 72 16 16 33 15 52 -4z m90 10
c11 -4 16 -19 16 -44 0 -38 0 -38 -37 -37 -31 2 -38 6 -38 22 0 13 8 21 23 23
12 2 22 8 22 14 0 5 -7 8 -15 5 -8 -4 -17 -2 -20 3 -3 4 1 11 7 13 19 8 24 8
42 1z m96 -9 c0 -7 -7 -15 -15 -19 -8 -3 -15 -17 -15 -31 0 -16 -6 -25 -15
-25 -11 0 -15 11 -15 38 0 21 2 41 4 43 11 10 56 6 56 -6z m88 2 c18 -12 16
-77 -3 -77 -10 0 -15 10 -15 30 0 17 -4 30 -9 30 -5 0 -11 -13 -14 -30 -10
-45 -27 -36 -27 14 0 41 1 44 28 42 15 -1 33 -5 40 -9z m62 -32 c0 -33 -4 -45
-15 -45 -11 0 -15 12 -15 45 0 33 4 45 15 45 11 0 15 -12 15 -45z m98 33 c18
-15 16 -78 -3 -78 -10 0 -15 10 -15 30 0 20 -5 30 -15 30 -10 0 -15 -10 -15
-30 0 -20 -5 -30 -15 -30 -11 0 -15 11 -15 38 0 21 2 41 4 43 9 9 62 7 74 -3z
m112 8 c0 -23 -23 -55 -42 -59 -21 -4 -20 -4 4 -6 30 -1 41 -12 32 -34 -7 -18
-46 -30 -69 -21 -12 5 -15 13 -9 33 4 14 6 37 5 50 0 14 5 28 11 33 14 8 68
11 68 4z m148 -34 c2 -18 7 -32 12 -32 5 0 10 14 12 32 5 51 28 47 28 -5 l0
-45 -37 1 c-37 2 -38 3 -41 46 -2 32 0 42 10 39 7 -3 14 -19 16 -36z m150 26
c18 -15 16 -78 -3 -78 -10 0 -15 10 -15 30 0 20 -5 30 -15 30 -10 0 -15 -10
-15 -30 0 -20 -5 -30 -15 -30 -11 0 -15 11 -15 38 0 21 2 41 4 43 9 9 62 7 74
-3z m126 6 c11 -4 16 -19 16 -44 0 -35 -2 -37 -32 -38 -18 0 -36 4 -39 10 -11
17 1 38 22 38 10 0 19 5 19 11 0 6 -7 9 -15 5 -15 -5 -20 5 -8 17 8 9 17 9 37
1z m114 -7 c18 -12 16 -77 -3 -77 -10 0 -15 10 -15 31 0 20 -4 29 -12 27 -7
-3 -13 -15 -13 -28 0 -13 -6 -25 -12 -27 -9 -3 -13 9 -13 40 0 42 1 45 28 43
15 -1 33 -5 40 -9z m1680 -3 c12 -9 -27 -60 -48 -63 -23 -3 -22 -4 10 -15 39
-12 49 -36 25 -60 -34 -33 -125 -8 -98 27 15 19 22 56 12 63 -14 8 -11 31 7
49 12 11 26 14 52 9 21 -4 39 -8 40 -10z m103 6 c15 -8 19 -21 19 -59 l0 -48
-45 -1 c-52 0 -72 16 -55 47 6 13 21 21 35 21 14 0 25 5 25 11 0 7 -10 9 -25
5 -18 -5 -25 -2 -25 8 0 13 14 21 43 25 5 0 17 -4 28 -9z m154 -2 c6 0 17 3
26 6 27 11 49 -20 49 -70 0 -37 -3 -44 -19 -44 -16 0 -20 8 -23 43 -2 23 -7
42 -13 42 -5 0 -11 -19 -13 -42 -3 -35 -7 -43 -23 -43 -16 0 -19 7 -19 40 0
29 -4 40 -15 40 -11 0 -15 -11 -15 -40 0 -33 -3 -40 -20 -40 -18 0 -20 7 -20
56 0 50 2 56 19 51 10 -2 25 -1 32 4 8 5 21 6 29 3 8 -4 20 -6 25 -6z m183 -4
c12 -8 22 -24 22 -35 0 -15 -7 -19 -35 -19 -19 0 -35 -4 -35 -10 0 -5 14 -10
30 -10 20 0 30 -5 30 -15 0 -10 -11 -15 -35 -15 -80 0 -84 110 -5 119 3 1 16
-6 28 -15z m413 6 c15 -8 19 -21 19 -60 l0 -49 -47 2 c-44 2 -48 4 -51 30 -3
23 1 28 27 33 35 7 43 27 9 22 -26 -4 -36 18 -11 25 30 8 33 7 54 -3z m377 -6
c12 -8 22 -24 22 -35 0 -15 -7 -19 -36 -19 -21 0 -33 -4 -29 -10 3 -5 17 -10
31 -10 15 0 24 -6 24 -15 0 -21 -58 -20 -82 2 -37 33 -12 94 42 102 3 1 16 -6
28 -15z m125 4 c15 -11 23 -54 18 -94 0 -6 -21 -10 -48 -10 -43 1 -48 4 -51
25 -4 27 12 41 46 41 14 0 21 4 16 11 -3 6 -14 9 -24 6 -11 -3 -21 1 -24 8 -4
12 9 21 40 24 5 0 18 -5 27 -11z m137 -14 c0 -8 -10 -14 -25 -14 -20 0 -25 -5
-25 -25 0 -20 5 -25 26 -25 33 0 27 -24 -8 -28 -56 -7 -81 79 -30 104 28 14
62 7 62 -12z m248 10 c12 -8 22 -24 22 -35 0 -15 -7 -19 -35 -19 -19 0 -35 -4
-35 -10 0 -5 14 -10 30 -10 20 0 30 -5 30 -15 0 -21 -64 -20 -84 1 -29 28 -15
83 24 97 23 8 24 8 48 -9z m126 -9 c-3 -7 -15 -11 -27 -8 -19 4 -18 2 8 -20
25 -21 28 -29 19 -44 -15 -24 -84 -31 -84 -9 0 11 9 16 28 16 l27 1 -27 15
c-34 18 -37 51 -6 63 29 11 68 2 62 -14z m-5494 -48 c0 -14 -85 -97 -99 -97
-5 0 -11 -9 -14 -20 -6 -23 -47 -28 -47 -6 0 8 -5 18 -12 22 -7 5 -8 2 -3 -7
4 -8 -6 -1 -23 15 -25 23 -29 32 -20 43 9 12 17 8 46 -20 l34 -34 45 48 c31
33 51 46 65 44 15 -3 17 -1 9 9 -6 7 -8 16 -5 19 9 9 24 -2 24 -16z m1320
-127 c0 -5 -7 -10 -15 -10 -8 0 -15 5 -15 10 0 6 7 10 15 10 8 0 15 -4 15 -10z
m-456 -36 c23 -22 20 -34 -9 -34 -14 0 -25 -4 -25 -10 0 -5 9 -10 20 -10 11 0
20 -4 20 -10 0 -5 -14 -10 -30 -10 -23 0 -33 6 -39 23 -19 50 27 88 63 51z
m104 4 c18 -18 16 -78 -3 -78 -10 0 -15 10 -15 30 0 17 -5 30 -10 30 -6 0 -13
-13 -16 -30 -9 -43 -24 -37 -24 9 0 33 4 40 23 44 12 2 24 5 28 6 3 0 10 -4
17 -11z m112 8 c0 -21 -23 -56 -37 -57 -12 -1 -9 -3 7 -8 35 -10 33 -43 -3
-55 -22 -8 -31 -6 -45 8 -11 12 -13 20 -6 23 6 2 9 19 7 40 -2 23 1 39 9 44
13 9 68 12 68 5z m74 -2 c11 -4 16 -19 16 -44 0 -38 0 -38 -37 -37 -31 2 -38
6 -38 22 0 13 8 21 23 23 12 2 22 8 22 14 0 5 -7 8 -15 5 -8 -4 -17 -2 -20 3
-3 4 1 11 7 13 19 8 24 8 42 1z m116 2 c0 -21 -23 -56 -37 -57 -12 -1 -9 -3 7
-8 32 -9 37 -36 10 -51 -39 -21 -57 -5 -56 48 1 26 5 53 9 60 7 11 67 18 67 8z
m50 -41 c0 -33 -4 -45 -15 -45 -11 0 -15 12 -15 45 0 33 4 45 15 45 11 0 15
-12 15 -45z m98 -2 c3 -46 -15 -61 -20 -16 -4 39 -28 42 -28 4 0 -21 -5 -31
-15 -31 -11 0 -15 12 -15 44 l0 43 38 -1 c36 -1 37 -2 40 -43z m100 25 c-2
-12 -14 -28 -28 -35 -23 -12 -23 -13 -4 -13 12 0 27 -6 33 -14 10 -12 7 -18
-13 -31 -14 -9 -33 -14 -44 -10 -17 5 -19 13 -17 55 5 63 9 70 46 70 26 0 30
-3 27 -22z m3232 -20 c0 -12 -8 -52 -25 -125 -3 -14 -13 -23 -23 -23 -18 0
-18 4 -5 68 18 87 20 92 38 92 8 0 15 -6 15 -12z m70 -3 c0 -8 -9 -15 -20 -15
-20 0 -26 11 -13 23 12 13 33 7 33 -8z m339 -12 c0 -16 -6 -50 -13 -78 -11
-50 -11 -50 -51 -50 -39 0 -40 1 -43 38 -4 44 11 67 43 67 16 0 25 8 29 25 9
35 36 33 35 -2z m-1201 -25 c32 -32 -4 -119 -43 -104 -11 4 -17 -2 -22 -24 -4
-21 -11 -30 -25 -30 -16 0 -19 5 -14 23 3 12 11 48 17 79 10 50 15 57 38 61
14 2 28 5 32 6 3 0 10 -4 17 -11z m242 -7 c0 -10 -9 -21 -19 -24 -13 -3 -22
-17 -26 -41 -5 -26 -12 -36 -26 -36 -22 0 -22 -4 -8 60 9 42 14 51 29 47 10
-2 24 -1 31 4 19 12 19 12 19 -10z m210 -33 c0 -37 -25 -68 -55 -68 -28 0 -45
18 -45 50 0 33 10 47 40 58 36 14 60 -2 60 -40z m244 41 c16 2 18 -2 12 -36
-13 -69 -14 -71 -54 -71 -40 0 -52 10 -52 46 0 29 45 76 63 65 6 -4 20 -6 31
-4z m360 -2 c26 -19 13 -52 -27 -65 l-32 -10 28 -1 c39 -1 30 -25 -11 -29 -22
-2 -34 2 -41 16 -14 27 5 81 33 92 29 12 30 12 50 -3z m-919 -7 c12 -20 -6
-47 -38 -58 l-32 -10 28 -1 c36 -1 31 -25 -5 -29 -50 -6 -71 51 -35 96 11 14
73 16 82 2z m195 0 c0 -5 -10 -10 -22 -10 -20 0 -20 -1 -4 -19 10 -11 16 -30
14 -43 -2 -19 -10 -24 -40 -26 -29 -2 -38 0 -38 12 0 9 9 16 20 16 23 0 27 15
5 24 -15 5 -21 37 -8 49 10 11 73 8 73 -3z m250 -23 c0 -50 -11 -77 -30 -77
-15 0 -17 6 -13 40 4 25 2 40 -5 40 -6 0 -13 -18 -17 -40 -5 -30 -11 -40 -26
-40 -22 0 -22 -4 -8 58 l10 49 45 1 c43 1 44 1 44 -31z m270 28 c0 -2 -5 -27
-11 -55 -8 -40 -15 -50 -31 -50 -14 0 -18 5 -14 18 3 9 8 34 12 55 4 27 11 37
25 37 11 0 19 -2 19 -5z m110 -3 c0 -5 -11 -19 -25 -32 -28 -27 -32 -40 -10
-40 8 0 15 -7 15 -15 0 -11 -12 -15 -45 -15 -25 0 -45 3 -45 7 0 3 12 21 26
40 21 28 23 34 10 39 -9 3 -13 10 -10 15 7 11 84 12 84 1z m-3570 -130 l0 -59
-35 -1 c-30 -1 -36 2 -41 25 -8 31 7 59 30 57 10 -1 16 6 16 17 0 11 7 19 15
19 12 0 15 -13 15 -58z m410 48 c0 -5 -7 -10 -16 -10 -8 0 -12 5 -9 10 3 6 10
10 16 10 5 0 9 -4 9 -10z m-1380 -30 c7 -16 16 -30 19 -30 4 0 6 14 3 30 -3
23 0 30 12 30 13 0 16 -11 16 -55 0 -48 -2 -55 -20 -55 -12 0 -27 13 -39 38
l-20 37 -1 -37 c0 -21 -4 -38 -10 -38 -5 0 -10 25 -10 55 0 47 3 55 19 55 11
0 23 -12 31 -30z m729 6 c8 -10 9 -16 1 -21 -13 -8 -13 -45 0 -45 6 0 10 -5
10 -11 0 -6 -10 -9 -22 -7 -35 5 -48 98 -13 98 7 0 18 -6 24 -14z m585 8 c17
-7 22 -34 6 -34 -16 0 -12 -30 5 -36 19 -8 9 -24 -14 -24 -14 0 -20 9 -23 38
-5 33 -1 62 7 62 2 0 10 -3 19 -6z m-1176 -16 c20 -20 14 -38 -13 -38 -14 0
-25 -4 -25 -10 0 -5 12 -10 26 -10 14 0 23 -4 19 -10 -9 -14 -48 -13 -63 2
-18 18 -15 55 6 67 23 14 36 13 50 -1z m60 -15 l10 -28 11 28 c10 26 31 38 31
17 0 -25 -30 -80 -44 -80 -13 0 -36 48 -36 76 0 24 18 15 28 -13z m126 21 c9
-3 16 -15 16 -25 0 -14 -7 -19 -26 -19 -14 0 -23 -4 -19 -10 3 -5 15 -10 26
-10 10 0 19 -4 19 -10 0 -14 -54 -12 -68 2 -17 17 -15 44 4 62 17 18 24 19 48
10z m96 -10 c0 -7 -7 -14 -15 -18 -8 -3 -15 -17 -15 -31 0 -16 -6 -25 -15 -25
-11 0 -15 11 -15 38 0 21 2 41 4 43 10 9 56 3 56 -7z m133 -5 c15 -24 0 -69
-23 -69 -13 0 -20 -7 -20 -20 0 -11 -7 -20 -15 -20 -12 0 -15 14 -15 64 l0 64
32 -2 c17 -1 36 -9 41 -17z m55 -17 c2 -18 7 -32 12 -32 5 0 10 14 12 32 5 51
28 47 28 -5 l0 -45 -37 1 c-37 2 -38 3 -41 46 -2 32 0 42 10 39 7 -3 14 -19
16 -36z m248 30 c6 -4 13 -15 17 -24 5 -14 1 -18 -18 -18 -14 0 -25 -4 -25
-10 0 -5 9 -10 20 -10 11 0 20 -4 20 -10 0 -19 -59 -11 -70 9 -14 27 -13 37 6
55 17 17 33 20 50 8z m166 -24 c4 -43 22 -42 26 0 5 46 26 35 30 -15 l3 -41
-38 0 c-42 0 -53 10 -53 49 0 49 27 54 32 7z m135 16 c2 -6 -5 -14 -17 -17
-23 -6 -18 -37 6 -37 8 0 14 -5 14 -11 0 -6 -12 -9 -27 -7 -22 2 -29 9 -31 31
-2 16 2 35 9 43 14 16 40 15 46 -2z m91 4 c7 -7 12 -26 12 -44 0 -30 -2 -31
-37 -30 -31 1 -38 5 -38 21 0 13 8 21 23 23 12 2 22 8 22 14 0 6 -9 8 -20 5
-11 -3 -20 -2 -20 2 0 23 39 28 58 9z m132 -33 c0 -33 -4 -45 -15 -45 -11 0
-15 11 -15 38 0 21 3 42 7 45 16 16 23 4 23 -38z m95 20 c28 -43 -27 -89 -63
-53 -18 18 -15 55 6 67 23 14 42 10 57 -14z m105 5 c16 -24 12 -70 -5 -70 -10
0 -15 10 -15 30 0 20 -5 30 -15 30 -10 0 -15 -10 -15 -30 0 -20 -5 -30 -15
-30 -11 0 -15 11 -15 38 0 21 2 41 4 43 11 10 68 2 76 -11z m-1965 -70 c8 -13
-75 -94 -86 -83 -5 5 8 27 29 51 39 44 47 48 57 32z m4383 -112 l3 -77 -43 1
c-54 0 -68 12 -68 54 0 39 24 67 51 59 15 -5 19 -1 19 20 0 20 4 26 18 23 14
-3 17 -16 20 -80z m402 67 c0 -8 -9 -15 -20 -15 -11 0 -20 7 -20 15 0 8 9 15
20 15 11 0 20 -7 20 -15z m-4970 -21 c23 -27 50 -37 66 -23 9 8 18 9 24 3 13
-13 -16 -54 -39 -54 -20 0 -95 73 -85 83 11 11 20 8 34 -9z m4188 -72 l3 -51
-48 2 c-46 2 -48 3 -48 32 0 25 4 30 28 33 15 2 27 8 27 13 0 6 -10 9 -22 7
-11 -2 -23 2 -25 9 -5 14 34 22 62 12 16 -5 21 -17 23 -57z m112 58 c17 -10 6
-25 -18 -25 -11 0 -18 -10 -20 -29 -3 -26 -1 -28 23 -24 20 4 25 2 23 -11 -4
-21 -61 -27 -77 -7 -21 25 -10 79 19 93 30 15 31 15 50 3z m111 0 c15 -8 19
-21 19 -60 l0 -49 -47 2 c-46 2 -48 3 -48 32 0 25 4 30 28 33 15 2 27 8 27 13
0 6 -10 9 -22 7 -29 -4 -35 19 -6 25 13 2 24 5 26 6 2 0 12 -4 23 -9z m408 1
c10 -6 23 -6 31 -1 29 18 50 -8 50 -61 0 -43 -3 -50 -17 -47 -12 2 -19 14 -20
33 -3 61 -2 58 -18 45 -8 -7 -15 -28 -15 -46 0 -27 -4 -34 -20 -34 -17 0 -20
7 -20 45 0 45 -12 60 -24 29 -3 -9 -6 -29 -6 -45 0 -22 -5 -29 -20 -29 -18 0
-20 7 -20 56 0 55 1 56 25 52 14 -3 28 -1 31 3 7 12 21 11 43 0z m362 -1 c5 0
9 -6 9 -14 0 -9 -7 -12 -22 -9 -21 5 -20 2 7 -20 25 -21 28 -29 19 -44 -15
-24 -84 -31 -84 -9 0 11 9 16 28 16 l27 1 -27 15 c-16 8 -28 23 -28 34 0 21
28 42 48 35 8 -3 18 -5 23 -5z m-493 -12 c7 -7 12 -20 12 -30 0 -14 -8 -18
-35 -18 -19 0 -35 -4 -35 -10 0 -5 14 -10 31 -10 20 0 29 -4 27 -12 -7 -20
-63 -21 -82 -3 -19 19 -21 66 -4 83 16 16 70 16 86 0z m282 -43 c0 -48 -2 -55
-20 -55 -18 0 -20 7 -20 55 0 48 2 55 20 55 18 0 20 -7 20 -55z m117 43 c-2
-7 -11 -13 -20 -13 -9 0 -21 -5 -27 -11 -17 -17 0 -44 27 -44 15 0 23 -5 21
-12 -3 -7 -20 -13 -39 -13 -27 0 -36 5 -47 28 -20 41 5 77 54 77 24 0 34 -4
31 -12z m-4397 -27 c0 -11 6 -18 16 -17 23 2 38 -26 30 -57 -5 -23 -11 -26
-41 -25 l-35 1 0 59 c0 45 3 58 15 58 8 0 15 -8 15 -19z m193 -2 c3 -12 10
-18 17 -14 19 11 40 -16 40 -51 0 -24 -5 -34 -15 -34 -10 0 -15 10 -15 30 0
17 -5 30 -10 30 -6 0 -13 -13 -16 -30 -11 -51 -24 -33 -24 30 0 59 12 80 23
39z m107 11 c0 -5 -7 -10 -15 -10 -8 0 -15 5 -15 10 0 6 7 10 15 10 8 0 15 -4
15 -10z m210 -50 l0 -59 -37 2 c-35 2 -38 4 -41 36 -4 35 12 55 36 46 7 -2 12
4 12 15 0 11 7 20 15 20 12 0 15 -13 15 -60z m760 0 c0 -47 -3 -60 -15 -60
-12 0 -15 13 -15 60 0 47 3 60 15 60 12 0 15 -13 15 -60z m50 0 c0 -47 -3 -60
-15 -60 -12 0 -15 13 -15 60 0 47 3 60 15 60 12 0 15 -13 15 -60z m-1182 18
c20 -20 14 -38 -13 -38 -14 0 -25 -4 -25 -10 0 -5 9 -10 20 -10 11 0 20 -4 20
-10 0 -14 -43 -13 -58 2 -26 26 -7 78 28 78 9 0 21 -5 28 -12z m162 -33 c0
-33 -4 -45 -15 -45 -11 0 -15 12 -15 45 0 33 4 45 15 45 11 0 15 -12 15 -45z
m100 25 c15 -29 12 -70 -5 -70 -10 0 -15 10 -15 30 0 20 -5 30 -15 30 -10 0
-15 -10 -15 -30 0 -20 -5 -30 -15 -30 -11 0 -15 11 -15 38 0 46 2 49 40 50 20
0 33 -6 40 -18z m238 -26 c3 -40 2 -41 -30 -42 -18 0 -36 4 -39 10 -11 17 1
38 22 38 10 0 19 5 19 11 0 6 -7 9 -15 6 -18 -7 -30 9 -13 17 35 14 53 1 56
-40z m145 25 c15 -24 0 -69 -23 -69 -13 0 -20 -7 -20 -20 0 -11 -7 -20 -15
-20 -12 0 -15 14 -15 64 l0 64 32 -2 c17 -1 36 -9 41 -17z m81 15 c11 -4 16
-19 16 -43 0 -36 -1 -38 -35 -39 -31 -1 -35 1 -35 23 0 18 5 25 20 25 11 0 20
5 20 11 0 6 -7 9 -15 6 -8 -4 -17 -2 -20 3 -3 5 3 11 12 13 10 3 19 5 20 6 1
0 8 -2 17 -5z m69 -20 l14 -27 7 27 c5 21 12 26 36 26 24 0 31 -5 37 -27 l7
-28 6 25 c7 32 40 40 40 11 0 -12 5 -21 10 -21 6 0 10 9 10 20 0 11 7 20 16
20 10 0 14 -6 10 -17 -3 -10 -8 -30 -12 -45 -8 -38 -44 -39 -44 -2 0 14 -4 23
-10 19 -5 -3 -10 -15 -10 -26 0 -36 -34 -18 -44 24 -5 20 -12 37 -16 37 -3 0
-14 -25 -24 -54 -18 -54 -37 -73 -58 -60 -7 5 -5 12 6 20 16 11 16 15 2 49 -9
21 -16 41 -16 46 0 19 20 8 33 -17z m275 14 c7 -7 12 -26 12 -44 0 -31 -2 -32
-37 -31 -31 2 -38 6 -38 22 0 13 8 21 23 23 12 2 22 8 22 14 0 5 -7 8 -15 5
-8 -4 -17 -2 -20 3 -11 18 36 25 53 8z m3352 -34 c0 -14 -21 -19 -33 -7 -9 9
13 34 24 27 5 -3 9 -12 9 -20z m-3210 -124 c0 -5 -7 -10 -15 -10 -8 0 -15 5
-15 10 0 6 7 10 15 10 8 0 15 -4 15 -10z m150 -50 c0 -47 -3 -60 -15 -60 -12
0 -15 13 -15 60 0 47 3 60 15 60 12 0 15 -13 15 -60z m-1621 13 l20 -38 1 38
c0 59 24 41 28 -21 3 -49 2 -52 -21 -52 -16 0 -28 10 -40 33 l-16 32 0 -32
c-1 -22 -6 -33 -16 -33 -12 0 -15 13 -15 55 0 48 2 55 20 55 12 0 27 -13 39
-37z m871 16 c11 -8 12 -12 3 -16 -15 -6 -18 -53 -3 -53 6 0 10 -5 10 -11 0
-6 -10 -9 -22 -7 -18 2 -24 12 -29 40 -8 49 10 69 41 47z m-736 -15 c23 -22
20 -34 -9 -34 -14 0 -25 -4 -25 -10 0 -5 9 -10 20 -10 11 0 20 -5 20 -11 0 -6
-14 -9 -31 -7 -39 4 -55 35 -33 67 18 25 37 27 58 5z m57 -11 l11 -28 10 28
c5 15 16 27 24 27 18 0 17 -1 -2 -50 -9 -22 -22 -40 -30 -40 -12 0 -44 59 -44
81 0 20 21 7 31 -18z m137 15 c20 -20 14 -38 -13 -38 -14 0 -25 -4 -25 -10 0
-5 9 -10 20 -10 11 0 20 -4 20 -10 0 -14 -43 -13 -58 2 -18 18 -15 55 6 67 23
14 36 13 50 -1z m92 -4 c0 -8 -7 -14 -15 -14 -10 0 -15 -10 -15 -30 0 -20 -5
-30 -15 -30 -11 0 -15 11 -15 43 0 40 2 42 30 43 19 1 30 -4 30 -12z m118 -1
c2 -8 -5 -13 -18 -13 -15 0 -20 -5 -18 -17 2 -10 11 -17 21 -17 9 1 17 -4 17
-12 0 -17 -41 -19 -58 -2 -18 18 -15 55 6 67 21 13 44 10 50 -6z m82 0 c0 -7
-7 -13 -15 -13 -10 0 -15 -10 -15 -30 0 -20 -5 -30 -15 -30 -11 0 -15 11 -15
43 0 42 1 44 30 44 18 0 30 -6 30 -14z m71 7 c28 -15 24 -40 -6 -40 -14 0 -25
-4 -25 -10 0 -5 9 -10 20 -10 11 0 20 -4 20 -10 0 -14 -43 -13 -58 2 -23 23
-8 78 21 78 4 0 17 -5 28 -10z m93 4 c11 -4 16 -19 16 -44 0 -35 -2 -37 -32
-38 -18 0 -36 4 -39 10 -11 17 1 38 22 38 10 0 19 5 19 11 0 6 -7 9 -15 5 -15
-5 -20 5 -8 17 8 9 17 9 37 1z m180 -10 c23 -22 20 -34 -9 -34 -14 0 -25 -4
-25 -10 0 -5 9 -10 20 -10 11 0 20 -4 20 -10 0 -5 -14 -10 -30 -10 -23 0 -33
6 -39 23 -19 50 27 88 63 51z m134 4 c7 -7 12 -26 12 -44 0 -31 -2 -32 -37
-31 -31 2 -38 6 -38 22 0 13 8 21 23 23 12 2 22 8 22 14 0 5 -7 8 -15 5 -8 -4
-17 -2 -20 3 -11 18 36 25 53 8z m126 6 c21 -8 10 -25 -12 -18 -11 4 -9 -1 7
-14 32 -26 22 -52 -19 -52 -16 0 -30 5 -30 10 0 6 10 10 23 10 l22 0 -25 19
c-20 16 -22 21 -11 35 15 18 21 19 45 10z m97 -4 c21 -12 25 -50 7 -68 -7 -7
-22 -12 -35 -12 -37 0 -51 60 -19 82 15 10 24 10 47 -2z m99 -5 c0 -9 -9 -15
-21 -15 -14 0 -19 -5 -17 -17 2 -10 11 -17 21 -17 9 1 17 -4 17 -12 0 -21 -48
-17 -60 5 -14 27 -13 37 6 55 20 20 54 21 54 1z m50 -30 c0 -33 -4 -45 -15
-45 -11 0 -15 12 -15 45 0 33 4 45 15 45 11 0 15 -12 15 -45z m88 33 c7 -7 12
-26 12 -44 0 -30 -2 -31 -37 -30 -31 1 -38 5 -38 21 0 13 8 21 23 23 12 2 22
8 22 14 0 6 -9 8 -20 5 -22 -6 -28 8 -7 16 21 9 32 8 45 -5z m-1918 -74 c0
-11 -112 -109 -121 -107 -5 2 -5 -5 -2 -14 5 -13 2 -15 -11 -10 -11 5 -15 3
-10 -4 4 -7 1 -10 -7 -7 -8 3 -13 11 -11 17 1 6 -4 11 -10 11 -20 1 -55 34
-55 53 0 24 9 21 39 -13 14 -16 30 -30 35 -30 5 0 34 25 64 55 46 47 89 70 89
49z m2800 -9 c0 -8 -6 -15 -14 -15 -24 0 -30 -21 -7 -27 27 -7 28 -33 1 -33
-18 0 -20 -7 -20 -55 0 -48 -2 -55 -20 -55 -18 0 -20 7 -20 55 0 33 -4 55 -11
55 -6 0 -9 6 -6 13 2 6 9 11 15 10 5 -1 8 6 5 16 -2 10 3 25 12 35 21 20 65
21 65 1z m508 -88 c2 -79 0 -97 -12 -97 -8 0 -16 6 -19 13 -3 9 -9 9 -29 -1
-38 -20 -68 1 -68 48 0 74 19 96 68 78 19 -6 22 -4 23 20 1 15 1 31 0 35 -1 5
6 7 16 5 16 -3 18 -17 21 -101z m1339 91 c-2 -7 -11 -12 -20 -12 -24 2 -31
-27 -7 -33 21 -5 28 -33 9 -33 -5 0 -7 5 -3 12 4 7 3 8 -4 4 -7 -4 -12 -33
-12 -67 0 -52 -2 -60 -17 -57 -15 3 -18 14 -17 68 1 36 -1 59 -3 53 -6 -18
-23 -16 -23 2 0 8 5 15 10 15 6 0 10 9 10 20 0 22 25 39 58 40 15 0 22 -5 19
-12z m183 -88 c0 -94 -1 -100 -20 -100 -20 0 -21 5 -19 100 1 91 3 100 20 100
17 0 19 -9 19 -100z m718 -3 c2 -79 0 -97 -12 -97 -21 0 -27 26 -25 118 1 70
4 82 18 80 13 -3 17 -20 19 -101z m-1022 81 c5 -7 3 -8 -6 -3 -10 6 -12 4 -7
-8 6 -15 -9 -63 -23 -77 -3 -3 -6 -16 -8 -30 -1 -14 -7 -26 -12 -28 -5 -2 -6
-10 -3 -18 3 -9 -2 -14 -17 -14 -23 0 -22 9 3 70 6 14 11 27 12 30 26 89 42
109 61 78z m226 -11 c-4 -15 -7 -16 -14 -5 -7 9 -8 6 -5 -10 10 -44 -49 -170
-69 -149 -7 7 18 77 27 77 6 0 8 4 5 9 -11 17 27 100 44 98 12 -1 15 -7 12
-20z m1228 -8 c0 -5 -4 -7 -10 -4 -5 3 -10 1 -10 -5 0 -6 6 -10 13 -9 28 4 44
-2 44 -16 0 -8 -9 -15 -19 -15 -16 0 -19 -6 -16 -37 2 -29 7 -38 21 -37 23 2
22 -23 -3 -31 -37 -12 -60 11 -60 60 0 26 -5 45 -12 47 -9 3 -8 9 5 22 9 10
17 22 17 27 0 5 7 9 15 9 8 0 15 -5 15 -11z m-3473 -23 c1 -1 -1 -15 -6 -32
-7 -27 -25 -41 -76 -60 -17 -7 -16 -8 10 -11 65 -7 75 -13 75 -38 0 -33 -39
-57 -86 -53 -47 4 -65 29 -40 56 12 14 14 22 6 27 -8 5 -8 10 0 20 7 8 8 20 4
27 -16 25 -15 51 1 44 10 -4 14 -2 9 5 -11 19 19 30 61 23 22 -3 41 -7 42 -8z
m611 -2 c19 -13 22 -24 22 -75 0 -55 -2 -59 -23 -59 -21 0 -24 5 -26 51 -1 28
-8 58 -16 66 -12 12 -16 8 -25 -26 -6 -22 -10 -43 -9 -48 5 -27 -3 -43 -21
-43 -18 0 -20 7 -20 70 l0 69 35 -1 c19 -1 38 2 42 5 9 10 16 9 41 -9z m372
-16 c0 -3 -8 -5 -17 -3 -10 1 -17 8 -16 13 2 6 -4 9 -12 6 -12 -5 -13 -8 0
-20 8 -8 20 -13 27 -12 9 2 14 -13 16 -49 3 -51 2 -53 -22 -53 -25 0 -26 3
-26 55 0 48 -2 55 -20 55 -12 0 -21 -7 -22 -17 0 -10 -2 -22 -3 -28 -2 -5 -3
-22 -4 -37 -1 -21 -6 -28 -21 -28 -18 0 -20 7 -20 71 l0 71 33 -5 c17 -3 41
-2 52 2 19 8 55 -6 55 -21z m65 18 c13 -10 20 -30 23 -75 4 -60 4 -61 -22 -61
-25 0 -26 2 -26 55 0 42 -3 55 -15 55 -18 0 -20 26 -2 33 19 8 22 8 42 -7z
m170 -11 c14 -14 25 -35 25 -45 0 -17 -7 -20 -46 -20 -32 0 -44 -4 -41 -12 2
-7 20 -13 40 -13 38 0 50 -18 21 -29 -51 -19 -114 18 -114 68 0 30 43 76 70
76 11 0 31 -11 45 -25z m338 -12 c-26 -18 -30 -55 -8 -73 23 -19 36 -2 34 46
-2 24 0 46 2 49 11 10 39 -21 44 -50 7 -38 -19 -72 -61 -81 -42 -8 -74 22 -74
69 0 40 9 53 40 65 35 14 52 -5 23 -25z m222 27 c18 -7 33 -7 46 1 16 8 26 7
45 -6 21 -13 24 -23 24 -75 0 -58 -1 -60 -26 -60 -25 0 -26 2 -22 55 3 51 2
55 -19 55 -21 0 -23 -5 -23 -55 0 -52 -1 -55 -25 -55 -24 0 -25 3 -25 55 0 50
-2 55 -22 55 -22 0 -23 -4 -20 -55 4 -53 3 -55 -22 -55 -26 0 -26 1 -26 70 0
54 3 70 14 70 8 0 18 -5 21 -10 4 -7 14 -5 28 5 25 18 20 17 52 5z m703 -12
c6 -6 12 -24 12 -40 0 -22 -4 -29 -17 -27 -10 1 -31 1 -47 0 -25 -1 -27 -3
-15 -17 8 -10 23 -14 41 -12 22 4 28 1 26 -11 -3 -12 -15 -16 -47 -15 -50 1
-71 21 -71 67 0 32 17 70 28 63 5 -3 14 -1 22 4 16 10 47 4 68 -12z m122 11
c0 -5 5 -7 10 -4 22 13 37 -16 39 -75 2 -48 -1 -60 -13 -60 -9 0 -16 7 -16 16
0 9 5 13 13 9 6 -4 4 0 -5 8 -10 8 -18 19 -18 26 0 13 -29 15 -48 2 -18 -11
12 -36 34 -27 10 4 14 1 12 -6 -7 -20 -57 -32 -74 -17 -18 14 -15 65 4 62 6
-2 12 2 12 7 0 6 14 10 31 10 20 0 29 4 26 13 -2 6 -18 11 -36 11 -20 -1 -31
3 -31 11 0 12 9 16 53 24 4 0 7 -4 7 -10z m190 -13 c0 -19 -6 -25 -27 -28 -26
-3 -27 -5 -24 -50 2 -46 1 -48 -23 -48 -25 0 -26 1 -26 70 0 62 2 70 19 70 11
0 21 -6 23 -12 3 -9 9 -8 22 5 24 24 36 21 36 -7z m150 4 c15 -15 20 -33 20
-75 0 -53 -1 -55 -26 -55 -25 0 -26 2 -22 55 3 54 2 56 -22 53 -23 -3 -25 -8
-28 -55 -3 -45 -6 -53 -23 -53 -17 0 -19 7 -19 68 l0 69 45 -2 c24 -1 42 2 39
6 -10 17 16 9 36 -11z m220 10 c0 -5 8 -6 17 -3 12 5 15 2 10 -10 -3 -9 -1
-19 5 -23 7 -4 8 -3 4 4 -4 7 -3 12 2 12 11 0 22 -24 22 -49 0 -10 -12 -30
-26 -46 -21 -23 -31 -26 -57 -21 -18 3 -38 14 -44 23 -21 27 -14 111 8 97 5
-3 9 -1 9 5 0 8 16 16 43 20 4 0 7 -3 7 -9z m153 -27 c-26 -18 -30 -55 -8 -73
23 -19 36 -2 34 46 -3 49 4 62 25 45 41 -34 20 -114 -33 -126 -36 -8 -75 10
-67 31 3 9 1 12 -4 9 -12 -7 -13 54 -2 72 12 19 55 32 67 21 7 -7 2 -15 -12
-25z m-3163 7 c27 -27 25 -66 -5 -95 -29 -30 -68 -32 -95 -5 -32 32 -22 125
10 105 9 -5 11 -4 6 3 -13 22 62 14 84 -8z m210 -24 c0 -25 -4 -48 -10 -51
-13 -8 -13 -25 1 -25 5 0 7 5 3 11 -4 7 0 9 14 5 26 -9 42 18 42 68 0 29 4 36
20 36 18 0 20 -7 20 -70 0 -58 -3 -70 -16 -70 -10 0 -14 6 -11 15 4 8 1 17 -5
21 -6 4 -8 3 -5 -3 7 -10 -33 -33 -58 -33 -24 0 -45 42 -45 92 0 45 2 48 25
48 23 0 25 -4 25 -44z m1097 30 c-2 -6 -16 -11 -30 -11 -15 1 -27 -3 -27 -8 0
-4 -4 -6 -8 -3 -5 3 -6 -9 -4 -25 3 -17 11 -33 18 -36 8 -3 11 -10 8 -15 -4
-6 4 -5 16 2 26 14 38 6 20 -15 -18 -22 -56 -19 -80 7 -22 24 -27 87 -8 106
15 15 100 13 95 -2z m-3177 -57 c0 -11 4 -18 9 -15 5 4 16 3 25 0 22 -8 23
-84 1 -84 -10 0 -15 10 -15 30 0 17 -4 30 -10 30 -5 0 -10 -13 -10 -30 0 -20
-5 -30 -15 -30 -12 0 -15 13 -15 60 0 47 3 60 15 60 8 0 15 -9 15 -21z m100
11 c0 -5 -7 -10 -16 -10 -8 0 -12 5 -9 10 3 6 10 10 16 10 5 0 9 -4 9 -10z
m480 -11 c0 -11 4 -18 9 -15 22 14 41 -7 41 -45 0 -44 -17 -53 -22 -12 -4 39
-28 42 -28 4 0 -21 -5 -31 -15 -31 -12 0 -15 13 -15 60 0 47 3 60 15 60 8 0
15 -9 15 -21z m-480 -54 c0 -33 -4 -45 -15 -45 -11 0 -15 11 -15 38 0 21 3 42
7 45 16 16 23 4 23 -38z m90 30 c18 -21 6 -45 -19 -38 -12 3 -21 1 -21 -6 0
-6 12 -11 26 -11 14 0 23 -4 19 -10 -9 -14 -48 -13 -63 2 -18 18 -15 55 6 67
24 14 38 13 52 -4z m90 -2 c0 -7 -7 -13 -15 -13 -10 0 -15 -10 -15 -30 0 -20
-5 -30 -15 -30 -11 0 -15 11 -15 43 0 42 1 44 30 44 18 0 30 -6 30 -14z m74
11 c11 -4 16 -19 16 -44 0 -38 0 -38 -37 -37 -31 2 -38 6 -38 22 0 13 8 21 23
23 12 2 22 8 22 14 0 5 -7 8 -15 5 -8 -4 -17 -2 -20 3 -3 4 1 11 7 13 19 8 24
8 42 1z m96 -10 c0 -7 -7 -14 -15 -18 -8 -3 -15 -17 -15 -31 0 -16 -6 -25 -15
-25 -11 0 -15 11 -15 38 0 21 2 41 4 43 10 9 56 3 56 -7z m77 0 c2 -7 -4 -11
-14 -10 -12 0 -18 -6 -18 -19 0 -13 6 -20 18 -19 9 1 17 -4 17 -12 0 -21 -48
-17 -60 5 -14 27 -13 37 6 56 18 17 45 17 51 -1z m154 -11 l10 -27 12 23 c10
20 23 29 28 19 1 -2 -4 -22 -11 -45 -15 -48 -43 -79 -61 -67 -9 5 -8 10 5 20
16 11 16 15 2 49 -19 44 -20 55 -6 55 6 0 15 -12 21 -27z m2347 -10 c-2 -10
-10 -18 -18 -18 -8 0 -16 8 -18 18 -2 12 3 17 18 17 15 0 20 -5 18 -17z"/>
<path d="M5270 3430 c0 -42 1 -43 38 -34 40 11 23 74 -20 74 -14 0 -18 -8 -18
-40z"/>
<path d="M4847 2913 c-4 -3 -7 -21 -7 -40 0 -30 3 -33 29 -33 23 0 31 6 40 30
5 17 6 28 1 25 -4 -3 -10 -1 -12 4 -4 12 -43 23 -51 14z"/>
<path d="M4858 2813 c7 -3 16 -2 19 1 4 3 -2 6 -13 5 -11 0 -14 -3 -6 -6z"/>
<path d="M5358 2862 c-9 -34 -13 -64 -10 -67 3 -3 18 -5 34 -5 26 0 28 3 22
22 -3 12 -8 34 -9 48 -1 14 -6 34 -12 44 -8 15 -13 8 -25 -42z"/>
<path d="M5854 2387 c-7 -20 1 -47 15 -47 17 0 22 33 7 49 -14 13 -16 13 -22
-2z"/>
<path d="M4160 2395 c0 -14 5 -25 10 -25 6 0 10 11 10 25 0 14 -4 25 -10 25
-5 0 -10 -11 -10 -25z"/>
<path d="M4486 2393 c-9 -10 -7 -53 3 -53 11 0 21 49 11 55 -4 2 -10 2 -14 -2z"/>
<path d="M4807 2383 c-10 -10 -8 -43 2 -43 9 0 21 24 21 41 0 11 -14 12 -23 2z"/>
<path d="M5026 2393 c-9 -10 -7 -53 3 -53 11 0 21 49 11 55 -4 2 -10 2 -14 -2z"/>
<path d="M5990 2390 c0 -5 7 -10 16 -10 8 0 12 5 9 10 -3 6 -10 10 -16 10 -5
0 -9 -4 -9 -10z"/>
<path d="M5560 2085 c0 -16 6 -25 15 -25 9 0 15 9 15 25 0 16 -6 25 -15 25 -9
0 -15 -9 -15 -25z"/>
<path d="M5080 2110 c0 -5 7 -10 15 -10 8 0 15 5 15 10 0 6 -7 10 -15 10 -8 0
-15 -4 -15 -10z"/>
<path d="M5205 2070 c-3 -5 1 -10 9 -10 9 0 16 5 16 10 0 6 -4 10 -9 10 -6 0
-13 -4 -16 -10z"/>
<path d="M5435 2110 c-3 -5 1 -10 9 -10 9 0 16 5 16 10 0 6 -4 10 -9 10 -6 0
-13 -4 -16 -10z"/>
<path d="M1031 1814 c0 -11 3 -14 6 -6 3 7 2 16 -1 19 -3 4 -6 -2 -5 -13z"/>
<path d="M4477 1813 c-10 -10 -8 -43 2 -43 9 0 21 24 21 41 0 11 -14 12 -23 2z"/>
<path d="M5814 1817 c-8 -21 1 -47 16 -47 19 0 23 31 7 48 -15 14 -17 14 -23
-1z"/>
<path d="M4355 1820 c-3 -5 1 -10 9 -10 9 0 16 5 16 10 0 6 -4 10 -9 10 -6 0
-13 -4 -16 -10z"/>
<path d="M4830 1795 c0 -28 15 -34 24 -9 10 25 7 34 -9 34 -9 0 -15 -9 -15
-25z"/>
<path d="M5127 1823 c-11 -10 -8 -53 3 -53 6 0 10 14 10 30 0 31 -2 35 -13 23z"/>
<path d="M5377 1813 c-10 -10 -8 -43 2 -43 9 0 21 24 21 41 0 11 -14 12 -23 2z"/>
<path d="M5950 1820 c0 -5 7 -10 15 -10 8 0 15 5 15 10 0 6 -7 10 -15 10 -8 0
-15 -4 -15 -10z"/>
<path d="M6075 1810 c-8 -27 10 -49 26 -33 13 13 8 45 -8 50 -6 2 -14 -6 -18
-17z"/>
<path d="M2730 1520 c0 -11 5 -20 10 -20 6 0 10 9 10 20 0 11 -4 20 -10 20 -5
0 -10 -9 -10 -20z"/>
<path d="M1155 1510 c-3 -5 -2 -10 4 -10 5 0 13 5 16 10 3 6 2 10 -4 10 -5 0
-13 -4 -16 -10z"/>
<path d="M1360 1540 c0 -5 5 -10 10 -10 6 0 10 5 10 10 0 6 -4 10 -10 10 -5 0
-10 -4 -10 -10z"/>
<path d="M1550 1540 c0 -5 5 -10 10 -10 6 0 10 5 10 10 0 6 -4 10 -10 10 -5 0
-10 -4 -10 -10z"/>
<path d="M1645 1510 c-3 -5 -1 -10 4 -10 6 0 11 5 11 10 0 6 -2 10 -4 10 -3 0
-8 -4 -11 -10z"/>
<path d="M2070 1540 c0 -5 5 -10 10 -10 6 0 10 5 10 10 0 6 -4 10 -10 10 -5 0
-10 -4 -10 -10z"/>
<path d="M2070 1470 c0 -5 7 -10 15 -10 8 0 15 5 15 10 0 6 -7 10 -15 10 -8 0
-15 -4 -15 -10z"/>
<path d="M2525 1510 c-3 -5 -2 -10 4 -10 5 0 13 5 16 10 3 6 2 10 -4 10 -5 0
-13 -4 -16 -10z"/>
<path d="M4280 1525 c0 -8 5 -15 10 -15 6 0 10 7 10 15 0 8 -4 15 -10 15 -5 0
-10 -7 -10 -15z"/>
<path d="M4270 1441 c0 -6 4 -12 9 -15 13 -8 42 4 35 15 -7 12 -44 12 -44 0z"/>
<path d="M4405 1490 c-3 -5 1 -10 9 -10 9 0 16 5 16 10 0 6 -4 10 -9 10 -6 0
-13 -4 -16 -10z"/>
<path d="M4745 1530 c-3 -5 3 -10 15 -10 12 0 18 5 15 10 -3 6 -10 10 -15 10
-5 0 -12 -4 -15 -10z"/>
<path d="M5155 1490 c-3 -5 1 -10 9 -10 9 0 16 5 16 10 0 6 -4 10 -9 10 -6 0
-13 -4 -16 -10z"/>
<path d="M5535 1530 c-3 -5 1 -10 9 -10 9 0 16 5 16 10 0 6 -4 10 -9 10 -6 0
-13 -4 -16 -10z"/>
<path d="M5660 1490 c0 -5 4 -10 9 -10 6 0 13 5 16 10 3 6 -1 10 -9 10 -9 0
-16 -4 -16 -10z"/>
<path d="M6045 1530 c-3 -5 1 -10 9 -10 9 0 16 5 16 10 0 6 -4 10 -9 10 -6 0
-13 -4 -16 -10z"/>
<path d="M513 1435 c0 -8 4 -12 9 -9 5 3 6 10 3 15 -9 13 -12 11 -12 -6z"/>
<path d="M1550 1320 c0 -5 5 -10 10 -10 6 0 10 5 10 10 0 6 -4 10 -10 10 -5 0
-10 -4 -10 -10z"/>
<path d="M1751 1314 c0 -11 3 -14 6 -6 3 7 2 16 -1 19 -3 4 -6 -2 -5 -13z"/>
<path d="M1740 1250 c0 -5 7 -10 15 -10 8 0 15 5 15 10 0 6 -7 10 -15 10 -8 0
-15 -4 -15 -10z"/>
<path d="M1840 1290 c0 -5 5 -10 10 -10 6 0 10 5 10 10 0 6 -4 10 -10 10 -5 0
-10 -4 -10 -10z"/>
<path d="M1940 1320 c0 -5 5 -10 10 -10 6 0 10 5 10 10 0 6 -4 10 -10 10 -5 0
-10 -4 -10 -10z"/>
<path d="M1930 1250 c0 -5 7 -10 15 -10 8 0 15 5 15 10 0 6 -7 10 -15 10 -8 0
-15 -4 -15 -10z"/>
<path d="M2190 1320 c0 -5 5 -10 10 -10 6 0 10 5 10 10 0 6 -4 10 -10 10 -5 0
-10 -4 -10 -10z"/>
<path d="M2185 1250 c-3 -5 3 -10 14 -10 12 0 21 5 21 10 0 6 -6 10 -14 10 -8
0 -18 -4 -21 -10z"/>
<path d="M5805 1219 c-8 -23 -1 -34 14 -24 13 8 15 45 2 45 -5 0 -13 -9 -16
-21z"/>
<path d="M4636 1243 c-9 -10 -7 -55 3 -49 12 8 21 45 11 51 -4 2 -10 2 -14 -2z"/>
<path d="M5077 1244 c-10 -10 -9 -54 2 -54 12 0 22 43 13 52 -5 5 -11 5 -15 2z"/>
<path d="M5327 1233 c-4 -3 -7 -15 -7 -25 0 -26 24 -17 28 10 3 21 -8 29 -21
15z"/>
<path d="M5690 1240 c0 -5 5 -10 10 -10 6 0 10 5 10 10 0 6 -4 10 -10 10 -5 0
-10 -4 -10 -10z"/>
<path d="M4760 1240 c0 -5 5 -10 10 -10 6 0 10 5 10 10 0 6 -4 10 -10 10 -5 0
-10 -4 -10 -10z"/>
<path d="M2022 1116 c1 -10 8 -17 13 -17 15 1 12 24 -3 29 -9 3 -13 -2 -10
-12z"/>
<path d="M1205 1130 c-3 -5 -1 -10 4 -10 6 0 11 5 11 10 0 6 -2 10 -4 10 -3 0
-8 -4 -11 -10z"/>
<path d="M1395 1130 c-3 -5 1 -10 10 -10 9 0 13 5 10 10 -3 6 -8 10 -10 10 -2
0 -7 -4 -10 -10z"/>
<path d="M1610 1110 c0 -11 5 -20 10 -20 6 0 10 9 10 20 0 11 -4 20 -10 20 -5
0 -10 -9 -10 -20z"/>
<path d="M1930 1130 c0 -5 5 -10 11 -10 5 0 7 5 4 10 -3 6 -8 10 -11 10 -2 0
-4 -4 -4 -10z"/>
<path d="M2310 1100 c0 -5 5 -10 10 -10 6 0 10 5 10 10 0 6 -4 10 -10 10 -5 0
-10 -4 -10 -10z"/>
<path d="M2537 1134 c-10 -11 -8 -44 2 -44 6 0 13 4 16 10 8 12 -9 43 -18 34z"/>
<path d="M5030 935 c0 -16 6 -25 15 -25 9 0 15 9 15 25 0 16 -6 25 -15 25 -9
0 -15 -9 -15 -25z"/>
<path d="M4660 920 c0 -5 5 -10 10 -10 6 0 10 5 10 10 0 6 -4 10 -10 10 -5 0
-10 -4 -10 -10z"/>
<path d="M4900 920 c0 -5 5 -10 10 -10 6 0 10 5 10 10 0 6 -4 10 -10 10 -5 0
-10 -4 -10 -10z"/>
<path d="M5165 960 c-3 -5 1 -10 9 -10 9 0 16 5 16 10 0 6 -4 10 -9 10 -6 0
-13 -4 -16 -10z"/>
<path d="M1220 890 c0 -11 5 -20 10 -20 6 0 10 9 10 20 0 11 -4 20 -10 20 -5
0 -10 -9 -10 -20z"/>
<path d="M1675 900 c-8 -13 4 -32 16 -25 12 8 12 35 0 35 -6 0 -13 -4 -16 -10z"/>
<path d="M1320 910 c0 -5 5 -10 10 -10 6 0 10 5 10 10 0 6 -4 10 -10 10 -5 0
-10 -4 -10 -10z"/>
<path d="M1815 880 c-3 -5 -1 -10 4 -10 6 0 11 5 11 10 0 6 -2 10 -4 10 -3 0
-8 -4 -11 -10z"/>
<path d="M1960 890 c0 -11 5 -20 10 -20 6 0 10 9 10 20 0 11 -4 20 -10 20 -5
0 -10 -9 -10 -20z"/>
<path d="M2055 880 c-3 -5 -1 -10 4 -10 6 0 11 5 11 10 0 6 -2 10 -4 10 -3 0
-8 -4 -11 -10z"/>
<path d="M2390 880 c0 -5 5 -10 10 -10 6 0 10 5 10 10 0 6 -4 10 -10 10 -5 0
-10 -4 -10 -10z"/>
<path d="M1200 720 c0 -5 5 -10 10 -10 6 0 10 5 10 10 0 6 -4 10 -10 10 -5 0
-10 -4 -10 -10z"/>
<path d="M1390 720 c0 -5 5 -10 10 -10 6 0 10 5 10 10 0 6 -4 10 -10 10 -5 0
-10 -4 -10 -10z"/>
<path d="M1760 720 c0 -5 5 -10 10 -10 6 0 10 5 10 10 0 6 -4 10 -10 10 -5 0
-10 -4 -10 -10z"/>
<path d="M1855 690 c-3 -5 -2 -10 4 -10 5 0 13 5 16 10 3 6 2 10 -4 10 -5 0
-13 -4 -16 -10z"/>
<path d="M2030 720 c0 -5 5 -10 10 -10 6 0 10 5 10 10 0 6 -4 10 -10 10 -5 0
-10 -4 -10 -10z"/>
<path d="M2165 690 c-3 -5 -1 -10 4 -10 6 0 11 5 11 10 0 6 -2 10 -4 10 -3 0
-8 -4 -11 -10z"/>
<path d="M2386 714 c-7 -18 0 -34 15 -34 12 0 12 37 0 44 -5 3 -12 -1 -15 -10z"/>
<path d="M2620 690 c0 -5 5 -10 10 -10 6 0 10 5 10 10 0 6 -4 10 -10 10 -5 0
-10 -4 -10 -10z"/>
<path d="M3480 611 c0 -10 19 -25 25 -20 1 2 -3 10 -11 17 -8 7 -14 8 -14 3z"/>
<path d="M3977 579 c-22 -13 -23 -65 -1 -73 28 -11 34 -6 34 27 0 43 -11 58
-33 46z"/>
<path d="M3162 575 c-2 -25 2 -35 12 -35 23 0 29 32 8 52 -17 18 -18 17 -20
-17z"/>
<path d="M3138 451 c-15 -18 -14 -18 16 -16 17 1 37 -3 45 -9 11 -8 13 -8 8 1
-4 6 -2 13 5 15 6 2 8 10 4 16 -11 18 -60 14 -78 -7z"/>
<path d="M4192 500 c0 -14 2 -19 5 -12 2 6 2 18 0 25 -3 6 -5 1 -5 -13z"/>
<path d="M4400 575 c0 -10 10 -15 31 -15 27 0 30 2 19 15 -7 8 -21 15 -31 15
-11 0 -19 -7 -19 -15z"/>
<path d="M5660 580 c0 -6 -4 -8 -10 -5 -5 3 -10 1 -10 -4 0 -15 55 -14 68 2 9
10 4 13 -19 15 -16 1 -29 -3 -29 -8z"/>
<path d="M5961 524 c0 -11 3 -14 6 -6 3 7 2 16 -1 19 -3 4 -6 -2 -5 -13z"/>
<path d="M6372 549 c2 -20 12 -38 28 -48 13 -9 21 -11 17 -4 -4 6 -4 14 1 17
5 3 7 19 4 36 -3 24 -9 30 -29 30 -21 0 -24 -4 -21 -31z"/>
<path d="M3343 583 c-26 -18 -30 -55 -8 -73 21 -18 32 -4 38 48 5 46 2 48 -30
25z"/>
<path d="M1685 500 c-3 -5 -1 -10 4 -10 6 0 11 5 11 10 0 6 -2 10 -4 10 -3 0
-8 -4 -11 -10z"/>
<path d="M1850 470 c0 -5 5 -10 10 -10 6 0 10 5 10 10 0 6 -4 10 -10 10 -5 0
-10 -4 -10 -10z"/>
<path d="M388 3582 c-16 -2 -28 -8 -28 -15 0 -18 70 -239 91 -284 22 -50 23
-60 7 -66 -10 -3 -10 -7 1 -20 12 -15 9 -17 -33 -17 l-46 0 0 -269 c0 -149 4
-272 8 -275 5 -3 185 -2 400 1 l392 6 0 269 0 268 125 0 c69 0 125 2 125 5 0
3 -30 76 -66 163 -36 86 -73 174 -81 194 l-16 38 -426 2 c-234 2 -438 2 -453
0z m572 -198 c0 -8 -4 -12 -10 -9 -5 3 -10 10 -10 16 0 5 5 9 10 9 6 0 10 -7
10 -16z m-367 -26 c3 -18 8 -43 12 -55 4 -14 3 -23 -3 -23 -6 0 -15 23 -21 50
-13 61 -13 60 -2 60 5 0 11 -15 14 -32z m348 -51 c-13 -13 -15 11 -4 40 7 16
8 15 11 -6 2 -13 -1 -28 -7 -34z m199 24 c0 -17 -54 -125 -57 -115 -3 9 4 31
23 74 1 3 5 15 9 28 7 21 25 31 25 13z m-363 -88 c-2 -16 -4 -5 -4 22 0 28 2
40 4 28 2 -13 2 -35 0 -50z"/>
<path d="M2858 3145 l3 -115 30 0 29 0 0 115 0 115 -32 0 -33 0 3 -115z"/>
<path d="M2018 3242 l-28 -3 0 -105 0 -104 76 0 c72 0 75 1 72 23 -2 18 -11
23 -43 27 l-40 5 -1 77 c0 43 -2 79 -5 81 -2 1 -16 1 -31 -1z"/>
<path d="M3342 3205 c-6 -14 -16 -25 -22 -25 -5 0 -10 -7 -10 -15 0 -8 6 -15
13 -15 9 0 12 -10 9 -30 -7 -46 5 -77 36 -92 48 -24 97 18 59 51 -8 6 -17 8
-20 4 -4 -3 -7 10 -7 30 0 21 3 36 8 36 34 -6 47 36 15 48 -10 4 -22 12 -26
20 -13 21 -43 15 -55 -12z"/>
<path d="M2606 3194 c-16 -9 -31 -12 -35 -7 -10 14 -41 15 -46 1 -2 -7 -5 -46
-7 -85 l-4 -73 38 0 37 0 3 53 c3 45 6 52 26 55 14 2 22 10 22 22 0 10 3 25 6
34 8 20 -3 20 -40 0z"/>
<path d="M2708 3204 c-4 -3 -14 -7 -25 -8 -15 -2 -18 -14 -21 -84 l-3 -82 31
0 c29 0 30 1 30 48 0 26 5 53 12 60 13 13 29 16 27 5 -1 -5 -1 -32 0 -60 l1
-53 35 0 35 0 0 65 c0 52 -4 69 -20 85 -23 23 -37 24 -75 10 -23 -9 -26 -8
-21 5 6 16 3 19 -6 9z"/>
<path d="M2181 3183 c-12 -10 -23 -36 -27 -59 -5 -34 -2 -45 17 -68 44 -50
155 -43 135 9 -4 11 -13 14 -31 9 -14 -3 -33 -3 -42 2 -13 6 -4 10 32 13 49 6
50 7 47 38 -2 17 1 34 7 38 6 3 11 12 11 18 0 7 -5 4 -11 -6 -10 -17 -12 -16
-36 3 -32 25 -74 26 -102 3z m73 -41 c2 -4 -4 -9 -15 -9 -11 -1 -17 2 -14 8 7
11 22 12 29 1z"/>
<path d="M2367 3193 c-12 -3 -17 -12 -15 -26 2 -18 9 -22 38 -20 l35 1 -35
-11 c-19 -7 -41 -16 -47 -20 -20 -13 -15 -62 8 -82 17 -16 25 -17 50 -8 18 7
41 8 59 3 l29 -8 3 56 c2 32 -1 67 -6 78 -14 36 -64 51 -119 37z m58 -103 c-3
-5 -13 -10 -21 -10 -8 0 -12 5 -9 10 3 6 13 10 21 10 8 0 12 -4 9 -10z"/>
<path d="M2968 3170 c-26 -27 -29 -35 -24 -68 9 -49 38 -72 90 -72 30 0 46 6
56 19 7 11 18 17 24 14 5 -4 7 1 3 11 -4 10 -7 30 -7 45 0 16 -11 40 -25 55
-34 36 -77 35 -117 -4z m77 -61 c0 -24 -5 -34 -15 -34 -16 0 -25 37 -16 62 10
26 31 8 31 -28z"/>
<path d="M3168 3182 c-32 -19 -44 -64 -30 -103 13 -33 33 -49 74 -55 46 -8 88
30 88 80 0 48 -8 65 -41 81 -36 19 -57 19 -91 -3z m68 -57 c7 -26 -11 -59 -27
-49 -10 6 -12 58 -2 67 13 13 23 7 29 -18z"/>
<path d="M2420 3020 c0 -5 5 -10 10 -10 6 0 10 5 10 10 0 6 -4 10 -10 10 -5 0
-10 -4 -10 -10z"/>
</g>
</svg>
